<?xml version="1.0" standalone="no"?>
<!DOCTYPE svg PUBLIC "-//W3C//DTD SVG 1.1//EN" "http://www.w3.org/Graphics/SVG/1.1/DTD/svg11.dtd" >
<svg xmlns="http://www.w3.org/2000/svg">
<metadata></metadata>
<defs>
<font id="textathin" horiz-adv-x="574" >
<font-face units-per-em="1000" ascent="800" descent="-200" />
<missing-glyph horiz-adv-x="243" />
<glyph horiz-adv-x="0" />
<glyph horiz-adv-x="333" />
<glyph horiz-adv-x="0" />
<glyph horiz-adv-x="0" />
<glyph unicode="&#xd;" horiz-adv-x="0" />
<glyph unicode=" "  horiz-adv-x="243" />
<glyph unicode="&#x09;" horiz-adv-x="243" />
<glyph unicode="&#xa0;" horiz-adv-x="243" />
<glyph unicode="!" horiz-adv-x="173" d="M92 132h-12l-4 468h21zM60 18q0 10 8 18t18 8t18 -8t8 -18t-8 -18t-18 -8t-18 8t-8 18z" />
<glyph unicode="&#x22;" horiz-adv-x="261" d="M75 475h-12l14 209h31zM178 475h-12l15 209h31z" />
<glyph unicode="#" horiz-adv-x="593" d="M434 408h123l-4 -20h-123l-45 -197h117l-4 -20h-118l-38 -171h-22l38 171h-174l-38 -171h-22l38 171h-126l4 20h127l44 197h-120l4 20h120l40 175h23l-40 -175h173l40 175h23zM189 191h174l44 197h-173z" />
<glyph unicode="$" horiz-adv-x="507" d="M66 68q7 -7 20.5 -16.5t59 -26.5t96.5 -18v296q-44 13 -70.5 23t-56.5 28.5t-44.5 44.5t-14.5 61q0 68 51.5 108.5t134.5 43.5v104h21v-103q57 -1 102.5 -14t62.5 -26l17 -13l-12 -18q-6 5 -18 13.5t-56 22.5t-96 15v-275q36 -11 58 -19t51.5 -23t45.5 -31.5t28 -42.5 t12 -57q0 -69 -48.5 -111.5t-146.5 -46.5v-94h-21v94q-55 1 -102 17t-67 32l-20 15zM77 461q0 -55 42 -84t123 -53v268q-71 -3 -118 -37.5t-47 -93.5zM437 145q0 33 -13.5 58t-41 42.5t-53 28t-66.5 23.5v-290q87 4 130.5 40t43.5 98z" />
<glyph unicode="%" horiz-adv-x="643" d="M160 613q55 0 86.5 -42.5t31.5 -104.5q0 -61 -31.5 -104t-86.5 -43t-86 43t-31 104q0 62 31 104.5t86 42.5zM577 600l-476 -600h-26l476 600h26zM160 593q-45 0 -70.5 -36.5t-25.5 -90.5q0 -53 25.5 -90t70.5 -37t71 37t26 90q0 54 -26 90.5t-71 36.5zM480 286 q55 0 86.5 -42.5t31.5 -104.5q0 -61 -31.5 -104t-86.5 -43t-86 43t-31 104q0 62 31 104.5t86 42.5zM480 266q-45 0 -70.5 -36.5t-25.5 -90.5q0 -53 25.5 -90t70.5 -37t71 37t26 90q0 54 -26 90.5t-71 36.5z" />
<glyph unicode="&#x26;" d="M533 301q0 -51 -19 -108.5t-55 -104.5l87 -88h-28l-72 73q-74 -86 -191 -86q-90 0 -146 45t-56 118q0 63 37.5 102t106.5 75v1q-30 32 -45 50t-27.5 46.5t-12.5 59.5q0 57 37.5 93t97.5 36q58 0 95 -36t37 -93q0 -30 -11.5 -54t-36.5 -44.5t-45 -33t-57 -31.5l215 -218 q68 90 68 202zM133 484q0 -39 17 -68t60 -74l5 -6q38 20 55 30t42 29t35.5 40.5t10.5 48.5q0 50 -30.5 80t-81.5 30q-49 0 -81 -30.5t-32 -79.5zM255 6q108 0 177 81l-220 225q-43 -23 -69 -41t-47.5 -50.5t-21.5 -70.5q0 -63 52 -103.5t129 -40.5z" />
<glyph unicode="'" horiz-adv-x="157" d="M75 475h-12l14 209h31z" />
<glyph unicode="(" horiz-adv-x="270" d="M69 287q0 -253 191 -407l-10 -15q-56 46 -83 78q-119 140 -119 344q0 260 195 415q5 4 7 6l10 -15q-191 -154 -191 -406z" />
<glyph unicode=")" horiz-adv-x="270" d="M201 287q0 252 -191 406l10 15q54 -45 77 -71q125 -140 125 -350q0 -260 -195 -416q-5 -4 -7 -6l-10 15q191 154 191 407z" />
<glyph unicode="*" horiz-adv-x="402" d="M189 541l-137 35l11 36l131 -56l-11 144h37l-11 -144l130 56l10 -36l-134 -34l89 -114l-30 -22l-72 127l-73 -127l-30 22z" />
<glyph unicode="+" horiz-adv-x="457" d="M240 312h164v-20h-164v-169h-21v169h-166v20h166v172h21v-172z" />
<glyph unicode="," horiz-adv-x="192" d="M97 44q11 0 18.5 -8t7.5 -18v-12q0 -40 -23.5 -69t-69.5 -38l-4 18q32 5 53.5 26.5t21.5 48.5q-15 0 -22.5 8t-7.5 18t7.5 18t18.5 8z" />
<glyph unicode="-" horiz-adv-x="401" d="M67 240h267v-20h-267v20z" />
<glyph unicode="." horiz-adv-x="186" d="M93 -8q-11 0 -18.5 8t-7.5 18t7.5 18t18.5 8t18.5 -8t7.5 -18t-7.5 -18t-18.5 -8z" />
<glyph unicode="/" horiz-adv-x="516" d="M23 -111l447 894h22l-447 -894h-22z" />
<glyph unicode="0" horiz-adv-x="573" d="M287 -9q-107 0 -169.5 87t-62.5 220t62.5 220t169.5 87t169 -87t62 -220t-62 -220t-169 -87zM287 11q102 0 156 83t54 204t-54 204t-156 83t-156.5 -83t-54.5 -204t54.5 -204t156.5 -83z" />
<glyph unicode="1" horiz-adv-x="253" d="M11 600h163v-600h-21v580h-142v20z" />
<glyph unicode="2" horiz-adv-x="474" d="M49 19l278 265q36 35 51 70t15 82q0 66 -44.5 107.5t-115.5 41.5q-48 0 -91 -20.5t-62 -40.5l-19 -20l-14 15q3 3 8 9t23.5 21t38.5 26t51.5 20.5t64.5 9.5q83 0 132 -46.5t49 -122.5q0 -51 -17 -90.5t-60 -79.5l-260 -247h348v-19h-376v19z" />
<glyph unicode="3" horiz-adv-x="474" d="M159 311v17l230 252h-333v20h363v-16l-237 -256h57q83 0 134 -42t51 -122q0 -76 -53.5 -124.5t-138.5 -48.5q-35 0 -67 8t-52 19t-35 22t-22 19l-6 8l14 14q2 -3 6.5 -7.5t19.5 -17t32.5 -22t47.5 -17t62 -7.5q77 0 124 43.5t47 110.5q0 69 -43.5 108t-119.5 39h-81z" />
<glyph unicode="4" horiz-adv-x="508" d="M25 174l340 426h19v-422h91v-20h-91v-158h-21v158h-338v16zM53 178h310v385l-305 -380l-5 -4v-1z" />
<glyph unicode="5" horiz-adv-x="471" d="M104 580l-7 -253q54 18 136 18q83 0 137 -46.5t54 -124.5q0 -88 -56 -135.5t-141 -47.5q-52 0 -96 19t-62 38l-18 19l14 14q2 -3 6.5 -7.5t19.5 -16.5t32.5 -21.5t45.5 -17t58 -7.5q79 0 127 42.5t48 120.5q0 69 -48 110.5t-121 41.5q-39 0 -76 -6t-55 -12l-18 -5l-8 6 l8 291h316v-20h-296z" />
<glyph unicode="6" horiz-adv-x="516" d="M272 355q89 0 142.5 -54t53.5 -132q0 -74 -55.5 -126t-140.5 -52q-100 0 -158 75t-58 223q0 161 63.5 238.5t156.5 77.5q35 0 65.5 -9t49.5 -21.5t33 -25t20 -21.5l5 -9l-14 -15q-2 3 -6 8.5t-18.5 19.5t-31.5 24.5t-44.5 19.5t-58.5 9q-84 0 -141.5 -72.5t-57.5 -222.5 q0 -41 4 -68q17 58 68 95.5t123 37.5zM272 334q-73 0 -126.5 -45t-58.5 -109q35 -169 185 -169q74 0 124 43t50 115q0 70 -49 117.5t-125 47.5z" />
<glyph unicode="7" horiz-adv-x="414" d="M26 600h375v-19l-274 -581h-25l275 580h-351v20z" />
<glyph unicode="8" horiz-adv-x="503" d="M251 -9q-84 0 -139.5 47.5t-55.5 118.5q0 55 35 96t91 58q-52 16 -83 52.5t-31 88.5q0 67 51 110t132 43t131.5 -43t50.5 -110q0 -51 -31 -87.5t-83 -53.5q57 -17 92.5 -58.5t35.5 -96.5q0 -70 -56 -117.5t-140 -47.5zM251 321q72 0 116 37t44 93q0 58 -45 96t-115 38 q-71 0 -116 -38t-45 -95t44.5 -94t116.5 -37zM425 157q0 63 -51.5 103.5t-123.5 40.5q-73 0 -122.5 -41t-49.5 -103t49.5 -104t123.5 -42t124 42t50 104z" />
<glyph unicode="9" horiz-adv-x="520" d="M238 11q91 0 147.5 70.5t56.5 214.5q0 41 -5 84q-18 -59 -70.5 -97t-124.5 -38q-85 0 -140 54t-55 129q0 77 55 131t140 54q105 0 163 -79t58 -237q0 -156 -63 -231t-162 -75q-48 0 -89.5 18t-58.5 35l-18 18l14 14q6 -7 17.5 -18t51 -29t83.5 -18zM242 266 q75 0 130 47.5t57 112.5q-41 167 -187 167q-73 0 -123.5 -47t-50.5 -118q0 -67 51 -114.5t123 -47.5z" />
<glyph unicode=":" horiz-adv-x="186" d="M67 394q0 10 7.5 18t18.5 8t18.5 -8t7.5 -18t-7.5 -18t-18.5 -8t-18.5 8t-7.5 18zM67 26q0 10 7.5 18t18.5 8t18.5 -8t7.5 -18t-7.5 -18t-18.5 -8t-18.5 8t-7.5 18z" />
<glyph unicode=";" horiz-adv-x="236" d="M126 368q-10 0 -18 8t-8 18t8 18t18 8t18 -8t8 -18t-8 -18t-18 -8zM55 -75q32 5 53.5 26.5t21.5 48.5q-15 0 -22.5 8t-7.5 18t8 18t18 8t18 -8t8 -18v-12q0 -40 -23.5 -69t-69.5 -38z" />
<glyph unicode="&#x3c;" horiz-adv-x="376" d="M47 299l259 206v-28l-241 -190l241 -190v-28l-259 206v24z" />
<glyph unicode="=" horiz-adv-x="449" d="M69 396h311v-20h-311v20zM69 205h311v-20h-311v20z" />
<glyph unicode="&#x3e;" horiz-adv-x="376" d="M329 275l-259 -206v28l241 190l-241 190v28l259 -206v-24z" />
<glyph unicode="?" horiz-adv-x="406" d="M31 560q6 5 17 12.5t50.5 20t84.5 12.5q85 0 135 -40t50 -110q0 -41 -17 -73.5t-41 -52.5t-48.5 -38t-41.5 -41t-18 -50l-1 -77h-12v81q0 25 11.5 46t29 35.5t38 32t38 34.5t29 43.5t11.5 59.5q0 60 -43 95.5t-120 35.5q-41 0 -76.5 -10.5t-50.5 -21.5l-15 -10zM169 9 q0 11 7.5 18.5t18.5 7.5t18.5 -7.5t7.5 -18.5t-7.5 -18.5t-18.5 -7.5t-18.5 7.5t-7.5 18.5z" />
<glyph unicode="@" horiz-adv-x="992" d="M736 51q-52 0 -89 35t-37 89h-2q-55 -113 -167 -113q-69 0 -116.5 51t-47.5 132q0 112 61.5 180.5t151.5 68.5q56 0 92.5 -27t50.5 -69l17 89h15l-32 -250q-3 -28 -3 -62q0 -47 31.5 -76.5t76.5 -29.5q86 0 134.5 71.5t48.5 176.5q0 164 -119.5 279.5t-297.5 115.5 q-191 0 -314.5 -127t-123.5 -306q0 -114 54 -212.5t155 -159.5t225 -61q62 0 116 14t77 28l23 15l12 -16q-9 -7 -27 -17t-77 -27t-124 -17q-98 0 -183.5 37.5t-144.5 100t-92.5 144.5t-33.5 171q0 91 33.5 173.5t92.5 144.5t145.5 98.5t186.5 36.5q186 0 311.5 -121.5 t125.5 -293.5q0 -113 -54.5 -189.5t-150.5 -76.5zM447 82q84 0 131.5 73t47.5 194q0 48 -36.5 86.5t-99.5 38.5q-82 0 -137.5 -63t-55.5 -166q0 -75 42.5 -119t107.5 -44z" />
<glyph unicode="A" d="M544 0h-22l-73 178h-325l-72 -178h-22l245 600h24zM132 198h309l-154 381z" />
<glyph unicode="B" horiz-adv-x="592" d="M95 600h230q90 0 141 -41.5t51 -119.5q0 -103 -102 -136v-2q56 -14 90 -51t34 -92q0 -77 -54 -117.5t-143 -40.5h-247v600zM116 580v-270h210q82 0 126 33t44 96q0 70 -46.5 105.5t-123.5 35.5h-210zM116 290v-270h227q79 0 127 35.5t48 102.5q0 63 -47.5 96.5 t-124.5 35.5h-230z" />
<glyph unicode="C" horiz-adv-x="577" d="M539 74q-3 -3 -8 -9t-23 -20t-39 -25t-55 -20t-70 -9q-127 0 -210.5 87t-83.5 220q0 134 83.5 220.5t210.5 86.5q58 0 106.5 -20t68.5 -40l20 -20l-12 -16q-2 3 -7 8t-22 18.5t-36.5 23.5t-51.5 18t-66 8q-119 0 -195.5 -83t-76.5 -204q0 -119 76.5 -203t195.5 -84 q34 0 65.5 8t52 20t36 23.5t22.5 19.5l7 8z" />
<glyph unicode="D" horiz-adv-x="626" d="M575 300q0 -140 -89 -220t-225 -80h-166v600h166q136 0 225 -80t89 -220zM116 580v-560h146q124 0 208 76.5t84 203.5t-84 203.5t-208 76.5h-146z" />
<glyph unicode="E" horiz-adv-x="537" d="M446 293h-330v-273h376v-20h-397v600h397v-20h-376v-267h330v-20z" />
<glyph unicode="F" horiz-adv-x="520" d="M445 293h-329v-293h-21v600h397v-20h-376v-267h329v-20z" />
<glyph unicode="G" horiz-adv-x="644" d="M345 605q63 0 115 -20.5t73 -40.5l21 -20l-12 -16q-3 3 -8 8.5t-23.5 18.5t-39.5 23t-55 18.5t-71 8.5q-126 0 -199.5 -84t-73.5 -203t73.5 -203t199.5 -84q106 0 170.5 69t65.5 190v23h-257v20h278v-29q0 -136 -69.5 -214.5t-187.5 -78.5q-131 0 -212.5 88t-81.5 219 t81.5 219t212.5 88z" />
<glyph unicode="H" horiz-adv-x="634" d="M539 0h-21v293h-402v-293h-21v600h21v-287h402v287h21v-600z" />
<glyph unicode="I" horiz-adv-x="211" d="M116 0h-21v600h21v-600z" />
<glyph unicode="J" horiz-adv-x="408" d="M320 600v-419q0 -194 -173 -194q-35 0 -66 9.5t-45 19.5l-13 9l12 20q4 -4 13 -10.5t37.5 -17t60.5 -10.5q153 0 153 176v417h21z" />
<glyph unicode="K" horiz-adv-x="540" d="M116 219l379 381h20v-7l-237 -238l237 -348v-7h-19l-233 339l-147 -148v-191h-21v600h21v-381z" />
<glyph unicode="L" horiz-adv-x="478" d="M95 0v600h21v-580h342v-20h-363z" />
<glyph unicode="M" horiz-adv-x="722" d="M605 572l-234 -313h-20l-235 314v-573h-21v600h28l238 -318l238 318h28v-600h-22v572z" />
<glyph unicode="N" horiz-adv-x="664" d="M569 0h-28l-425 575v-575h-21v600h29l424 -574v574h21v-600z" />
<glyph unicode="O" horiz-adv-x="680" d="M340 -9q-128 0 -208.5 88t-80.5 219t80.5 219t208.5 88q129 0 209 -88t80 -219t-80 -219t-209 -88zM340 11q124 0 196 84t72 203t-72 203t-196 84q-123 0 -195.5 -84t-72.5 -203t72.5 -203t195.5 -84z" />
<glyph unicode="P" horiz-adv-x="564" d="M306 600q103 0 162.5 -54.5t59.5 -139.5q0 -87 -59.5 -143t-162.5 -56h-190v-207h-21v600h211zM507 406q0 77 -55 125.5t-145 48.5h-191v-353h191q90 0 145 50t55 129z" />
<glyph unicode="Q" horiz-adv-x="680" d="M629 298q0 -107 -55 -187.5t-148 -107.5l75 -125h-24l-72 120q-29 -7 -65 -7q-128 0 -208.5 88t-80.5 219t80.5 219t208.5 88q129 0 209 -88t80 -219zM340 11q124 0 196 84t72 203t-72 203t-196 84q-123 0 -195.5 -84t-72.5 -203t72.5 -203t195.5 -84z" />
<glyph unicode="R" horiz-adv-x="585" d="M306 600q105 0 163.5 -51.5t58.5 -142.5q0 -75 -44 -124t-117 -61v-2l167 -212v-7h-20l-172 217h-226v-217h-21v600h211zM507 406q0 83 -54 128.5t-146 45.5h-191v-343h205q81 0 133.5 45t52.5 124z" />
<glyph unicode="S" horiz-adv-x="502" d="M63 73q7 -7 21 -17t61 -27t99 -17q95 0 142.5 36t47.5 97q0 34 -14 59.5t-43 43.5t-55 28t-69 23q-42 13 -60.5 19t-51.5 20.5t-48 29t-27.5 38.5t-12.5 53q0 69 55.5 107.5t144.5 38.5q60 0 107 -13.5t64 -26.5l18 -13l-12 -18q-6 6 -19 14.5t-58.5 22.5t-99.5 14 q-76 0 -127.5 -32t-51.5 -93q0 -25 11 -45t24.5 -32.5t41.5 -25.5t47 -19.5t55 -17.5q38 -11 60 -19t53 -23t47.5 -31.5t29 -43t12.5 -58.5q0 -68 -52.5 -110.5t-158.5 -42.5q-56 0 -104.5 16t-69.5 32l-20 16z" />
<glyph unicode="T" horiz-adv-x="497" d="M24 600h449v-20h-214v-580h-21v580h-214v20z" />
<glyph unicode="U" horiz-adv-x="624" d="M312 -8q-108 0 -167 69.5t-59 189.5v349h21v-349q0 -111 52.5 -175t152.5 -64t152.5 64t52.5 175v349h21v-349q0 -120 -59 -189.5t-167 -69.5z" />
<glyph unicode="V" d="M30 600h22l235 -578l235 578h22l-245 -600h-24z" />
<glyph unicode="W" horiz-adv-x="770" d="M385 563l-167 -563h-22l-165 600h22l154 -562l167 562h22l166 -562l155 562h22l-165 -600h-22z" />
<glyph unicode="X" horiz-adv-x="496" d="M260 308l216 -308h-25l-181 260l-22 35l-22 -35l-181 -260h-24l214 308l-204 292h25l175 -251l17 -28l17 28l175 251h25z" />
<glyph unicode="Y" horiz-adv-x="543" d="M485 600h25l-228 -368v-232h-21v232l-228 368h25l197 -322l16 -29h2l16 29z" />
<glyph unicode="Z" horiz-adv-x="508" d="M33 17l417 563h-414v20h444v-17l-418 -563h405v-20h-434v17z" />
<glyph unicode="[" horiz-adv-x="261" d="M72 700h174v-20h-154v-790h154v-20h-174v830z" />
<glyph unicode="\" horiz-adv-x="319" d="M39 799h21l220 -927h-22z" />
<glyph unicode="]" horiz-adv-x="261" d="M15 -110h154v790h-154v20h174v-830h-174v20z" />
<glyph unicode="^" horiz-adv-x="383" d="M192 642l-108 -145h-21l118 171h22l117 -171h-20z" />
<glyph unicode="_" horiz-adv-x="525" d="M41 -40h442v-20h-442v20z" />
<glyph unicode="`" horiz-adv-x="242" d="M92 635l31 4l58 -142h-15z" />
<glyph unicode="a" horiz-adv-x="466" d="M393 0h-15l-3 89h-2q-21 -40 -69 -69.5t-108 -29.5q-77 0 -117 36t-40 91t44 92t138 37q90 0 152 -34v35q0 164 -159 164q-31 0 -64 -9t-50 -18l-18 -9l-9 18q64 37 145 37q88 0 131.5 -50t43.5 -134v-246zM373 191q-63 36 -150 36q-85 0 -124.5 -31t-39.5 -79 q0 -46 35.5 -77t104.5 -31t119.5 43t54.5 80v59z" />
<glyph unicode="b" horiz-adv-x="526" d="M79 605h20v-297h1q2 5 5 13t17.5 29t32.5 37.5t51.5 29.5t72.5 13q84 0 141.5 -61.5t57.5 -158.5t-57.5 -158.5t-140.5 -61.5q-39 0 -72.5 12.5t-52.5 30t-32 35.5t-18 30l-5 13h-1l-5 -111h-15v605zM98 210q0 -92 53.5 -146.5t128.5 -54.5t126 56.5t51 144.5t-51 144.5 t-126 56.5t-128.5 -54.5t-53.5 -146.5z" />
<glyph unicode="c" horiz-adv-x="425" d="M252 -10q-87 0 -145.5 59t-58.5 158q0 100 58.5 161.5t145.5 61.5q36 0 67.5 -9.5t45.5 -18.5l14 -10l-8 -17q-47 36 -120 36q-74 0 -128 -56.5t-54 -147.5q0 -90 54 -144t128 -54q32 0 62 9t44 18l14 9l8 -17q-47 -38 -127 -38z" />
<glyph unicode="d" horiz-adv-x="526" d="M427 307v298h20v-605h-15l-5 112h-1q-2 -5 -5.5 -13t-17.5 -29t-32.5 -37.5t-51.5 -29.5t-72 -13q-84 0 -141.5 61.5t-57.5 158.5t57.5 158.5t141.5 61.5q39 0 72 -12.5t52 -31t32 -36.5t18 -30l5 -13h1zM428 210q0 92 -53 146.5t-129 54.5q-75 0 -126 -56.5t-51 -144.5 t51 -144.5t126 -56.5q76 0 129 54.5t53 146.5z" />
<glyph unicode="e" horiz-adv-x="460" d="M417 222h-347v-15q0 -90 51.5 -144t126.5 -54q39 0 72.5 10.5t47.5 21.5l15 11l10 -17q-6 -5 -17.5 -12.5t-49.5 -20t-78 -12.5q-87 0 -143 59t-56 158q0 105 53.5 164t135.5 59q84 0 131.5 -54.5t47.5 -147.5v-6zM238 411q-64 0 -110.5 -44.5t-55.5 -124.5h324 q-2 70 -43.5 119.5t-114.5 49.5z" />
<glyph unicode="f" horiz-adv-x="267" d="M231 610q18 0 34 -2.5t23 -5.5l7 -2l-7 -18q-22 9 -60 9q-47 0 -76.5 -32.5t-29.5 -93.5v-45h132v-19h-132v-401h-20v401h-84v19h84v45q0 68 36 106.5t93 38.5z" />
<glyph unicode="g" horiz-adv-x="451" d="M314 402v-2q3 -1 7.5 -3t15.5 -10t20 -19t16 -31t7 -45q0 -58 -41 -97.5t-109 -39.5q-58 0 -97 28q-67 -23 -67 -60q0 -62 170 -62q92 0 143.5 -32.5t51.5 -85.5q0 -54 -52 -88t-143 -34q-93 0 -144 29.5t-51 82.5q0 80 112 114q-106 14 -106 77q0 41 72 72 q-39 36 -39 95t40.5 98t109.5 39q27 0 53 -8h144v-18h-113zM230 409q-60 0 -95 -34t-35 -84t35 -83.5t95 -33.5t95 33.5t35 83.5t-35 84t-95 34zM236 43q-39 0 -55 2q-120 -36 -120 -112q0 -93 175 -93q83 0 129 28.5t46 75.5q0 44 -46 71.5t-129 27.5z" />
<glyph unicode="h" horiz-adv-x="505" d="M260 430q82 0 127.5 -55.5t45.5 -143.5v-231h-20v230q0 81 -40 131t-115 50q-52 0 -89.5 -26.5t-53 -59t-16.5 -63.5v-262h-20v605h20v-275h1q0 2 4.5 11.5t17 25t29.5 29.5t46 24t63 10z" />
<glyph unicode="i" horiz-adv-x="182" d="M91 560q-10 0 -16.5 6t-6.5 16t6.5 16.5t16.5 6.5t16.5 -6.5t6.5 -16.5t-6.5 -16t-16.5 -6zM81 420h20v-420h-20v420z" />
<glyph unicode="j" horiz-adv-x="182" d="M91 560q-10 0 -16.5 6t-6.5 16t6.5 16.5t16.5 6.5t16.5 -6.5t6.5 -16.5t-6.5 -16t-16.5 -6zM0 -138h12q69 0 69 83v475h20v-475q0 -53 -21.5 -77t-68.5 -24h-11v18z" />
<glyph unicode="k" horiz-adv-x="417" d="M393 420l-206 -175l214 -245h-28l-202 231l-72 -61v-170h-20v605h20v-408h1l263 223h30z" />
<glyph unicode="l" horiz-adv-x="186" d="M83 605h20v-605h-20v605z" />
<glyph unicode="m" horiz-adv-x="838" d="M94 420l5 -88h1l3 6q3 6 6.5 12t11 15.5t16 18t21.5 17t27 15t33.5 10.5t41.5 4q65 0 108 -32t58 -86h4l2 4q1 5 2.5 10.5t5.5 13.5t8.5 16t12 17t16 17t20.5 15.5t26 13t32.5 8.5t38.5 3q82 0 127 -55.5t45 -143.5v-231h-20v230q0 81 -39.5 131t-114.5 50 q-52 0 -89.5 -30t-53 -66.5t-16.5 -71.5v-243h-20v255q0 69 -40 112.5t-115 43.5q-52 0 -89.5 -26.5t-53 -59t-16.5 -63.5v-262h-20v420h15z" />
<glyph unicode="n" horiz-adv-x="505" d="M79 420h15l5 -88h1l3 6q3 6 6.5 12t11 15.5t15.5 18t21 17t27.5 15t34 10.5t41.5 4q82 0 127.5 -55.5t45.5 -143.5v-231h-20v230q0 81 -40 131t-115 50q-52 0 -89.5 -26.5t-53 -59t-16.5 -63.5v-262h-20v420z" />
<glyph unicode="o" horiz-adv-x="503" d="M455 208q0 -99 -58.5 -158.5t-144.5 -59.5q-87 0 -145.5 59.5t-58.5 158.5t58.5 160.5t145.5 61.5q86 0 144.5 -61.5t58.5 -160.5zM252 9q74 0 128 54t54 144q0 91 -54 147.5t-128 56.5q-75 0 -129 -56.5t-54 -147.5q0 -90 54 -144t129 -54z" />
<glyph unicode="p" horiz-adv-x="526" d="M99 113v-269h-20v576h15l5 -112h1q2 5 5 13t17.5 29t33 37.5t51.5 29.5t73 13q83 0 140.5 -61.5t57.5 -158.5t-57.5 -158.5t-141.5 -61.5q-39 0 -72 12.5t-52 31t-32 36.5t-18 30l-5 13h-1zM98 210q0 -92 53.5 -146.5t128.5 -54.5t126 56.5t51 144.5t-51 144.5t-126 56.5 t-128.5 -54.5t-53.5 -146.5z" />
<glyph unicode="q" horiz-adv-x="526" d="M447 -156h-20v268h-1q-2 -5 -5 -13t-17.5 -29t-32.5 -37.5t-51.5 -29.5t-72.5 -13q-84 0 -141.5 61.5t-57.5 158.5t57.5 158.5t141.5 61.5q39 0 72 -12.5t52 -30t32 -35.5t18 -30l5 -13h1l5 111h15v-576zM428 210q0 92 -53 146.5t-129 54.5q-75 0 -126 -56.5t-51 -144.5 t51 -144.5t126 -56.5q76 0 129 54.5t53 146.5z" />
<glyph unicode="r" horiz-adv-x="256" d="M245 401h-14q-61 0 -95.5 -42.5t-36.5 -103.5v-255h-20v420h15l5 -88h1l2 4q1 4 5.5 12t11 17.5t17.5 19t23.5 17.5t31.5 13t40 5h14v-19z" />
<glyph unicode="s" horiz-adv-x="392" d="M56 46q54 -36 136 -36q70 0 104.5 27t34.5 69q0 37 -29 59t-70.5 32t-83.5 20.5t-71 35.5t-29 67q0 52 38 81t110 29q39 0 73 -8t49 -16l14 -9l-8 -18q-46 32 -129 32q-128 0 -128 -91q0 -36 29 -56t70.5 -29t83.5 -19.5t71 -37t29 -72.5q0 -52 -37.5 -83.5t-116.5 -31.5 q-44 0 -81.5 9.5t-52.5 19.5l-15 9z" />
<glyph unicode="t" horiz-adv-x="277" d="M100 420v128h20v-128h132v-19h-132v-304q0 -88 78 -88q17 0 32.5 4.5t22.5 8.5l7 4l7 -17q-23 -19 -71 -19q-46 0 -71 28t-25 75v308h-84v19h84z" />
<glyph unicode="u" horiz-adv-x="499" d="M400 420h20v-420h-15l-6 89h-1q0 -1 -4.5 -10.5t-16.5 -24.5t-28.5 -29.5t-46 -24.5t-63.5 -10q-81 0 -124 55t-43 144v231h20v-230q0 -82 36.5 -131.5t111.5 -49.5q41 0 73.5 16t50.5 40.5t27 49.5t9 47v258z" />
<glyph unicode="v" horiz-adv-x="451" d="M232 0h-13l-195 420h24l170 -375q7 -12 7 -22h2q0 6 7 22l170 375h23z" />
<glyph unicode="w" horiz-adv-x="639" d="M30 420h23l127 -375q6 -21 6 -22h2q0 1 6 22l114 375h24l113 -375q6 -21 6 -22h2q0 6 7 22l126 375h23l-145 -420h-25l-115 383q-3 9 -3 14h-2q0 -2 -4 -14l-116 -383h-24z" />
<glyph unicode="x" horiz-adv-x="403" d="M188 223l-149 197h26l135 -185h3l136 185h24l-148 -196l167 -224h-27l-152 211h-3l-154 -211h-25z" />
<glyph unicode="y" horiz-adv-x="431" d="M107 -156h-24l127 228l-192 348h25l170 -310q7 -16 7 -22h2q0 10 7 22l170 310h21z" />
<glyph unicode="z" horiz-adv-x="410" d="M40 0v18l306 383h-306v19h330v-18l-304 -383h304v-19h-330z" />
<glyph unicode="{" horiz-adv-x="205" d="M39 303q25 0 43 24t18 63v246q0 71 59 79l3 -19q-23 -3 -32 -18t-9 -49v-236q0 -85 -47 -101v-5q47 -16 47 -100v-243q0 -34 9 -49t32 -18l-3 -19q-59 8 -59 79v253q0 39 -18 63t-43 24h-8v26h8z" />
<glyph unicode="|" horiz-adv-x="164" d="M92 -128h-20v815h20v-815z" />
<glyph unicode="}" horiz-adv-x="205" d="M174 303v-26h-8q-25 0 -43 -24t-18 -63v-253q0 -71 -59 -79l-3 19q23 3 32 18t9 49v243q0 84 47 100v5q-47 16 -47 101v236q0 34 -9 49t-32 18l3 19q59 -8 59 -79v-246q0 -39 18 -63t43 -24h8z" />
<glyph unicode="~" horiz-adv-x="435" d="M288 290q22 0 39.5 5t24.5 9l6 5l9 -13q-21 -26 -79 -26q-23 0 -68.5 14t-71.5 14q-22 0 -39.5 -5t-24.5 -9l-6 -5l-9 13q21 26 79 26q23 0 68.5 -14t71.5 -14z" />
<glyph unicode="&#xa1;" horiz-adv-x="162" d="M55 406q0 10 7.5 18t18.5 8t18.5 -8t7.5 -18t-7.5 -18t-18.5 -8t-18.5 8t-7.5 18zM92 -176h-21l4 468h12z" />
<glyph unicode="&#xa2;" horiz-adv-x="435" d="M195 85q-65 18 -105 73t-40 136q0 99 58 160.5t144 62.5l11 83h20l-11 -84q31 -2 58 -11.5t39 -17.5l12 -8l-8 -17q-40 30 -104 35l-52 -398q16 -3 36 -3q32 0 62 9t44 18l14 9l8 -17q-47 -38 -127 -38q-21 0 -40 3l-10 -80h-20zM71 294q0 -72 35.5 -122t91.5 -68l51 394 q-72 -2 -125 -58t-53 -146z" />
<glyph unicode="&#xa3;" horiz-adv-x="496" d="M429 0h-361v20q7 5 17.5 15t28 45.5t17.5 75.5q0 13 -2.5 30t-5 29t-8 34.5t-8.5 33.5h-67v20h63q-12 55 -12 108q0 81 49 137.5t145 56.5q48 0 88 -17.5t55 -34.5l16 -17l-15 -15q-6 7 -16.5 17.5t-48 28.5t-80.5 18q-85 0 -128.5 -50t-43.5 -124q0 -51 12 -108h258v-20 h-253q23 -100 23 -126q0 -85 -55 -137h332v-20z" />
<glyph unicode="&#xa5;" horiz-adv-x="544" d="M486 600h25l-219 -353h170v-20h-179v-88h179v-20h-179v-119h-21v119h-183v20h183v88h-183v20h173l-218 353h25l197 -322l16 -29h2l16 29z" />
<glyph unicode="&#xa6;" horiz-adv-x="165" d="M72 330v343h21v-343h-21zM72 -153v343h21v-343h-21z" />
<glyph unicode="&#xa7;" horiz-adv-x="503" d="M259 613q57 0 104 -10.5t65 -20.5l19 -11l-13 -18q-6 4 -18.5 11t-58 18t-98.5 11q-89 0 -134 -26.5t-45 -71.5q0 -40 36 -66t117 -49q149 -41 149 -100q0 -37 -34 -59q59 -24 82 -50t23 -65q0 -50 -48.5 -84.5t-151.5 -34.5q-61 0 -112 13t-71 26l-21 12l13 18 q7 -5 21 -13.5t63.5 -22t106.5 -13.5q90 0 134 28t44 71q0 44 -34 68.5t-139 56.5q-77 23 -104.5 43.5t-27.5 47.5q0 40 40 58q-109 42 -109 115q0 53 51.5 85.5t150.5 32.5zM328 228q32 19 32 52q0 44 -135 81q-16 4 -36 11q-41 -15 -41 -50q0 -21 24.5 -36t93.5 -36 q51 -18 62 -22z" />
<glyph unicode="&#xa8;" horiz-adv-x="384" d="M69 696q0 11 8.5 19.5t19.5 8.5t19.5 -8.5t8.5 -19.5t-8.5 -19.5t-19.5 -8.5t-19.5 8.5t-8.5 19.5zM198 696q0 11 8.5 19.5t19.5 8.5t19.5 -8.5t8.5 -19.5t-8.5 -19.5t-19.5 -8.5t-19.5 8.5t-8.5 19.5z" />
<glyph unicode="&#xa9;" horiz-adv-x="702" d="M351 600q135 0 217 -87t82 -214t-82 -214t-217 -87q-134 0 -216.5 87t-82.5 214t82.5 214t216.5 87zM351 580q-125 0 -201 -81t-76 -200t76 -200t201 -81t201.5 81t76.5 200t-76.5 200t-201.5 81zM451 411q-31 33 -95 33t-102 -41.5t-38 -102.5t38 -102.5t102 -41.5 q27 0 51 8t35 16l10 8l11 -15q-4 -4 -11.5 -10t-35.5 -16.5t-60 -10.5q-74 0 -117.5 47t-43.5 117q0 69 44 116.5t117 47.5q33 0 59.5 -9.5t36.5 -18.5l11 -10z" />
<glyph unicode="&#xaa;" horiz-adv-x="406" d="M50 370q0 49 37 78t99 29q93 0 128 -54v37q0 134 -122 134q-29 0 -56 -6t-40 -12l-12 -7l-8 19q49 26 116 26q144 0 144 -154v-186h-14l-4 57h-1q-29 -65 -132 -65q-61 0 -98 28.5t-37 75.5zM71 370q0 -39 31.5 -62t82.5 -23q60 0 93.5 25.5t35.5 59.5v3q0 37 -35 61 t-93 24q-51 0 -83 -24t-32 -64z" />
<glyph unicode="&#xab;" horiz-adv-x="370" d="M51 217l101 156h21v-7l-101 -155v-3l101 -157v-7h-21l-101 156v17zM188 217l101 156h21v-7l-101 -155v-3l101 -157v-7h-21l-101 156v17z" />
<glyph unicode="&#xac;" horiz-adv-x="562" d="M58 346h431v-346h-20v326h-411v20z" />
<glyph unicode="&#xad;" horiz-adv-x="401" d="M67 240h267v-20h-267v20z" />
<glyph unicode="&#xae;" horiz-adv-x="569" d="M513 380q0 -97 -63.5 -163.5t-165.5 -66.5t-165 67t-63 163q0 97 63 164t165 67t165.5 -67t63.5 -164zM491 380q0 89 -57.5 150t-149.5 61t-149 -61t-57 -150q0 -88 57 -149t149 -61t149.5 60.5t57.5 149.5zM288 485q37 0 57 -18t20 -47q0 -46 -41 -63v-2l50 -65v-7h-19 l-52 67h-80v-67h-21v202h86zM223 465v-95h63q28 0 43 14t15 36q0 20 -14 32.5t-42 12.5h-65z" />
<glyph unicode="&#xaf;" horiz-adv-x="487" d="M127 687h239v-19h-239v19z" />
<glyph unicode="&#xb0;" horiz-adv-x="318" d="M159 671q50 0 80.5 -30t30.5 -76t-30.5 -75.5t-80.5 -29.5t-80.5 29.5t-30.5 75.5t30.5 76t80.5 30zM159 651q-41 0 -66 -24.5t-25 -61.5t25 -61t66 -24t66 24t25 61t-25 61.5t-66 24.5z" />
<glyph unicode="&#xb1;" horiz-adv-x="566" d="M276 192v192h-192v20h192v194h20v-194h187v-20h-187v-192h-20zM483 93h-399v20h399v-20z" />
<glyph unicode="&#xb2;" horiz-adv-x="367" d="M59 356l164 139q46 42 46 84q0 35 -22.5 56.5t-70.5 21.5q-26 0 -50 -8.5t-36 -17.5l-11 -9l-11 15q5 4 13.5 11t37 18t57.5 11q57 0 84.5 -27t27.5 -71q0 -55 -53 -100l-139 -117h211v-20h-248v14z" />
<glyph unicode="&#xb3;" horiz-adv-x="347" d="M63 668h217v-24l-95 -112q52 0 81 -25.5t29 -70.5q0 -44 -31.5 -73t-89.5 -29q-32 0 -62 11.5t-44 22.5l-14 12l13 14q42 -40 107 -40q48 0 74.5 23t26.5 59t-23.5 56t-65.5 20h-28v18l101 118h-196v20z" />
<glyph unicode="&#xb4;" horiz-adv-x="235" d="M95 497h-15l58 142l31 -4z" />
<glyph unicode="&#xb5;" horiz-adv-x="484" d="M396 420h20v-420h-15l-6 89h-1q0 -1 -4.5 -10.5t-16.5 -24.5t-28.5 -29.5t-46 -24.5t-63.5 -10q-108 0 -149 97l2 -279h-20v612h20v-230q0 -82 36.5 -131.5t111.5 -49.5q41 0 73.5 16t50.5 40.5t27 49.5t9 47v258z" />
<glyph unicode="&#xb6;" horiz-adv-x="471" d="M374 208h-119q-104 0 -163 53t-59 146q0 91 58.5 142.5t163.5 51.5h140v-683h-21v290z" />
<glyph unicode="&#xb7;" horiz-adv-x="188" d="M67 361q0 11 8 19t19 8t19 -8t8 -19t-8 -19t-19 -8t-19 8t-8 19z" />
<glyph unicode="&#xb8;" horiz-adv-x="206" d="M72 -48l23 51h21l-18 -41q74 0 74 -62q0 -29 -21 -47t-57 -18q-18 0 -34 5.5t-23 11.5l-7 6l10 15q21 -19 55 -19q26 0 41.5 12.5t15.5 33.5q0 20 -15.5 31.5t-39.5 11.5l-18 -2z" />
<glyph unicode="&#xb9;" horiz-adv-x="201" d="M22 668h106v-326h-21v306h-85v20z" />
<glyph unicode="&#xba;" horiz-adv-x="427" d="M214 613q72 0 117.5 -47t45.5 -125q0 -77 -45.5 -123.5t-117.5 -46.5t-118 47t-46 123q0 78 46 125t118 47zM214 593q-63 0 -102.5 -41t-39.5 -111q0 -68 39.5 -109t102.5 -41t102.5 41t39.5 109q0 70 -39.5 111t-102.5 41z" />
<glyph unicode="&#xbb;" horiz-adv-x="370" d="M182 200l-101 -156h-21v7l101 157v3l-101 155v7h21l101 -156v-17zM319 200l-101 -156h-21v7l101 157v3l-101 155v7h21l101 -156v-17z" />
<glyph unicode="&#xbc;" horiz-adv-x="604" d="M35 600h106v-326h-21v306h-85v20zM46 0l476 600h26l-476 -600h-26zM296 119l187 207h15v-205h63v-20h-63v-101h-20v101h-182v18zM366 168l-43 -47v-3l80 3h75v168h-2z" />
<glyph unicode="&#xbd;" horiz-adv-x="675" d="M37 600h106v-326h-21v306h-85v20zM43 0l476 600h26l-476 -600h-26zM390 0h249v20h-212l139 117q54 44 54 100q0 44 -27.5 71t-85.5 27q-29 0 -56 -10t-39 -20l-13 -10l11 -15q39 35 97 35q48 0 70.5 -21.5t22.5 -56.5q0 -42 -46 -84l-164 -139v-14z" />
<glyph unicode="&#xbe;" horiz-adv-x="721" d="M55 600h217v-24l-95 -112q52 0 81 -25.5t29 -70.5q0 -44 -31.5 -73t-89.5 -29q-32 0 -62 11.5t-44 22.5l-14 12l13 14q42 -40 107 -40q48 0 74.5 23t26.5 59t-23.5 56t-65.5 20h-28v18l101 118h-196v20zM139 0l476 600h26l-476 -600h-26zM420 119l187 207h15v-205h63v-20 h-63v-101h-20v101h-182v18zM490 168l-43 -47v-3l80 3h75v168h-2z" />
<glyph unicode="&#xbf;" horiz-adv-x="399" d="M233 406q0 -10 -7.5 -18t-18.5 -8t-18.5 8t-7.5 18t7.5 18t18.5 8t18.5 -8t7.5 -18zM371 -145q-6 -5 -17 -12.5t-50.5 -20t-84.5 -12.5q-85 0 -135 40t-50 110q0 41 17 73.5t41 52.5t48.5 38t41.5 41t18 50l1 77h12v-81q0 -25 -11.5 -46t-29 -35.5t-38 -32t-38 -34.5 t-29 -43.5t-11.5 -59.5q0 -60 43 -95.5t120 -35.5q41 0 76.5 10.5t50.5 20.5l15 11z" />
<glyph unicode="&#xc0;" d="M204 773l31 4l58 -142h-15zM544 0h-22l-73 178h-325l-72 -178h-22l245 600h24zM132 198h309l-154 381z" />
<glyph unicode="&#xc1;" d="M294 635h-15l58 142l31 -4zM544 0h-22l-73 178h-325l-72 -178h-22l245 600h24zM132 198h309l-154 381z" />
<glyph unicode="&#xc2;" d="M287 759l-63 -91h-22l70 109h29l72 -109h-22zM544 0h-22l-73 178h-325l-72 -178h-22l245 600h24zM132 198h309l-154 381z" />
<glyph unicode="&#xc3;" d="M350 668q-25 0 -66 27.5t-59 27.5q-15 0 -24.5 -7t-13 -14.5t-7.5 -20.5l-3 -11l-15 2l3 15q11 55 59 55q25 0 65.5 -27.5t60.5 -27.5q21 0 30 11t15 31l3 11l15 -2l-3 -15q-11 -55 -60 -55zM544 0h-22l-73 178h-325l-72 -178h-22l245 600h24zM132 198h309l-154 381z" />
<glyph unicode="&#xc4;" d="M195 696q0 11 8.5 19.5t19.5 8.5t19.5 -8.5t8.5 -19.5t-8.5 -19.5t-19.5 -8.5t-19.5 8.5t-8.5 19.5zM324 696q0 11 8.5 19.5t19.5 8.5t19.5 -8.5t8.5 -19.5t-8.5 -19.5t-19.5 -8.5t-19.5 8.5t-8.5 19.5zM544 0h-22l-73 178h-325l-72 -178h-22l245 600h24zM132 198h309 l-154 381z" />
<glyph unicode="&#xc5;" d="M205 687q0 32 23.5 52t58.5 20t58.5 -20t23.5 -52t-23.5 -52t-58.5 -20t-58.5 20t-23.5 52zM348 687q0 25 -16.5 39t-44.5 14t-44.5 -14t-16.5 -39t16.5 -39t44.5 -14t44.5 14t16.5 39zM544 0h-22l-73 178h-325l-72 -178h-22l245 600h24zM132 198h309l-154 381z" />
<glyph unicode="&#xc6;" horiz-adv-x="867" d="M425 600h397v-20h-376v-267h330v-20h-330v-273h376v-20h-397v178h-274l-125 -178h-23zM165 198h260v360h-5z" />
<glyph unicode="&#xc7;" horiz-adv-x="577" d="M294 -51l17 39q-114 11 -187.5 98.5t-73.5 211.5q0 135 83.5 225t210.5 90q58 0 106.5 -20t68.5 -40l20 -20l-12 -16q-2 3 -7 8t-22 18.5t-36.5 23.5t-51.5 18t-66 8q-119 0 -195.5 -86.5t-76.5 -208.5q0 -120 76.5 -206t195.5 -86q54 0 100 20t64 40l19 19l12 -16 q-3 -3 -8 -9t-23 -20t-39 -25t-55 -20t-70 -9q-6 0 -12 1l-12 -28q74 0 74 -62q0 -29 -21 -47t-57 -18q-18 0 -34 6t-23 12l-7 5l10 15q21 -19 55 -19q26 0 41.5 12.5t15.5 33.5q0 20 -15.5 31.5t-39.5 11.5l-18 -2z" />
<glyph unicode="&#xc8;" horiz-adv-x="537" d="M208 773l31 4l58 -142h-15zM446 293h-330v-273h376v-20h-397v600h397v-20h-376v-267h330v-20z" />
<glyph unicode="&#xc9;" horiz-adv-x="537" d="M298 635h-15l58 142l31 -4zM446 293h-330v-273h376v-20h-397v600h397v-20h-376v-267h330v-20z" />
<glyph unicode="&#xca;" horiz-adv-x="537" d="M291 759l-63 -91h-22l70 109h29l72 -109h-22zM446 293h-330v-273h376v-20h-397v600h397v-20h-376v-267h330v-20z" />
<glyph unicode="&#xcb;" horiz-adv-x="537" d="M199 696q0 11 8.5 19.5t19.5 8.5t19.5 -8.5t8.5 -19.5t-8.5 -19.5t-19.5 -8.5t-19.5 8.5t-8.5 19.5zM328 696q0 11 8.5 19.5t19.5 8.5t19.5 -8.5t8.5 -19.5t-8.5 -19.5t-19.5 -8.5t-19.5 8.5t-8.5 19.5zM446 293h-330v-273h376v-20h-397v600h397v-20h-376v-267h330v-20z " />
<glyph unicode="&#xcc;" horiz-adv-x="211" d="M23 773l31 4l58 -142h-15zM116 0h-21v600h21v-600z" />
<glyph unicode="&#xcd;" horiz-adv-x="211" d="M113 635h-15l58 142l31 -4zM116 0h-21v600h21v-600z" />
<glyph unicode="&#xce;" horiz-adv-x="211" d="M106 759l-63 -91h-22l70 109h29l72 -109h-22zM116 0h-21v600h21v-600z" />
<glyph unicode="&#xcf;" horiz-adv-x="211" d="M14 696q0 11 8.5 19.5t19.5 8.5t19.5 -8.5t8.5 -19.5t-8.5 -19.5t-19.5 -8.5t-19.5 8.5t-8.5 19.5zM143 696q0 11 8.5 19.5t19.5 8.5t19.5 -8.5t8.5 -19.5t-8.5 -19.5t-19.5 -8.5t-19.5 8.5t-8.5 19.5zM116 0h-21v600h21v-600z" />
<glyph unicode="&#xd0;" horiz-adv-x="626" d="M32 313h63v287h166q136 0 225 -80t89 -220t-89 -220t-225 -80h-166v293h-63v20zM116 580v-267h206v-20h-206v-273h146q124 0 208 76.5t84 203.5t-84 203.5t-208 76.5h-146z" />
<glyph unicode="&#xd1;" horiz-adv-x="664" d="M400 668q-25 0 -66 27.5t-59 27.5q-15 0 -24.5 -7t-13 -14.5t-7.5 -20.5l-3 -11l-15 2l3 15q11 55 59 55q25 0 65.5 -27.5t60.5 -27.5q21 0 30 11t15 31l3 11l15 -2l-3 -15q-11 -55 -60 -55zM569 0h-28l-425 575v-575h-21v600h29l424 -574v574h21v-600z" />
<glyph unicode="&#xd2;" horiz-adv-x="680" d="M256 773l31 4l58 -142h-15zM340 -9q-128 0 -208.5 88t-80.5 219t80.5 219t208.5 88q129 0 209 -88t80 -219t-80 -219t-209 -88zM340 11q124 0 196 84t72 203t-72 203t-196 84q-123 0 -195.5 -84t-72.5 -203t72.5 -203t195.5 -84z" />
<glyph unicode="&#xd3;" horiz-adv-x="680" d="M346 635h-15l58 142l31 -4zM340 -9q-128 0 -208.5 88t-80.5 219t80.5 219t208.5 88q129 0 209 -88t80 -219t-80 -219t-209 -88zM340 11q124 0 196 84t72 203t-72 203t-196 84q-123 0 -195.5 -84t-72.5 -203t72.5 -203t195.5 -84z" />
<glyph unicode="&#xd4;" horiz-adv-x="680" d="M339 759l-63 -91h-22l70 109h29l72 -109h-22zM340 -9q-128 0 -208.5 88t-80.5 219t80.5 219t208.5 88q129 0 209 -88t80 -219t-80 -219t-209 -88zM340 11q124 0 196 84t72 203t-72 203t-196 84q-123 0 -195.5 -84t-72.5 -203t72.5 -203t195.5 -84z" />
<glyph unicode="&#xd5;" horiz-adv-x="680" d="M402 668q-25 0 -66 27.5t-59 27.5q-15 0 -24.5 -7t-13 -14.5t-7.5 -20.5l-3 -11l-15 2l3 15q11 55 59 55q25 0 65.5 -27.5t60.5 -27.5q21 0 30 11t15 31l3 11l15 -2l-3 -15q-11 -55 -60 -55zM340 -9q-128 0 -208.5 88t-80.5 219t80.5 219t208.5 88q129 0 209 -88t80 -219 t-80 -219t-209 -88zM340 11q124 0 196 84t72 203t-72 203t-196 84q-123 0 -195.5 -84t-72.5 -203t72.5 -203t195.5 -84z" />
<glyph unicode="&#xd6;" horiz-adv-x="680" d="M247 696q0 11 8.5 19.5t19.5 8.5t19.5 -8.5t8.5 -19.5t-8.5 -19.5t-19.5 -8.5t-19.5 8.5t-8.5 19.5zM376 696q0 11 8.5 19.5t19.5 8.5t19.5 -8.5t8.5 -19.5t-8.5 -19.5t-19.5 -8.5t-19.5 8.5t-8.5 19.5zM340 -9q-128 0 -208.5 88t-80.5 219t80.5 219t208.5 88 q129 0 209 -88t80 -219t-80 -219t-209 -88zM340 11q124 0 196 84t72 203t-72 203t-196 84q-123 0 -195.5 -84t-72.5 -203t72.5 -203t195.5 -84z" />
<glyph unicode="&#xd7;" horiz-adv-x="496" d="M72 133l163 170l-163 171l14 14l162 -171l163 171l13 -14l-163 -171l163 -170l-13 -14l-163 170l-162 -170z" />
<glyph unicode="&#xd8;" horiz-adv-x="680" d="M637 600l-83 -88q75 -86 75 -214q0 -131 -80 -219t-209 -88q-123 0 -203 82l-70 -73h-27l83 88q-72 85 -72 210q0 131 80.5 219t208.5 88q120 0 200 -78l69 73h28zM72 298q0 -114 66 -195l387 409q-71 73 -185 73q-123 0 -195.5 -84t-72.5 -203zM608 298q0 118 -69 199 l-388 -409q74 -77 189 -77q124 0 196 84t72 203z" />
<glyph unicode="&#xd9;" horiz-adv-x="624" d="M228 773l31 4l58 -142h-15zM312 -8q-108 0 -167 69.5t-59 189.5v349h21v-349q0 -111 52.5 -175t152.5 -64t152.5 64t52.5 175v349h21v-349q0 -120 -59 -189.5t-167 -69.5z" />
<glyph unicode="&#xda;" horiz-adv-x="624" d="M318 635h-15l58 142l31 -4zM312 -8q-108 0 -167 69.5t-59 189.5v349h21v-349q0 -111 52.5 -175t152.5 -64t152.5 64t52.5 175v349h21v-349q0 -120 -59 -189.5t-167 -69.5z" />
<glyph unicode="&#xdb;" horiz-adv-x="624" d="M311 759l-63 -91h-22l70 109h29l72 -109h-22zM312 -8q-108 0 -167 69.5t-59 189.5v349h21v-349q0 -111 52.5 -175t152.5 -64t152.5 64t52.5 175v349h21v-349q0 -120 -59 -189.5t-167 -69.5z" />
<glyph unicode="&#xdc;" horiz-adv-x="624" d="M219 696q0 11 8.5 19.5t19.5 8.5t19.5 -8.5t8.5 -19.5t-8.5 -19.5t-19.5 -8.5t-19.5 8.5t-8.5 19.5zM348 696q0 11 8.5 19.5t19.5 8.5t19.5 -8.5t8.5 -19.5t-8.5 -19.5t-19.5 -8.5t-19.5 8.5t-8.5 19.5zM312 -8q-108 0 -167 69.5t-59 189.5v349h21v-349q0 -111 52.5 -175 t152.5 -64t152.5 64t52.5 175v349h21v-349q0 -120 -59 -189.5t-167 -69.5z" />
<glyph unicode="&#xdd;" horiz-adv-x="543" d="M279 635h-15l58 142l31 -4zM485 600h25l-228 -368v-232h-21v232l-228 368h25l197 -322l16 -29h2l16 29z" />
<glyph unicode="&#xde;" horiz-adv-x="562" d="M116 497h190q103 0 162.5 -54.5t59.5 -139.5q0 -87 -59.5 -143t-162.5 -56h-190v-104h-21v600h21v-103zM507 303q0 77 -55 125.5t-145 48.5h-191v-353h191q90 0 145 50t55 129z" />
<glyph unicode="&#xdf;" horiz-adv-x="455" d="M231 300q70 1 110.5 39.5t40.5 99.5q0 57 -41 99.5t-101 42.5t-100.5 -42t-40.5 -107v-432h-20v436q0 71 45.5 117.5t115.5 46.5t116 -46.5t46 -114.5q0 -55 -28.5 -94t-77.5 -54q48 -14 77 -51t29 -93q0 -68 -45 -111t-116 -43q-23 0 -42.5 3.5t-27.5 6.5l-8 3l6 18 q31 -12 74 -12q60 0 99.5 39.5t39.5 95.5q0 59 -40.5 96.5t-101.5 37.5h-9v19z" />
<glyph unicode="&#xe0;" horiz-adv-x="466" d="M143 635l31 4l58 -142h-15zM393 0h-15l-3 89h-2q-21 -40 -69 -69.5t-108 -29.5q-77 0 -117 36t-40 91t44 92t138 37q90 0 152 -34v35q0 164 -159 164q-31 0 -64 -9t-50 -18l-18 -9l-9 18q64 37 145 37q88 0 131.5 -50t43.5 -134v-246zM373 191q-63 36 -150 36 q-85 0 -124.5 -31t-39.5 -79q0 -46 35.5 -77t104.5 -31t119.5 43t54.5 80v59z" />
<glyph unicode="&#xe1;" horiz-adv-x="466" d="M223 497h-15l58 142l31 -4zM393 0h-15l-3 89h-2q-21 -40 -69 -69.5t-108 -29.5q-77 0 -117 36t-40 91t44 92t138 37q90 0 152 -34v35q0 164 -159 164q-31 0 -64 -9t-50 -18l-18 -9l-9 18q64 37 145 37q88 0 131.5 -50t43.5 -134v-246zM373 191q-63 36 -150 36 q-85 0 -124.5 -31t-39.5 -79q0 -46 35.5 -77t104.5 -31t119.5 43t54.5 80v59z" />
<glyph unicode="&#xe2;" horiz-adv-x="466" d="M216 587l-63 -91h-22l70 109h29l72 -109h-22zM393 0h-15l-3 89h-2q-21 -40 -69 -69.5t-108 -29.5q-77 0 -117 36t-40 91t44 92t138 37q90 0 152 -34v35q0 164 -159 164q-31 0 -64 -9t-50 -18l-18 -9l-9 18q64 37 145 37q88 0 131.5 -50t43.5 -134v-246zM373 191 q-63 36 -150 36q-85 0 -124.5 -31t-39.5 -79q0 -46 35.5 -77t104.5 -31t119.5 43t54.5 80v59z" />
<glyph unicode="&#xe3;" horiz-adv-x="466" d="M280 497q-25 0 -66 27.5t-59 27.5q-15 0 -24.5 -7t-13 -14.5t-7.5 -20.5l-3 -11l-15 2l3 15q11 55 59 55q25 0 65.5 -27.5t60.5 -27.5q21 0 30 11t15 31l3 11l15 -2l-3 -15q-11 -55 -60 -55zM393 0h-15l-3 89h-2q-21 -40 -69 -69.5t-108 -29.5q-77 0 -117 36t-40 91 t44 92t138 37q90 0 152 -34v35q0 164 -159 164q-31 0 -64 -9t-50 -18l-18 -9l-9 18q64 37 145 37q88 0 131.5 -50t43.5 -134v-246zM373 191q-63 36 -150 36q-85 0 -124.5 -31t-39.5 -79q0 -46 35.5 -77t104.5 -31t119.5 43t54.5 80v59z" />
<glyph unicode="&#xe4;" horiz-adv-x="466" d="M124 525q0 11 8.5 19.5t19.5 8.5t19.5 -8.5t8.5 -19.5t-8.5 -19.5t-19.5 -8.5t-19.5 8.5t-8.5 19.5zM253 525q0 11 8.5 19.5t19.5 8.5t19.5 -8.5t8.5 -19.5t-8.5 -19.5t-19.5 -8.5t-19.5 8.5t-8.5 19.5zM393 0h-15l-3 89h-2q-21 -40 -69 -69.5t-108 -29.5q-77 0 -117 36 t-40 91t44 92t138 37q90 0 152 -34v35q0 164 -159 164q-31 0 -64 -9t-50 -18l-18 -9l-9 18q64 37 145 37q88 0 131.5 -50t43.5 -134v-246zM373 191q-63 36 -150 36q-85 0 -124.5 -31t-39.5 -79q0 -46 35.5 -77t104.5 -31t119.5 43t54.5 80v59z" />
<glyph unicode="&#xe5;" horiz-adv-x="466" d="M140 569q0 32 23.5 52t58.5 20t58.5 -20t23.5 -52t-23.5 -52t-58.5 -20t-58.5 20t-23.5 52zM283 569q0 25 -16.5 39t-44.5 14t-44.5 -14t-16.5 -39t16.5 -39t44.5 -14t44.5 14t16.5 39zM393 0h-15l-3 89h-2q-21 -40 -69 -69.5t-108 -29.5q-77 0 -117 36t-40 91t44 92 t138 37q90 0 152 -34v35q0 164 -159 164q-31 0 -64 -9t-50 -18l-18 -9l-9 18q64 37 145 37q88 0 131.5 -50t43.5 -134v-246zM373 191q-63 36 -150 36q-85 0 -124.5 -31t-39.5 -79q0 -46 35.5 -77t104.5 -31t119.5 43t54.5 80v59z" />
<glyph unicode="&#xe6;" horiz-adv-x="799" d="M733 35q-6 -5 -17.5 -12.5t-49 -20t-77.5 -12.5q-68 0 -120.5 35t-75.5 97q-15 -54 -69.5 -93t-124.5 -39q-79 0 -119.5 38.5t-40.5 92.5q0 58 46.5 95t133.5 37q92 0 159 -32v26q0 164 -159 164q-31 0 -64 -9t-51 -18l-17 -9l-9 18q60 37 145 37q144 0 170 -130 q21 62 67.5 96t107.5 34q91 0 140 -54.5t49 -147.5v-6h-357v-15q0 -89 55.5 -143t132.5 -54q39 0 72.5 11t47.5 21l15 11zM568 411q-64 0 -110.5 -44.5t-55.5 -124.5h334q-2 71 -45 120t-123 49zM205 10q70 0 121.5 44.5t51.5 89.5v56q-66 35 -157 35q-83 0 -122.5 -32.5 t-39.5 -83.5q0 -45 36 -77t110 -32z" />
<glyph unicode="&#xe7;" horiz-adv-x="425" d="M217 -55l20 46q-82 5 -135.5 63.5t-53.5 152.5q0 100 58.5 161.5t145.5 61.5q36 0 67.5 -9.5t45.5 -18.5l14 -10l-8 -17q-47 36 -120 36q-74 0 -128 -56.5t-54 -147.5q0 -90 54 -144t128 -54q32 0 62 9t44 18l14 9l8 -17q-44 -35 -119 -38h-2l-15 -35q74 0 74 -62 q0 -29 -21 -47t-57 -18q-18 0 -34 6t-23 12l-7 5l10 15q21 -19 55 -19q26 0 41.5 12.5t15.5 33.5q0 20 -15.5 31.5t-39.5 11.5l-18 -2z" />
<glyph unicode="&#xe8;" horiz-adv-x="460" d="M243 497h-15l-74 138l31 4zM417 222h-347v-15q0 -90 51.5 -144t126.5 -54q39 0 72.5 10.5t47.5 21.5l15 11l10 -17q-6 -5 -17.5 -12.5t-49.5 -20t-78 -12.5q-87 0 -143 59t-56 158q0 105 53.5 164t135.5 59q84 0 131.5 -54.5t47.5 -147.5v-6zM238 411q-64 0 -110.5 -44.5 t-55.5 -124.5h324q-2 70 -43.5 119.5t-114.5 49.5z" />
<glyph unicode="&#xe9;" horiz-adv-x="460" d="M308 635l-74 -138h-15l58 142zM417 222h-347v-15q0 -90 51.5 -144t126.5 -54q39 0 72.5 10.5t47.5 21.5l15 11l10 -17q-6 -5 -17.5 -12.5t-49.5 -20t-78 -12.5q-87 0 -143 59t-56 158q0 105 53.5 164t135.5 59q84 0 131.5 -54.5t47.5 -147.5v-6zM238 411 q-64 0 -110.5 -44.5t-55.5 -124.5h324q-2 70 -43.5 119.5t-114.5 49.5z" />
<glyph unicode="&#xea;" horiz-adv-x="460" d="M227 587l-63 -91h-22l70 109h29l72 -109h-22zM417 222h-347v-15q0 -90 51.5 -144t126.5 -54q39 0 72.5 10.5t47.5 21.5l15 11l10 -17q-6 -5 -17.5 -12.5t-49.5 -20t-78 -12.5q-87 0 -143 59t-56 158q0 105 53.5 164t135.5 59q84 0 131.5 -54.5t47.5 -147.5v-6zM238 411 q-64 0 -110.5 -44.5t-55.5 -124.5h324q-2 70 -43.5 119.5t-114.5 49.5z" />
<glyph unicode="&#xeb;" horiz-adv-x="460" d="M163 497q-11 0 -19.5 8.5t-8.5 19.5t8.5 19.5t19.5 8.5t19.5 -8.5t8.5 -19.5t-8.5 -19.5t-19.5 -8.5zM292 497q-11 0 -19.5 8.5t-8.5 19.5t8.5 19.5t19.5 8.5t19.5 -8.5t8.5 -19.5t-8.5 -19.5t-19.5 -8.5zM417 222h-347v-15q0 -90 51.5 -144t126.5 -54q39 0 72.5 10.5 t47.5 21.5l15 11l10 -17q-6 -5 -17.5 -12.5t-49.5 -20t-78 -12.5q-87 0 -143 59t-56 158q0 105 53.5 164t135.5 59q84 0 131.5 -54.5t47.5 -147.5v-6zM238 411q-64 0 -110.5 -44.5t-55.5 -124.5h324q-2 70 -43.5 119.5t-114.5 49.5z" />
<glyph unicode="&#xec;" horiz-adv-x="182" d="M17 635l31 4l58 -142h-15zM81 420h20v-420h-20v420z" />
<glyph unicode="&#xed;" horiz-adv-x="182" d="M97 497h-15l58 142l31 -4zM81 420h20v-420h-20v420z" />
<glyph unicode="&#xee;" horiz-adv-x="182" d="M90 587l-63 -91h-22l70 109h29l72 -109h-22zM81 420h20v-420h-20v420z" />
<glyph unicode="&#xef;" horiz-adv-x="182" d="M-2 525q0 11 8.5 19.5t19.5 8.5t19.5 -8.5t8.5 -19.5t-8.5 -19.5t-19.5 -8.5t-19.5 8.5t-8.5 19.5zM127 525q0 11 8.5 19.5t19.5 8.5t19.5 -8.5t8.5 -19.5t-8.5 -19.5t-19.5 -8.5t-19.5 8.5t-8.5 19.5zM81 420h20v-420h-20v420z" />
<glyph unicode="&#xf0;" horiz-adv-x="495" d="M247 -10q-84 0 -141.5 61.5t-57.5 158.5t57.5 158.5t141.5 61.5q70 0 123 -44v2q-11 13 -19 26l-98 157l-119 -74l-11 18l119 74l-84 135v4h20l81 -129l117 73l11 -18l-117 -72l104 -163q72 -113 72 -208v-1q0 -97 -57.5 -158.5t-141.5 -61.5zM428 210q0 92 -53 146.5 t-129 54.5q-75 0 -126 -56.5t-51 -144.5t51 -144.5t126 -56.5q76 0 129 54.5t53 146.5z" />
<glyph unicode="&#xf1;" horiz-adv-x="505" d="M316 497q-25 0 -66 27.5t-59 27.5q-15 0 -24.5 -7t-13 -14.5t-7.5 -20.5l-3 -11l-15 2l3 15q11 55 59 55q25 0 65.5 -27.5t60.5 -27.5q21 0 30 11t15 31l3 11l15 -2l-3 -15q-11 -55 -60 -55zM79 420h15l5 -88h1l3 6q3 6 6.5 12t11 15.5t15.5 18t21 17t27.5 15t34 10.5 t41.5 4q82 0 127.5 -55.5t45.5 -143.5v-231h-20v230q0 81 -40 131t-115 50q-52 0 -89.5 -26.5t-53 -59t-16.5 -63.5v-262h-20v420z" />
<glyph unicode="&#xf2;" horiz-adv-x="503" d="M178 635l31 4l58 -142h-15zM455 208q0 -99 -58.5 -158.5t-144.5 -59.5q-87 0 -145.5 59.5t-58.5 158.5t58.5 160.5t145.5 61.5q86 0 144.5 -61.5t58.5 -160.5zM252 9q74 0 128 54t54 144q0 91 -54 147.5t-128 56.5q-75 0 -129 -56.5t-54 -147.5q0 -90 54 -144t129 -54z " />
<glyph unicode="&#xf3;" horiz-adv-x="503" d="M258 497h-15l58 142l31 -4zM455 208q0 -99 -58.5 -158.5t-144.5 -59.5q-87 0 -145.5 59.5t-58.5 158.5t58.5 160.5t145.5 61.5q86 0 144.5 -61.5t58.5 -160.5zM252 9q74 0 128 54t54 144q0 91 -54 147.5t-128 56.5q-75 0 -129 -56.5t-54 -147.5q0 -90 54 -144t129 -54z " />
<glyph unicode="&#xf4;" horiz-adv-x="503" d="M251 587l-63 -91h-22l70 109h29l72 -109h-22zM455 208q0 -99 -58.5 -158.5t-144.5 -59.5q-87 0 -145.5 59.5t-58.5 158.5t58.5 160.5t145.5 61.5q86 0 144.5 -61.5t58.5 -160.5zM252 9q74 0 128 54t54 144q0 91 -54 147.5t-128 56.5q-75 0 -129 -56.5t-54 -147.5 q0 -90 54 -144t129 -54z" />
<glyph unicode="&#xf5;" horiz-adv-x="503" d="M315 497q-25 0 -66 27.5t-59 27.5q-15 0 -24.5 -7t-13 -14.5t-7.5 -20.5l-3 -11l-15 2l3 15q11 55 59 55q25 0 65.5 -27.5t60.5 -27.5q21 0 30 11t15 31l3 11l15 -2l-3 -15q-11 -55 -60 -55zM455 208q0 -99 -58.5 -158.5t-144.5 -59.5q-87 0 -145.5 59.5t-58.5 158.5 t58.5 160.5t145.5 61.5q86 0 144.5 -61.5t58.5 -160.5zM252 9q74 0 128 54t54 144q0 91 -54 147.5t-128 56.5q-75 0 -129 -56.5t-54 -147.5q0 -90 54 -144t129 -54z" />
<glyph unicode="&#xf6;" horiz-adv-x="503" d="M159 525q0 11 8.5 19.5t19.5 8.5t19.5 -8.5t8.5 -19.5t-8.5 -19.5t-19.5 -8.5t-19.5 8.5t-8.5 19.5zM288 525q0 11 8.5 19.5t19.5 8.5t19.5 -8.5t8.5 -19.5t-8.5 -19.5t-19.5 -8.5t-19.5 8.5t-8.5 19.5zM455 208q0 -99 -58.5 -158.5t-144.5 -59.5q-87 0 -145.5 59.5 t-58.5 158.5t58.5 160.5t145.5 61.5q86 0 144.5 -61.5t58.5 -160.5zM252 9q74 0 128 54t54 144q0 91 -54 147.5t-128 56.5q-75 0 -129 -56.5t-54 -147.5q0 -90 54 -144t129 -54z" />
<glyph unicode="&#xf7;" horiz-adv-x="489" d="M217 423q0 11 8.5 19.5t19.5 8.5t19.5 -8.5t8.5 -19.5t-8.5 -19.5t-19.5 -8.5t-19.5 8.5t-8.5 19.5zM69 304h351v-20h-351v20zM217 172q0 11 8.5 19.5t19.5 8.5t19.5 -8.5t8.5 -19.5t-8.5 -19.5t-19.5 -8.5t-19.5 8.5t-8.5 19.5z" />
<glyph unicode="&#xf8;" horiz-adv-x="504" d="M456 208q0 -99 -58.5 -158.5t-144.5 -59.5q-83 0 -139 53l-40 -43h-30l54 59q-49 58 -49 149q0 99 58.5 160.5t145.5 61.5q80 0 137 -55l42 45h29l-56 -60q51 -61 51 -152zM70 207q0 -79 43 -132l262 286q-52 50 -122 50q-75 0 -129 -56.5t-54 -147.5zM253 9q74 0 128 54 t54 144q0 79 -45 137l-261 -286q51 -49 124 -49z" />
<glyph unicode="&#xf9;" horiz-adv-x="499" d="M256 497h-15l-74 138l31 4zM400 420h20v-420h-15l-6 89h-1q0 -1 -4.5 -10.5t-16.5 -24.5t-28.5 -29.5t-46 -24.5t-63.5 -10q-81 0 -124 55t-43 144v231h20v-230q0 -82 36.5 -131.5t111.5 -49.5q41 0 73.5 16t50.5 40.5t27 49.5t9 47v258z" />
<glyph unicode="&#xfa;" horiz-adv-x="499" d="M321 635l-74 -138h-15l58 142zM400 420h20v-420h-15l-6 89h-1q0 -1 -4.5 -10.5t-16.5 -24.5t-28.5 -29.5t-46 -24.5t-63.5 -10q-81 0 -124 55t-43 144v231h20v-230q0 -82 36.5 -131.5t111.5 -49.5q41 0 73.5 16t50.5 40.5t27 49.5t9 47v258z" />
<glyph unicode="&#xfb;" horiz-adv-x="499" d="M240 587l-63 -91h-22l70 109h29l72 -109h-22zM400 420h20v-420h-15l-6 89h-1q0 -1 -4.5 -10.5t-16.5 -24.5t-28.5 -29.5t-46 -24.5t-63.5 -10q-81 0 -124 55t-43 144v231h20v-230q0 -82 36.5 -131.5t111.5 -49.5q41 0 73.5 16t50.5 40.5t27 49.5t9 47v258z" />
<glyph unicode="&#xfc;" horiz-adv-x="499" d="M176 497q-11 0 -19.5 8.5t-8.5 19.5t8.5 19.5t19.5 8.5t19.5 -8.5t8.5 -19.5t-8.5 -19.5t-19.5 -8.5zM305 497q-11 0 -19.5 8.5t-8.5 19.5t8.5 19.5t19.5 8.5t19.5 -8.5t8.5 -19.5t-8.5 -19.5t-19.5 -8.5zM400 420h20v-420h-15l-6 89h-1q0 -1 -4.5 -10.5t-16.5 -24.5 t-28.5 -29.5t-46 -24.5t-63.5 -10q-81 0 -124 55t-43 144v231h20v-230q0 -82 36.5 -131.5t111.5 -49.5q41 0 73.5 16t50.5 40.5t27 49.5t9 47v258z" />
<glyph unicode="&#xfd;" horiz-adv-x="431" d="M222 497h-15l58 142l31 -4zM107 -156h-24l127 228l-192 348h25l170 -310q7 -16 7 -22h2q0 10 7 22l170 310h21z" />
<glyph unicode="&#xfe;" horiz-adv-x="526" d="M99 111v-267h-20v756h20v-291h1q2 5 5 13t17.5 29t33 37t51.5 29t73 13q83 0 140.5 -61.5t57.5 -158.5t-57.5 -158.5t-140.5 -61.5q-40 0 -73 12.5t-52 30t-32 35.5t-18 30l-5 13h-1zM98 210q0 -92 53.5 -146.5t128.5 -54.5t126 56.5t51 144.5t-51 144.5t-126 56.5 t-128.5 -54.5t-53.5 -146.5z" />
<glyph unicode="&#xff;" horiz-adv-x="431" d="M123 525q0 11 8.5 19.5t19.5 8.5t19.5 -8.5t8.5 -19.5t-8.5 -19.5t-19.5 -8.5t-19.5 8.5t-8.5 19.5zM252 525q0 11 8.5 19.5t19.5 8.5t19.5 -8.5t8.5 -19.5t-8.5 -19.5t-19.5 -8.5t-19.5 8.5t-8.5 19.5zM107 -156h-24l127 228l-192 348h25l170 -310q7 -16 7 -22h2 q0 10 7 22l170 310h21z" />
<glyph unicode="&#x152;" horiz-adv-x="1050" d="M1005 580h-376v-267h330v-20h-330v-273h376v-20h-397v176q-32 -85 -102 -135t-166 -50q-128 0 -208.5 88t-80.5 219t80.5 219t208.5 88q96 0 166 -50t102 -135v180h397v-20zM340 11q124 0 196 84t72 203t-72 203t-196 84q-123 0 -195.5 -84t-72.5 -203t72.5 -203 t195.5 -84z" />
<glyph unicode="&#x153;" horiz-adv-x="844" d="M778 35q-6 -5 -17.5 -12.5t-49.5 -20t-78 -12.5q-69 0 -119.5 37.5t-69.5 104.5q-21 -67 -72.5 -104.5t-119.5 -37.5q-87 0 -145.5 59.5t-58.5 158.5t58.5 160.5t145.5 61.5q67 0 119 -39t72 -106q18 69 67 107t113 38q84 0 131.5 -54.5t47.5 -147.5v-6h-347v-24 q3 -87 53.5 -138t124.5 -51q39 0 72.5 10.5t48.5 21.5l14 11zM252 9q74 0 128 54t54 144q-3 92 -54.5 148t-127.5 56q-75 0 -129 -56.5t-54 -147.5q0 -90 54 -144t129 -54zM623 411q-64 0 -110.5 -44.5t-55.5 -124.5h324q-2 70 -43.5 119.5t-114.5 49.5z" />
<glyph unicode="&#x178;" horiz-adv-x="543" d="M180 696q0 11 8.5 19.5t19.5 8.5t19.5 -8.5t8.5 -19.5t-8.5 -19.5t-19.5 -8.5t-19.5 8.5t-8.5 19.5zM309 696q0 11 8.5 19.5t19.5 8.5t19.5 -8.5t8.5 -19.5t-8.5 -19.5t-19.5 -8.5t-19.5 8.5t-8.5 19.5zM485 600h25l-228 -368v-232h-21v232l-228 368h25l197 -322l16 -29 h2l16 29z" />
<glyph unicode="&#x2c6;" horiz-adv-x="314" d="M160 759l-63 -91h-22l70 109h29l72 -109h-22z" />
<glyph unicode="&#x2dc;" horiz-adv-x="410" d="M261 668q-25 0 -66 27.5t-59 27.5q-15 0 -24.5 -7t-13 -14.5t-7.5 -20.5l-3 -11l-15 2l3 15q11 55 59 55q25 0 65.5 -27.5t60.5 -27.5q21 0 30 11t15 31l3 11l15 -2l-3 -15q-11 -55 -60 -55z" />
<glyph unicode="&#x2000;" horiz-adv-x="399" />
<glyph unicode="&#x2001;" horiz-adv-x="799" />
<glyph unicode="&#x2002;" horiz-adv-x="399" />
<glyph unicode="&#x2003;" horiz-adv-x="799" />
<glyph unicode="&#x2004;" horiz-adv-x="266" />
<glyph unicode="&#x2005;" horiz-adv-x="199" />
<glyph unicode="&#x2006;" horiz-adv-x="133" />
<glyph unicode="&#x2007;" horiz-adv-x="133" />
<glyph unicode="&#x2008;" horiz-adv-x="99" />
<glyph unicode="&#x2009;" horiz-adv-x="159" />
<glyph unicode="&#x200a;" horiz-adv-x="44" />
<glyph unicode="&#x2010;" horiz-adv-x="401" d="M67 240h267v-20h-267v20z" />
<glyph unicode="&#x2011;" horiz-adv-x="401" d="M67 240h267v-20h-267v20z" />
<glyph unicode="&#x2012;" horiz-adv-x="401" d="M67 240h267v-20h-267v20z" />
<glyph unicode="&#x2013;" horiz-adv-x="458" d="M67 298h313v-20h-313v20z" />
<glyph unicode="&#x2014;" horiz-adv-x="729" d="M67 298h584v-20h-584v20z" />
<glyph unicode="&#x2018;" horiz-adv-x="199" d="M61 493q0 40 23.5 69t69.5 38l4 -18q-32 -5 -53.5 -26.5t-21.5 -48.5q15 0 22.5 -8t7.5 -18q0 -11 -7.5 -18.5t-18.5 -7.5t-18.5 7.5t-7.5 18.5v12z" />
<glyph unicode="&#x2019;" horiz-adv-x="207" d="M59 473q32 5 53.5 26.5t21.5 48.5q-15 0 -22.5 8t-7.5 18t8 18t18 8t18 -8t8 -18v-12q0 -40 -23.5 -69t-69.5 -38z" />
<glyph unicode="&#x201a;" horiz-adv-x="192" d="M26 -83q32 5 53.5 26.5t21.5 48.5q-15 0 -22.5 8t-7.5 18t7.5 18t18.5 8t18.5 -8t7.5 -18v-12q0 -40 -23.5 -69t-69.5 -38z" />
<glyph unicode="&#x201c;" horiz-adv-x="333" d="M60 493q0 40 23.5 69t69.5 38l4 -18q-32 -5 -53.5 -26.5t-21.5 -48.5q15 0 22.5 -8t7.5 -18q0 -11 -8 -18.5t-18 -7.5t-18 7.5t-8 18.5v12zM196 493q0 40 23.5 69t69.5 38l4 -18q-32 -5 -53.5 -26.5t-21.5 -48.5q15 0 22.5 -8t7.5 -18q0 -11 -8 -18.5t-18 -7.5t-18 7.5 t-8 18.5v12z" />
<glyph unicode="&#x201d;" horiz-adv-x="341" d="M156 562q0 -40 -23.5 -69t-69.5 -38l-4 18q32 5 53.5 26.5t21.5 48.5q-15 0 -22.5 8t-7.5 18t8 18t18 8t18 -8t8 -18v-12zM195 473q32 5 53.5 26.5t21.5 48.5q-15 0 -22.5 8t-7.5 18t8 18t18 8t18 -8t8 -18v-12q0 -40 -23.5 -69t-69.5 -38z" />
<glyph unicode="&#x201e;" horiz-adv-x="288" d="M25 -83q32 5 53.5 26.5t21.5 48.5q-15 0 -22.5 8t-7.5 18t8 18t18 8t18 -8t8 -18v-12q0 -40 -23.5 -69t-69.5 -38zM161 -83q32 5 53.5 26.5t21.5 48.5q-15 0 -22.5 8t-7.5 18t8 18t18 8t18 -8t8 -18v-12q0 -40 -23.5 -69t-69.5 -38z" />
<glyph unicode="&#x2022;" horiz-adv-x="282" d="M141 275q22 0 37 -15t15 -37t-15 -37t-37 -15t-37 15t-15 37t15 37t37 15z" />
<glyph unicode="&#x2026;" horiz-adv-x="526" d="M67 18q0 10 7.5 18t18.5 8t18.5 -8t7.5 -18t-7.5 -18t-18.5 -8t-18.5 8t-7.5 18zM237 18q0 10 7.5 18t18.5 8t18.5 -8t7.5 -18t-7.5 -18t-18.5 -8t-18.5 8t-7.5 18zM407 18q0 10 7.5 18t18.5 8t18.5 -8t7.5 -18t-7.5 -18t-18.5 -8t-18.5 8t-7.5 18z" />
<glyph unicode="&#x202f;" horiz-adv-x="159" />
<glyph unicode="&#x2039;" horiz-adv-x="233" d="M51 217l101 156h21v-7l-101 -155v-3l101 -157v-7h-21l-101 156v17z" />
<glyph unicode="&#x203a;" horiz-adv-x="233" d="M182 200l-101 -156h-21v7l101 157v3l-101 155v7h21l101 -156v-17z" />
<glyph unicode="&#x205f;" horiz-adv-x="199" />
<glyph unicode="&#x20ac;" horiz-adv-x="606" d="M406 220h-235q18 -91 73.5 -147t147.5 -56q43 0 79 16t51 32l14 16l14 -14q-2 -3 -6 -7.5t-18.5 -16.5t-31 -21.5t-44 -17t-58.5 -7.5q-101 0 -163 61.5t-80 161.5h-102v20h99q-4 25 -4 60q0 33 4 58h-99v20h101q18 101 80.5 163.5t163.5 62.5q31 0 58.5 -7t45 -17 t30.5 -20.5t19 -17.5l6 -7l-15 -15q-2 3 -5.5 7t-17 15t-29 19.5t-40.5 15.5t-52 7q-92 0 -148 -56.5t-74 -149.5h236v-20h-238q-4 -25 -4 -58q0 -35 4 -60h238v-20z" />
<glyph unicode="&#x2122;" horiz-adv-x="703" d="M268 580h-107v-299h-21v299h-106v20h234v-20zM337 281v319h30l114 -181l114 181h30v-319h-22v292l-116 -185h-12l-116 185v-292h-22z" />
<glyph unicode="&#x25fc;" horiz-adv-x="420" d="M0 420h420v-420h-420v420z" />
</font>
</defs>
</svg>
