<?xml version="1.0" encoding="UTF-8"?>
<svg width="24px" height="24px" viewBox="0 0 24 24" version="1.1" xmlns="http://www.w3.org/2000/svg" xmlns:xlink="http://www.w3.org/1999/xlink">
    <title>vector/ico-applicative-warning</title>
    <g id="ico-applicative-warning" stroke="none" stroke-width="1" fill="none" fill-rule="evenodd">
        <path d="M11.7711833,1.00128333 C10.7591833,1.0352 9.96718333,1.8822 10.0011,2.89236667 L10.6739333,16.3187833 C10.6959333,16.9210333 11.1817667,17.4160333 11.7941,17.4362 C12.4339333,17.4582 12.9701833,16.9577 12.9921833,16.3187833 L13.6659333,2.89236667 C13.66685,2.85295 13.66685,2.80803333 13.6659333,2.76861667 C13.6311,1.75845 12.7831833,0.96645 11.7711833,1.00128333 M11.91015,19.3981417 C11.22265,19.355975 10.6314,19.8775583 10.5892333,20.563225 C10.56265,20.9885583 10.5608167,21.4138917 10.5892333,21.839225 C10.6295667,22.4515583 11.1190667,22.9548083 11.7497333,22.996975 C12.4363167,23.043725 13.0312333,22.5248917 13.0770667,21.839225 C13.1064,21.4138917 13.10365,20.9885583 13.0770667,20.563225 C13.0404,19.9453917 12.5454,19.4375583 11.91015,19.3981417" id="Fill-4" fill="#FE3824"></path>
    </g>
</svg>