<?xml version="1.0" standalone="no"?>
<!DOCTYPE svg PUBLIC "-//W3C//DTD SVG 1.1//EN" "http://www.w3.org/Graphics/SVG/1.1/DTD/svg11.dtd" >
<svg xmlns="http://www.w3.org/2000/svg">
<metadata></metadata>
<defs>
<font id="textabold_italic" horiz-adv-x="522" >
<font-face units-per-em="1000" ascent="800" descent="-200" />
<missing-glyph horiz-adv-x="214" />
<glyph horiz-adv-x="0" />
<glyph horiz-adv-x="333" />
<glyph horiz-adv-x="0" />
<glyph horiz-adv-x="0" />
<glyph unicode="&#xd;" horiz-adv-x="105" />
<glyph unicode=" "  horiz-adv-x="214" />
<glyph unicode="&#x09;" horiz-adv-x="214" />
<glyph unicode="&#xa0;" horiz-adv-x="214" />
<glyph unicode="!" horiz-adv-x="222" d="M170 185h-67l33 415h116zM56 48q0 28 21.5 49t50.5 21q23 0 38.5 -16t15.5 -39q0 -29 -22 -50t-50 -21q-24 0 -39 16t-15 40z" />
<glyph unicode="&#x22;" horiz-adv-x="329" d="M173 475h-59l46 209h88zM322 475h-59l45 209h89z" />
<glyph unicode="#" horiz-adv-x="635" d="M546 428h119l-23 -59h-118l-56 -156h116l-21 -59h-116l-55 -154h-63l55 154h-151l-55 -154h-63l54 154h-117l21 59h118l56 156h-115l21 59h116l55 155h63l-55 -155h150l55 155h64zM254 213h151l55 156h-150z" />
<glyph unicode="$" horiz-adv-x="519" d="M110 136q6 -5 16 -13t45 -23.5t72 -19.5l26 185l-6 2q-83 27 -122 63t-39 92q0 79 57.5 131t158.5 59l15 104h59l-15 -104q56 -3 99 -18t58 -28l14 -14l-65 -81q-4 4 -13 11t-40 20t-66 17l-23 -167q90 -28 131 -66.5t41 -95.5q0 -82 -58.5 -138.5t-165.5 -64.5l-13 -94 h-59l13 95q-36 3 -68.5 11t-53 18.5t-35.5 20.5t-21 16l-7 7zM213 439q0 -22 16 -37.5t55 -30.5l21 148q-43 -5 -67.5 -26t-24.5 -54zM401 171q0 24 -17 41t-58 33l-23 -165q49 6 73.5 30t24.5 61z" />
<glyph unicode="%" horiz-adv-x="663" d="M257 613q54 0 84 -36.5t30 -91.5q0 -68 -43.5 -119.5t-111.5 -51.5q-54 0 -84.5 37t-30.5 91q0 69 44 120t112 51zM697 600l-561 -600h-91l560 600h92zM248 549q-34 0 -53.5 -29t-19.5 -75q0 -66 50 -66q33 0 52.5 29t19.5 75q0 66 -49 66zM533 291q55 0 85 -36.5 t30 -91.5q0 -68 -44 -119.5t-113 -51.5q-53 0 -83.5 37.5t-30.5 91.5q0 68 44 119t112 51zM524 227q-34 0 -53 -29t-19 -75q0 -66 49 -66q33 0 52.5 29.5t19.5 74.5q0 66 -49 66z" />
<glyph unicode="&#x26;" horiz-adv-x="614" d="M603 277q-29 -93 -87 -161l101 -116h-138l-40 47q-78 -57 -172 -57q-99 0 -150.5 41t-51.5 108q0 66 38 107.5t107 76.5l-11 13q-39 51 -39 108q0 70 54.5 119.5t140.5 49.5q71 0 112 -35.5t41 -92.5q0 -67 -40 -108.5t-112 -75.5l102 -119q35 51 55 117zM258 447 q0 -32 34 -72l10 -13q53 24 80 47.5t27 59.5q0 29 -17 45.5t-48 16.5q-38 0 -62 -23.5t-24 -60.5zM278 74q59 0 108 37l-122 146q-43 -24 -66 -47.5t-23 -57.5q0 -35 28.5 -56.5t74.5 -21.5z" />
<glyph unicode="'" horiz-adv-x="181" d="M174 475h-60l46 209h88z" />
<glyph unicode="(" horiz-adv-x="275" d="M177 287q-31 -219 72 -359l-72 -65q-138 172 -102 424q36 255 222 424l53 -65q-143 -139 -173 -359z" />
<glyph unicode=")" horiz-adv-x="276" d="M186 365q0 100 -25 171t-54 110l72 65q125 -153 105 -392q-18 -262 -224 -456l-54 65q180 180 180 437z" />
<glyph unicode="*" horiz-adv-x="387" d="M240 537l-122 20l34 71l103 -61v127h72l-40 -128l124 62l14 -71l-130 -20l79 -93l-68 -43l-42 115l-74 -115l-52 43z" />
<glyph unicode="+" horiz-adv-x="508" d="M341 334h176l-11 -80h-176l-24 -173h-82l25 173h-177l11 80h177l25 181h82z" />
<glyph unicode="," horiz-adv-x="213" d="M10 -70q68 16 80 62q-17 3 -28 17t-11 33q0 27 20.5 47t45.5 20t39.5 -16.5t14.5 -45.5q0 -61 -44.5 -109.5t-108.5 -60.5z" />
<glyph unicode="-" horiz-adv-x="388" d="M92 269h280l-12 -80h-280z" />
<glyph unicode="." horiz-adv-x="210" d="M121 109q22 0 37 -15t15 -38q0 -27 -21 -46.5t-48 -19.5q-23 0 -37.5 14.5t-14.5 37.5q0 28 20.5 47.5t48.5 19.5z" />
<glyph unicode="/" horiz-adv-x="591" d="M5 -112l575 895h99l-573 -894z" />
<glyph unicode="0" horiz-adv-x="610" d="M303 -14q-107 0 -165 74.5t-58 188.5q0 96 36.5 178.5t109 134t165.5 51.5q108 0 165.5 -73.5t57.5 -188.5q0 -96 -36.5 -178.5t-108.5 -134.5t-166 -52zM316 81q89 0 142.5 76t53.5 186q0 78 -34.5 127t-99.5 49q-90 0 -142.5 -76t-52.5 -186q0 -79 34 -127.5t99 -48.5z " />
<glyph unicode="1" horiz-adv-x="313" d="M99 600h231l-85 -600h-99l72 512h-131z" />
<glyph unicode="2" horiz-adv-x="505" d="M55 69l274 242q44 40 58 64t14 56q0 38 -26 63t-72 25q-10 0 -21 -1.5t-20 -3.5t-19.5 -6t-18 -7.5t-16.5 -9t-14.5 -8.5t-13.5 -9t-11.5 -8.5t-10 -7.5t-7.5 -6l-43 79q3 3 9.5 8.5t28 20t44.5 25t59 19.5t73 9q92 0 142 -45.5t50 -117.5q0 -49 -19 -90.5t-71 -87.5 l-209 -184h260l-13 -88h-418z" />
<glyph unicode="3" horiz-adv-x="502" d="M196 281l11 70l176 161h-261l12 88h393l-11 -76l-183 -167h3q72 -7 110.5 -45.5t38.5 -105.5q0 -93 -68 -156.5t-187 -63.5q-39 0 -72.5 8.5t-53.5 21t-35 24.5t-21 20l-6 9l65 72q5 -7 14.5 -17.5t44 -28t74.5 -17.5q64 0 102 33.5t38 83.5q0 86 -113 86h-71z" />
<glyph unicode="4" horiz-adv-x="562" d="M51 208l381 392h86l-53 -377h99l-12 -88h-99l-19 -135h-99l19 135h-313zM178 223h188l33 229l-201 -208l-19 -17z" />
<glyph unicode="5" horiz-adv-x="495" d="M238 512l-24 -146q38 6 69 6q103 0 153.5 -42t50.5 -116q0 -98 -68.5 -163t-189.5 -65q-38 0 -71.5 8.5t-53.5 21t-35 24.5t-21 20l-6 9l64 72q5 -7 15 -17.5t44.5 -28t74.5 -17.5q65 0 103 32t38 86q0 41 -32.5 66t-95.5 25q-36 0 -69.5 -5.5t-49 -11t-15.5 -6.5l-13 10 l55 326h348l-12 -88h-259z" />
<glyph unicode="6" horiz-adv-x="538" d="M378 610q58 0 101 -20t57 -40l14 -19l-66 -76q-1 1 -10.5 11t-17.5 16.5t-21.5 15.5t-31 13.5t-38.5 4.5q-68 0 -114 -46.5t-53 -144.5l-2 -10q55 62 150 62q83 0 133 -45t50 -118q0 -94 -72.5 -159.5t-175.5 -65.5q-91 0 -146.5 57.5t-55.5 179.5q0 176 83.5 280 t215.5 104zM324 293q-52 0 -90.5 -29t-48.5 -79q4 -52 32 -78.5t74 -26.5q56 0 94.5 36t38.5 87q0 40 -27 65t-73 25z" />
<glyph unicode="7" horiz-adv-x="455" d="M111 600h414l-9 -69l-334 -531h-116l327 512h-294z" />
<glyph unicode="8" horiz-adv-x="530" d="M264 -14q-94 0 -146 46.5t-52 117.5q0 110 106 165q-52 37 -52 108q0 80 63 135t169 55q88 0 135.5 -42t47.5 -108q0 -96 -88 -148q66 -38 66 -122q0 -86 -69 -146.5t-180 -60.5zM315 349q53 0 85 28.5t32 69.5q0 33 -24.5 55.5t-67.5 22.5q-53 0 -85.5 -29t-32.5 -69 q0 -34 24.5 -56t68.5 -22zM409 185q0 38 -28.5 63t-76.5 25q-58 0 -95.5 -32t-37.5 -78q0 -39 28.5 -64t76.5 -25q57 0 95 32.5t38 78.5z" />
<glyph unicode="9" horiz-adv-x="536" d="M260 80q67 0 111.5 48t50.5 146l1 9q-56 -61 -149 -61q-83 0 -132.5 45t-49.5 118q0 95 72 160t175 65q91 0 146.5 -57.5t55.5 -179.5q0 -175 -80.5 -280.5t-212.5 -105.5q-37 0 -68 8t-49.5 19.5t-32 23t-18.5 19.5l-5 8l67 77q2 -2 10.5 -11.5t17 -16.5t21.5 -16 t30.5 -13.5t38.5 -4.5zM296 306q52 0 89.5 29.5t48.5 76.5q-4 53 -31.5 80t-74.5 27q-56 0 -94 -36t-38 -87q0 -40 27 -65t73 -25z" />
<glyph unicode=":" horiz-adv-x="226" d="M104 360q0 27 20.5 47t48.5 20q22 0 37 -15.5t15 -38.5q0 -27 -21 -46t-48 -19q-23 0 -37.5 14.5t-14.5 37.5zM59 42q0 27 21 47t48 20q23 0 38 -15t15 -38q0 -27 -21 -46.5t-48 -19.5q-23 0 -38 14.5t-15 37.5z" />
<glyph unicode=";" horiz-adv-x="239" d="M181 427q23 0 37.5 -15.5t14.5 -38.5q0 -27 -21 -46t-48 -19q-22 0 -37 15t-15 37q0 27 21 47t48 20zM25 -70q68 16 80 62q-17 3 -28 17t-11 33q0 27 20.5 47t45.5 20t39.5 -16.5t14.5 -45.5q0 -61 -44.5 -109.5t-108.5 -60.5z" />
<glyph unicode="&#x3c;" horiz-adv-x="372" d="M82 331l298 180l-15 -105l-196 -107l165 -108l-14 -104l-246 181z" />
<glyph unicode="=" horiz-adv-x="459" d="M118 428h344l-11 -80h-344zM91 238h344l-11 -81h-344z" />
<glyph unicode="&#x3e;" horiz-adv-x="372" d="M373 268l-297 -181l14 104l197 108l-167 107l15 105l247 -180z" />
<glyph unicode="?" horiz-adv-x="432" d="M106 557q7 6 21 15.5t60 25t94 15.5q83 0 132 -38t49 -103q0 -45 -17.5 -80t-44 -57t-53.5 -40.5t-50 -41t-29 -47.5l-6 -24h-75l5 36q3 26 16.5 49.5t31 39t37 32t35.5 31t27 34.5t11 43q0 33 -24 52t-66 19q-29 0 -58.5 -10t-43.5 -20l-15 -11zM147 47q0 28 21 48 t49 20q23 0 38 -15t15 -38q0 -29 -21.5 -49.5t-49.5 -20.5q-23 0 -37.5 15.5t-14.5 39.5z" />
<glyph unicode="@" horiz-adv-x="1001" d="M753 51q-63 0 -92.5 28.5t-33.5 60.5l-1 8h-6q-11 -16 -29 -33.5t-59 -37.5t-86 -20q-70 0 -111.5 42.5t-41.5 115.5q0 121 79.5 201.5t183.5 80.5q105 0 125 -83l27 73h78l-62 -242q-9 -30 -9 -56q0 -32 18 -51t51 -19q65 0 111.5 66t46.5 171q0 62 -21 120t-61 106 t-105.5 77t-147.5 29q-97 0 -186 -38t-152.5 -101t-101 -146.5t-37.5 -172.5q0 -154 101.5 -259.5t255.5 -105.5q56 0 110.5 14.5t81.5 28.5l27 14l17 -51q-10 -7 -30 -17.5t-83.5 -27.5t-130.5 -17q-123 0 -217.5 57.5t-143 151t-48.5 204.5q0 102 42 197.5t113.5 167.5 t174 115t215.5 43q175 0 285 -109.5t110 -270.5q0 -132 -73.5 -223t-183.5 -91zM486 147q64 0 111 51.5t47 119.5q0 42 -24 66t-65 24q-60 0 -107 -48.5t-47 -120.5q0 -43 23 -67.5t62 -24.5z" />
<glyph unicode="A" horiz-adv-x="596" d="M594 0h-104l-32 123h-285l-66 -123h-105l330 600h100zM217 207h221l-71 277z" />
<glyph unicode="B" horiz-adv-x="602" d="M588 190q0 -91 -65.5 -140.5t-176.5 -49.5h-272l84 600h263q91 0 139 -36t48 -104q0 -53 -28 -92t-76 -58l-1 -5q40 -11 62.5 -41.5t22.5 -73.5zM501 440q0 72 -94 72h-162l-24 -168h162q53 0 85.5 26.5t32.5 69.5zM210 262l-24 -174h174q53 0 88 26.5t35 71.5 q0 34 -26 54t-68 22h-179z" />
<glyph unicode="C" horiz-adv-x="560" d="M549 67q-3 -3 -9 -8t-26 -18.5t-43 -23.5t-59 -18t-75 -8q-122 0 -192.5 74.5t-70.5 191.5q0 147 99.5 247.5t251.5 100.5q39 0 72.5 -7.5t54.5 -18.5t36 -22.5t22 -18.5l6 -8l-68 -76q-2 2 -5.5 6t-16 14t-27 17.5t-38 13.5t-48.5 6q-100 0 -167.5 -70.5t-67.5 -173.5 q0 -80 47 -130.5t126 -50.5q41 0 79 14.5t56 28.5l17 14z" />
<glyph unicode="D" horiz-adv-x="633" d="M641 341q0 -150 -100 -245.5t-255 -95.5h-212l84 600h212q126 0 198.5 -70.5t72.5 -188.5zM245 512l-59 -424h106q103 0 175 66.5t72 176.5q0 84 -52 132.5t-136 48.5h-106z" />
<glyph unicode="E" horiz-adv-x="540" d="M488 262h-278l-24 -174h328l-13 -88h-427l84 600h427l-12 -88h-328l-23 -166h278z" />
<glyph unicode="F" horiz-adv-x="533" d="M488 261h-278l-37 -261h-99l84 600h429l-12 -88h-330l-23 -167h278z" />
<glyph unicode="G" horiz-adv-x="639" d="M370 339h289l-9 -59q-19 -132 -103.5 -210.5t-212.5 -78.5q-121 0 -190 74t-69 191q0 148 98.5 248.5t251.5 100.5q42 0 78 -8t58 -19.5t38 -22.5t23 -19l6 -8l-69 -76q-2 2 -5.5 6t-17.5 14.5t-29.5 18t-41.5 14t-54 6.5q-100 0 -166.5 -70t-66.5 -174q0 -81 45 -131 t124 -50q76 0 127 45t66 119l1 5h-183z" />
<glyph unicode="H" horiz-adv-x="650" d="M576 0h-99l36 255h-304l-36 -255h-99l84 600h99l-36 -261h303l37 261h99z" />
<glyph unicode="I" horiz-adv-x="248" d="M173 0h-99l84 600h99z" />
<glyph unicode="J" horiz-adv-x="444" d="M78 116q37 -34 95 -34t91.5 33t43.5 104l53 381h99l-57 -401q-14 -98 -74.5 -155.5t-163.5 -57.5q-21 0 -40 3t-33 7.5t-26 10t-20 11t-14 10t-9 7.5l-3 3z" />
<glyph unicode="K" horiz-adv-x="587" d="M216 301l323 299h117l-1 -12l-259 -239l181 -336l-2 -13h-106l-149 277l-124 -116l-23 -161h-99l84 600h99z" />
<glyph unicode="L" horiz-adv-x="494" d="M74 0l84 600h99l-71 -512h295l-13 -88h-394z" />
<glyph unicode="M" horiz-adv-x="726" d="M612 416l-204 -224h-36l-141 222l-59 -414h-98l84 600h76l174 -280l253 280h74l-83 -600h-98z" />
<glyph unicode="N" horiz-adv-x="666" d="M592 0h-74l-285 427l-60 -427h-99l84 600h75l285 -424l59 424h99z" />
<glyph unicode="O" horiz-adv-x="675" d="M336 -9q-120 0 -190.5 75t-70.5 193q0 144 101 245t247 101q120 0 190.5 -73.5t70.5 -190.5q0 -145 -101 -247.5t-247 -102.5zM349 87q97 0 165 70.5t68 173.5q0 80 -47 129.5t-126 49.5q-96 0 -163.5 -70t-67.5 -172q0 -81 46.5 -131t124.5 -50z" />
<glyph unicode="P" horiz-adv-x="577" d="M405 600q96 0 150 -46t54 -127q0 -108 -72.5 -170.5t-190.5 -62.5h-145l-28 -194h-99l84 600h247zM507 415q0 48 -32 72.5t-87 24.5h-143l-32 -231h143q70 0 110.5 33.5t40.5 100.5z" />
<glyph unicode="Q" horiz-adv-x="675" d="M684 341q0 -104 -54.5 -189.5t-145.5 -127.5l62 -137h-111l-46 108q-23 -4 -53 -4q-120 0 -190.5 75t-70.5 193q0 144 101 245t247 101q120 0 190.5 -73.5t70.5 -190.5zM349 87q97 0 165 70.5t68 173.5q0 80 -47 129.5t-126 49.5q-96 0 -163.5 -70t-67.5 -172 q0 -81 46.5 -131t124.5 -50z" />
<glyph unicode="R" horiz-adv-x="599" d="M405 600q95 0 149.5 -46t54.5 -127q0 -78 -42 -133t-113 -79l-1 -6l116 -195l-1 -14h-103l-115 198h-149l-28 -198h-99l84 600h247zM506 415q0 48 -31.5 72.5t-86.5 24.5h-143l-32 -226h149q64 0 104 33t40 96z" />
<glyph unicode="S" horiz-adv-x="518" d="M108 141q7 -6 20 -16t55 -26t86 -16q65 0 97.5 22.5t32.5 59.5q0 33 -26.5 54.5t-96.5 43.5q-92 28 -134 65.5t-42 99.5q0 81 65.5 129t180.5 48q66 0 116 -15.5t67 -30.5l17 -15l-65 -81q-6 6 -17 14t-49 22t-82 14q-57 0 -89.5 -18t-32.5 -53q0 -29 26.5 -47.5 t94.5 -39.5q94 -28 136.5 -69t42.5 -106q0 -83 -66.5 -136t-184.5 -53q-68 0 -122.5 19t-74.5 38l-20 18z" />
<glyph unicode="T" horiz-adv-x="523" d="M109 600h474l-12 -88h-188l-72 -512h-99l72 512h-188z" />
<glyph unicode="U" horiz-adv-x="634" d="M315 -9q-115 0 -172.5 74t-40.5 189l49 346h99l-49 -346q-11 -74 21.5 -121t105.5 -47q74 0 119.5 47t56.5 121l49 346h99l-49 -346q-17 -116 -94 -189.5t-194 -73.5z" />
<glyph unicode="V" horiz-adv-x="596" d="M86 600h105l122 -485l261 485h104l-330 -600h-100z" />
<glyph unicode="W" horiz-adv-x="803" d="M461 432l-180 -432h-77l-106 600h105l62 -425l178 425h83l59 -426l183 426h106l-275 -600h-77z" />
<glyph unicode="X" horiz-adv-x="551" d="M392 308l148 -308h-120l-93 206l-17 45l-29 -45l-150 -206h-118l231 308l-142 292h119l91 -196l15 -45l28 45l144 196h118z" />
<glyph unicode="Y" horiz-adv-x="537" d="M509 600h110l-269 -369l-32 -231h-99l32 230l-165 370h111l101 -235l15 -47h1l28 47z" />
<glyph unicode="Z" horiz-adv-x="534" d="M40 71l401 441h-328l12 88h460l-10 -73l-394 -439h328l-13 -88h-466z" />
<glyph unicode="[" horiz-adv-x="326" d="M158 700h250l-12 -80h-156l-94 -670h156l-11 -80h-250z" />
<glyph unicode="\" horiz-adv-x="375" d="M142 798h98l87 -926h-98z" />
<glyph unicode="]" horiz-adv-x="326" d="M10 -50h156l93 670h-155l12 80h250l-117 -830h-250z" />
<glyph unicode="^" horiz-adv-x="417" d="M294 622l-103 -125h-77l163 196h57l109 -196h-80z" />
<glyph unicode="_" horiz-adv-x="536" d="M41 -40h442l-11 -80h-442z" />
<glyph unicode="`" horiz-adv-x="279" d="M136 631l116 17l24 -151h-68z" />
<glyph unicode="a" d="M432 358l23 62h66l-59 -420h-66l-6 62h-4q-2 -3 -5.5 -8t-17.5 -17t-30.5 -21.5t-44 -17.5t-58.5 -8q-75 0 -122 51t-47 135q0 109 67.5 181.5t161.5 72.5q31 0 57 -7.5t40 -18t24 -21t13 -17.5l3 -8h5zM402 233q0 53 -28 84.5t-74 31.5q-57 0 -97.5 -45.5t-40.5 -114.5 q0 -52 27 -85t72 -33q59 0 100 45t41 117z" />
<glyph unicode="b" horiz-adv-x="521" d="M145 605h98l-34 -239h4q2 3 5 7t15 15t26.5 19.5t40 15.5t54.5 7q73 0 118.5 -52t45.5 -136q0 -110 -66.5 -181t-161.5 -71q-31 0 -56.5 8t-40 19t-24 22t-12.5 19l-3 8h-4l-23 -66h-67zM180 188q0 -54 28 -85.5t73 -31.5q58 0 98 46.5t40 115.5q0 51 -27.5 83.5 t-71.5 32.5q-58 0 -99 -45t-41 -116z" />
<glyph unicode="c" horiz-adv-x="409" d="M249 -10q-86 0 -137 52.5t-51 136.5q0 108 71 179.5t179 71.5q40 0 71 -9t42 -19l11 -9l-37 -72q-35 28 -91 28q-61 0 -103.5 -44.5t-42.5 -117.5q0 -54 29.5 -85t77.5 -31q25 0 49.5 7t36.5 14l13 7l16 -71q-5 -4 -14.5 -10.5t-44.5 -17t-75 -10.5z" />
<glyph unicode="d" d="M416 371l33 234h98l-85 -605h-66l-6 62h-4q-2 -3 -5.5 -8t-17.5 -17t-30.5 -21.5t-44 -17.5t-58.5 -8q-75 0 -122 51t-47 135q0 109 67.5 181.5t160.5 72.5q45 0 75.5 -15t39.5 -29l8 -15h4zM402 233q0 53 -28 84.5t-74 31.5q-57 0 -97.5 -45.5t-40.5 -114.5 q0 -52 27 -85t72 -33q59 0 100 45t41 117z" />
<glyph unicode="e" horiz-adv-x="459" d="M298 430q85 0 127.5 -54t35.5 -142q-1 -25 -5 -39h-299q-5 -63 25 -95t87 -32q32 0 61.5 9t43.5 19l13 9l26 -67q-6 -6 -18 -14t-54 -22t-89 -14q-90 0 -140.5 52.5t-50.5 137.5q0 106 68 179t169 73zM368 260q2 94 -83 94q-84 0 -115 -94h198z" />
<glyph unicode="f" horiz-adv-x="322" d="M242 343l-48 -343h-98l48 343h-76l12 77h74l5 37q11 73 56.5 114t117.5 41q26 0 49 -5t33 -10l10 -5l-41 -74q-20 11 -52 11q-30 0 -50 -18t-24 -50l-5 -41h117l-12 -77h-116z" />
<glyph unicode="g" horiz-adv-x="521" d="M465 28q-13 -93 -75.5 -150t-163.5 -57q-110 0 -159 65l58 62q38 -49 110 -49q115 0 132 126l4 29h-4q-2 -3 -5 -7t-15 -15t-26.5 -19.5t-39.5 -15.5t-54 -7q-74 0 -120 52t-46 136q0 111 67.5 181.5t163.5 70.5q31 0 56.5 -8t39.5 -19t23.5 -22.5t12.5 -19.5l3 -8h4 l24 67h65zM401 232q0 54 -28 85.5t-73 31.5q-58 0 -98.5 -46.5t-40.5 -114.5q0 -52 27.5 -84.5t72.5 -32.5q58 0 99 45t41 116z" />
<glyph unicode="h" horiz-adv-x="512" d="M145 605h99l-32 -225h4q45 50 131 50q79 0 117.5 -51.5t26.5 -137.5l-34 -241h-98l33 231q7 50 -15 82.5t-68 32.5t-77 -30.5t-39 -68.5l-34 -247h-99z" />
<glyph unicode="i" horiz-adv-x="221" d="M180 497q-23 0 -37.5 14.5t-14.5 37.5q0 27 20.5 46.5t48.5 19.5q23 0 38 -15t15 -38q0 -27 -21 -46t-49 -19zM120 420h98l-59 -420h-98z" />
<glyph unicode="j" horiz-adv-x="221" d="M180 497q-23 0 -38 14.5t-15 37.5q0 27 21 46.5t49 19.5q23 0 37.5 -15t14.5 -38q0 -27 -20.5 -46t-48.5 -19zM-9 -74h15q44 0 51 45l63 449h98l-63 -454q-8 -57 -43 -89.5t-94 -32.5h-38z" />
<glyph unicode="k" horiz-adv-x="456" d="M504 420l-198 -182l142 -238h-113l-107 177l-51 -46l-19 -131h-98l85 605h98l-50 -358h1l188 173h122z" />
<glyph unicode="l" horiz-adv-x="222" d="M147 605h98l-85 -605h-98z" />
<glyph unicode="m" horiz-adv-x="806" d="M119 420h64l4 -60h5q58 70 149 70q103 0 139 -76h5q58 76 154 76q81 0 119.5 -51.5t26.5 -137.5l-34 -241h-98l33 232q6 50 -14.5 82t-67.5 32t-77 -29t-37 -68l-35 -249h-98l34 242q7 46 -15.5 75t-69.5 29t-76.5 -29.5t-36.5 -68.5l-35 -248h-98z" />
<glyph unicode="n" horiz-adv-x="513" d="M119 420h64l4 -60h5q30 36 65 53t87 17q81 0 120 -51.5t27 -137.5l-33 -241h-98l32 232q7 50 -15 82t-69 32q-46 0 -77 -30.5t-38 -67.5l-35 -248h-98z" />
<glyph unicode="o" horiz-adv-x="499" d="M497 238q0 -109 -74 -178.5t-175 -69.5q-82 0 -134.5 51.5t-52.5 136.5q0 110 74 181t175 71q82 0 134.5 -53t52.5 -139zM259 68q58 0 100 45.5t42 118.5q0 54 -28.5 87t-73.5 33q-58 0 -100 -47t-42 -119q0 -54 28.5 -86t73.5 -32z" />
<glyph unicode="p" horiz-adv-x="521" d="M165 49l-29 -205h-98l81 576h65l5 -60h7q2 3 6 7.5t18 16.5t30 21.5t43.5 17t58.5 7.5q75 0 121 -51t46 -135q0 -109 -66.5 -181.5t-158.5 -72.5q-29 0 -52.5 6t-36.5 15t-21.5 17.5t-11.5 14.5l-3 6h-4zM180 187q0 -53 28 -84.5t73 -31.5q58 0 98 45.5t40 114.5 q0 52 -27 85t-72 33q-58 0 -99 -45t-41 -117z" />
<glyph unicode="q" d="M440 -156h-98l30 210h-4q-2 -3 -5 -7t-15 -15t-27 -19.5t-40 -15.5t-54 -7q-74 0 -119.5 52t-45.5 136q0 111 67.5 181.5t162.5 70.5q32 0 57.5 -8t39 -19t23 -22.5t12.5 -19.5l3 -8h5l23 67h66zM402 232q0 54 -28 85.5t-74 31.5q-57 0 -97.5 -46.5t-40.5 -114.5 q0 -52 27 -84.5t72 -32.5q59 0 100 44.5t41 116.5z" />
<glyph unicode="r" horiz-adv-x="296" d="M332 339h-23q-44 0 -78 -30.5t-40 -77.5l-33 -231h-98l59 420h64l3 -67h5q42 68 129 68h23z" />
<glyph unicode="s" horiz-adv-x="418" d="M260 430q51 0 93.5 -9t59.5 -18l17 -9l-44 -76q-50 36 -127 36q-83 0 -83 -49q0 -22 35.5 -35.5t78 -22t78 -37t35.5 -76.5q0 -62 -47.5 -103t-145.5 -41q-55 0 -97.5 12.5t-57.5 24.5l-15 12l45 67q54 -41 133 -41q85 0 85 52q0 23 -35 38t-77.5 24.5t-77.5 37.5t-35 74 q0 60 47.5 99.5t134.5 39.5z" />
<glyph unicode="t" horiz-adv-x="332" d="M149 420l18 128h98l-18 -128h113l-11 -77h-113l-30 -213q-8 -56 45 -56q12 0 25.5 4t21.5 8l7 4l19 -69q-44 -31 -105 -31q-66 0 -93.5 37t-18.5 101l31 215h-75l11 77h75z" />
<glyph unicode="u" horiz-adv-x="510" d="M411 420h98l-59 -420h-64l-9 58h-4q-56 -68 -148 -68q-81 0 -119 51.5t-26 137.5l34 241h98l-33 -232q-7 -52 13 -84t67 -32q48 0 79.5 31t38.5 69z" />
<glyph unicode="v" horiz-adv-x="459" d="M264 0h-69l-131 420h102l74 -273q5 -15 3 -32h5q1 10 12 32l151 273h102z" />
<glyph unicode="w" horiz-adv-x="661" d="M498 0h-84l-36 262q-2 24 -2 39h-4q-1 -11 -13 -39l-111 -262h-85l-94 420h103l43 -273q2 -20 2 -32h7q1 10 12 34l113 271h83l37 -271q2 -26 2 -34h7q1 11 10 32l122 273h100z" />
<glyph unicode="x" horiz-adv-x="446" d="M193 218l-111 202h106l73 -143h4l110 143h111l-174 -204l123 -216h-108l-78 156h-4l-120 -156h-111z" />
<glyph unicode="y" horiz-adv-x="508" d="M412 420h95l-56 -402q-12 -89 -72 -143t-159 -54q-110 0 -159 65l58 62q38 -49 110 -49q109 0 125 116l4 27h-1q-18 -20 -52 -36t-77 -16q-84 0 -123 51.5t-27 137.5l34 241h97l-32 -232q-7 -52 13 -84t67 -32q48 0 80 30.5t39 68.5z" />
<glyph unicode="z" horiz-adv-x="425" d="M34 0l8 53l268 288h-226l11 79h354l-6 -48l-265 -293h224l-12 -79h-356z" />
<glyph unicode="{" horiz-adv-x="290" d="M85 326q62 0 74 86l23 162q20 131 163 141l3 -82q-33 -6 -47 -19t-19 -48l-23 -166q-14 -89 -78 -110l-1 -9q58 -20 47 -108l-24 -167q-4 -35 6.5 -48.5t41.5 -17.5l-26 -82q-143 9 -124 140l23 163q12 87 -50 87h-24l11 78h24z" />
<glyph unicode="|" horiz-adv-x="208" d="M131 -128h-90l115 815h90z" />
<glyph unicode="}" horiz-adv-x="290" d="M320 326l-10 -78h-25q-61 0 -73 -87l-24 -163q-19 -131 -162 -140l-3 82q32 4 46.5 17.5t19.5 48.5l23 167q13 88 77 108l2 9q-59 21 -47 110l23 166q6 35 -5 48t-42 19l26 82q142 -10 123 -141l-23 -162q-12 -86 50 -86h24z" />
<glyph unicode="~" horiz-adv-x="477" d="M356 323q20 0 40.5 6.5t31.5 12.5l10 6l24 -61q-46 -39 -115 -39q-28 0 -69.5 16t-72.5 16q-20 0 -40.5 -6t-31.5 -12l-11 -7l-22 60q47 40 113 40q28 0 70 -16t73 -16z" />
<glyph unicode="&#xa1;" horiz-adv-x="211" d="M94 361q0 29 21.5 49.5t50.5 20.5q24 0 39.5 -16t15.5 -39q0 -29 -22 -50t-50 -21q-24 0 -39.5 16t-15.5 40zM138 -177h-116l84 415h66z" />
<glyph unicode="&#xa2;" horiz-adv-x="428" d="M206 86q-60 16 -94 65t-34 117q0 105 70.5 176t175.5 74l22 82h51l-23 -85q24 -4 44 -12.5t28 -14.5l9 -6l-37 -73q-25 19 -66 25l-75 -275h10q25 0 50 7t37 14l12 7l16 -72q-49 -37 -133 -37h-14l-21 -78h-51zM178 276q0 -73 51 -103l71 261q-52 -9 -87 -52t-35 -106z " />
<glyph unicode="&#xa3;" horiz-adv-x="505" d="M455 0h-396l13 89q1 0 8 3.5t18 11.5t21 19.5t18 30t9 40.5q0 24 -5 62h-62l10 72h45q-2 13 -2 50q0 98 68 163.5t182 65.5q32 0 61 -6.5t47 -15.5t31 -18.5t19 -16.5l5 -6l-71 -78q-4 5 -11.5 12.5t-34 20t-57.5 12.5q-63 0 -97 -38t-34 -103q0 -20 2 -42h196l-10 -72 h-180q4 -30 4 -48q0 -64 -46 -120h261z" />
<glyph unicode="&#xa5;" horiz-adv-x="592" d="M536 600h110l-220 -301h125l-10 -72h-164l-9 -68h163l-10 -71h-163l-12 -88h-99l12 88h-163l10 71h163l9 68h-162l10 72h122l-135 301h111l101 -235l15 -47h2l27 47z" />
<glyph unicode="&#xa6;" horiz-adv-x="218" d="M110 330l48 343h90l-48 -343h-90zM42 -153l48 343h90l-48 -343h-90z" />
<glyph unicode="&#xa7;" horiz-adv-x="528" d="M356 613q40 0 75 -5t56 -11.5t37 -13.5t22 -12l7 -5l-57 -75q-6 4 -17.5 11t-51 18t-83.5 11q-109 0 -109 -54q0 -21 21.5 -34t72.5 -27q80 -23 126.5 -51.5t46.5 -73.5q0 -52 -45 -83q48 -31 48 -78q0 -60 -62.5 -102t-181.5 -42q-68 0 -122.5 15t-75.5 30l-21 15l57 71 q7 -5 20.5 -13t58 -21t92.5 -13q120 0 120 56q0 23 -23.5 36t-91.5 33q-72 22 -111.5 48.5t-39.5 69.5q0 50 45 77q-48 30 -48 78q0 65 60 105t175 40zM285 348q-6 2 -20 5.5t-21 5.5q-22 -8 -22 -34q0 -33 97 -62q13 -4 62 -19q20 13 20 36q0 21 -28.5 36t-87.5 32z" />
<glyph unicode="&#xa8;" horiz-adv-x="455" d="M186 704q0 24 19 42.5t43 18.5q19 0 33 -14.5t14 -34.5q0 -24 -19.5 -42.5t-43.5 -18.5q-19 0 -32.5 14.5t-13.5 34.5zM356 704q0 24 19 42.5t43 18.5q19 0 33 -14.5t14 -34.5q0 -24 -19.5 -42.5t-43.5 -18.5q-19 0 -32.5 14.5t-13.5 34.5z" />
<glyph unicode="&#xa9;" horiz-adv-x="681" d="M426 605q121 0 190 -75t69 -189q0 -143 -97 -245t-248 -102q-121 0 -191 75.5t-70 189.5q0 142 98 244t249 102zM420 563q-130 0 -213 -88t-83 -212q0 -98 59 -162.5t163 -64.5q128 0 212 88t84 211q0 99 -59.5 163.5t-162.5 64.5zM470 373q-21 25 -63 25q-48 0 -79 -32 t-31 -80q0 -37 22 -60t61 -23q19 0 36.5 6t25.5 12l8 6l26 -50q-4 -4 -12 -10t-36.5 -16.5t-60.5 -10.5q-66 0 -102.5 39t-36.5 99q0 76 51 129.5t133 53.5q32 0 57 -9.5t33 -18.5l9 -9z" />
<glyph unicode="&#xaa;" horiz-adv-x="395" d="M85 359q0 54 43 86t112 32q65 0 89 -26l2 11q7 46 -9 68t-64 22q-50 0 -94 -22l-14 58q62 26 128 26q79 0 107.5 -39.5t17.5 -114.5l-26 -186h-53l-6 36h-4q-36 -44 -119 -44q-49 0 -79.5 26t-30.5 67zM159 368q0 -23 17.5 -36.5t49.5 -13.5q38 0 65.5 19.5t27.5 44.5 q0 22 -20.5 34.5t-53.5 12.5q-41 0 -63.5 -16.5t-22.5 -44.5z" />
<glyph unicode="&#xab;" horiz-adv-x="476" d="M67 219l151 189h83l-2 -10l-146 -186l-1 -6l94 -188l-2 -10h-83l-97 189zM264 219l151 189h82l-2 -10l-146 -186l-1 -6l94 -188l-2 -10h-82l-97 189z" />
<glyph unicode="&#xac;" horiz-adv-x="552" d="M92 346h447l-48 -346h-82l37 266h-365z" />
<glyph unicode="&#xad;" horiz-adv-x="388" d="M92 269h280l-12 -80h-280z" />
<glyph unicode="&#xae;" horiz-adv-x="541" d="M553 411q0 -108 -73.5 -186t-188.5 -78q-91 0 -143 57.5t-52 144.5q0 108 73 186t187 78q92 0 144.5 -57.5t52.5 -144.5zM508 406q0 72 -42.5 118t-115.5 46q-90 0 -149.5 -61.5t-59.5 -154.5q0 -71 42.5 -117.5t113.5 -46.5q91 0 151 62.5t60 153.5zM346 485 q36 0 56.5 -17.5t20.5 -46.5q0 -47 -46 -71v-1l31 -56l-1 -10h-48l-31 56h-50l-9 -56h-45l28 202h94zM292 442l-9 -61h47q45 0 45 35q0 26 -35 26h-48z" />
<glyph unicode="&#xaf;" horiz-adv-x="526" d="M223 729h295l-8 -61h-295z" />
<glyph unicode="&#xb0;" horiz-adv-x="293" d="M241 672q45 0 72.5 -27t27.5 -68q0 -50 -37.5 -85t-92.5 -35q-46 0 -73.5 26.5t-27.5 67.5q0 50 37.5 85.5t93.5 35.5zM234 622q-29 0 -47.5 -19t-18.5 -45q0 -22 13.5 -35.5t36.5 -13.5q29 0 47.5 18.5t18.5 44.5q0 22 -13.5 36t-36.5 14z" />
<glyph unicode="&#xb1;" d="M247 178l22 160h-164l11 80h165l23 166h82l-24 -166h161l-11 -80h-161l-22 -160h-82zM469 31h-407l11 81h407z" />
<glyph unicode="&#xb2;" horiz-adv-x="341" d="M105 396l149 115q39 30 39 62q0 41 -48 41q-37 0 -82 -34l-29 52q6 5 16 12.5t42 20t64 12.5q54 0 81.5 -26t27.5 -67q0 -63 -57 -106l-103 -78h142l-8 -58h-241z" />
<glyph unicode="&#xb3;" horiz-adv-x="328" d="M142 668h227l-6 -44l-78 -84q68 -14 68 -81q0 -53 -39.5 -89t-109.5 -36q-33 0 -61.5 11.5t-39 20t-13.5 13.5l43 48q32 -32 77 -32q36 0 54.5 16.5t18.5 40.5q0 41 -51 41h-40l4 36l75 80h-138z" />
<glyph unicode="&#xb4;" horiz-adv-x="279" d="M190 497h-67l72 145l113 -13z" />
<glyph unicode="&#xb5;" horiz-adv-x="510" d="M39 -128l77 548h98l-32 -232q-7 -52 12.5 -84t66.5 -32q48 0 80 31t38 69l35 248h98l-59 -420h-65l-9 58h-4q-53 -68 -147 -68q-45 0 -73 20l-18 -138h-98z" />
<glyph unicode="&#xb6;" horiz-adv-x="536" d="M387 122h-60q-112 0 -180.5 55.5t-68.5 155.5q0 127 88.5 197.5t225.5 70.5h161l-96 -683h-99z" />
<glyph unicode="&#xb7;" horiz-adv-x="217" d="M96 351q0 30 21.5 51t49.5 21q24 0 39.5 -16t15.5 -40q0 -29 -21.5 -50t-50.5 -21q-23 0 -38.5 16t-15.5 39z" />
<glyph unicode="&#xb8;" horiz-adv-x="206" d="M50 -49l32 52h49l-19 -34q25 0 40.5 -14.5t15.5 -40.5q0 -36 -26 -59t-69 -23q-24 0 -43 7.5t-26 14.5l-7 8l29 36q28 -20 51 -20q42 0 42 32q0 24 -32 24l-24 -3z" />
<glyph unicode="&#xb9;" horiz-adv-x="215" d="M117 668h133l-46 -326h-67l38 267h-67z" />
<glyph unicode="&#xba;" horiz-adv-x="399" d="M287 613q64 0 102.5 -40.5t38.5 -108.5q0 -85 -55 -140t-135 -55q-65 0 -104 39.5t-39 106.5q0 87 55.5 142.5t136.5 55.5zM277 550q-48 0 -78.5 -36t-30.5 -92q0 -41 21 -65.5t58 -24.5q48 0 78.5 35.5t30.5 91.5q0 42 -21 66.5t-58 24.5z" />
<glyph unicode="&#xbb;" horiz-adv-x="476" d="M272 197l-151 -189h-83l1 10l148 188l1 6l-95 186l1 10h83l98 -189zM468 197l-151 -189h-83l1 10l148 188l1 6l-95 186l1 10h83l98 -189z" />
<glyph unicode="&#xbc;" horiz-adv-x="637" d="M31 0l555 600h81l-555 -600h-81zM127 600h134l-45 -326h-67l37 267h-66zM589 326l-27 -191h58l-8 -55h-58l-11 -80h-63l10 80h-165l7 42l207 204h50zM512 233h-1l-69 -73l-30 -27v-1l38 3h48z" />
<glyph unicode="&#xbd;" horiz-adv-x="695" d="M31 0l554 600h82l-556 -600h-80zM131 600h133l-45 -326h-67l37 267h-66zM417 0h241l8 58h-142l104 78q56 42 56 106q0 41 -27 67t-81 26q-32 0 -63 -11.5t-45 -22.5l-15 -11l30 -52q45 34 81 34q48 0 48 -41q0 -32 -39 -62l-148 -115z" />
<glyph unicode="&#xbe;" horiz-adv-x="706" d="M129 600h227l-6 -44l-78 -84q69 -14 69 -81q0 -53 -39.5 -89t-110.5 -36q-33 0 -61.5 11.5t-38.5 20t-13 13.5l43 48q0 -2 8 -9t27.5 -15t41.5 -8q35 0 53.5 16.5t18.5 40.5q0 41 -50 41h-41l5 36l74 80h-137zM106 0l554 600h82l-555 -600h-81zM660 326l-28 -191h58 l-7 -55h-59l-10 -80h-64l11 80h-165l6 42l207 204h51zM582 233h-1l-69 -73q-6 -6 -30 -27v-1l39 3h48z" />
<glyph unicode="&#xbf;" horiz-adv-x="424" d="M342 378q0 -27 -21.5 -47.5t-48.5 -20.5q-23 0 -38 15.5t-15 38.5q0 28 21 48.5t49 20.5q23 0 38 -15.5t15 -39.5zM381 -132q-7 -6 -21 -15.5t-59.5 -25t-93.5 -15.5q-83 0 -132 38t-49 103q0 45 17.5 80t44.5 57t54 40.5t50 41t29 47.5l6 24h74l-4 -36q-4 -31 -22 -57.5 t-40.5 -44.5t-44.5 -36t-37 -41t-15 -49q0 -33 24 -52t66 -19q29 0 58.5 10t44.5 20l15 10z" />
<glyph unicode="&#xc0;" horiz-adv-x="596" d="M278 769l116 17l24 -151h-68zM594 0h-104l-32 123h-285l-66 -123h-105l330 600h100zM217 207h221l-71 277z" />
<glyph unicode="&#xc1;" horiz-adv-x="596" d="M421 635h-67l72 145l113 -13zM594 0h-104l-32 123h-285l-66 -123h-105l330 600h100zM217 207h221l-71 277z" />
<glyph unicode="&#xc2;" horiz-adv-x="596" d="M399 716l-59 -62h-76l104 121h77l71 -121h-77zM594 0h-104l-32 123h-285l-66 -123h-105l330 600h100zM217 207h221l-71 277z" />
<glyph unicode="&#xc3;" horiz-adv-x="596" d="M468 657q-34 0 -73.5 25t-56.5 25q-18 0 -27 -9t-17 -27l-6 -16l-69 7l10 30q31 90 108 90q33 0 72 -25t57 -25q33 0 45 37l5 15l69 -6l-9 -30q-29 -91 -108 -91zM594 0h-104l-32 123h-285l-66 -123h-105l330 600h100zM217 207h221l-71 277z" />
<glyph unicode="&#xc4;" horiz-adv-x="596" d="M258 704q0 24 19 42.5t43 18.5q19 0 33 -14.5t14 -34.5q0 -24 -19.5 -42.5t-43.5 -18.5q-19 0 -32.5 14.5t-13.5 34.5zM428 704q0 24 19 42.5t43 18.5q19 0 33 -14.5t14 -34.5q0 -24 -19.5 -42.5t-43.5 -18.5q-19 0 -32.5 14.5t-13.5 34.5zM594 0h-104l-32 123h-285 l-66 -123h-105l330 600h100zM217 207h221l-71 277z" />
<glyph unicode="&#xc5;" horiz-adv-x="596" d="M409 792q47 0 73 -23t23 -61q-4 -41 -36.5 -67t-84.5 -26q-48 0 -74.5 23.5t-22.5 60.5q3 41 36 67t86 26zM402 743q-52 0 -57 -41q-3 -37 46 -37q53 0 56 40q2 19 -9.5 28.5t-35.5 9.5zM594 0h-104l-32 123h-285l-66 -123h-105l330 600h100zM217 207h221l-71 277z" />
<glyph unicode="&#xc6;" horiz-adv-x="887" d="M485 600h448l-12 -88h-335l-24 -168h278l-11 -84h-279l-24 -172h336l-13 -88h-434l18 126h-223l-101 -126h-119zM278 211h167l34 243h-5z" />
<glyph unicode="&#xc7;" horiz-adv-x="560" d="M425 613q39 0 72.5 -7.5t54.5 -18.5t36 -22.5t22 -18.5l6 -8l-68 -76q-2 2 -5.5 6t-16 14t-27 17.5t-38 13.5t-48.5 6q-95 0 -162.5 -70t-71.5 -170q-5 -85 43 -141.5t129 -56.5q41 0 79 14.5t56 28.5l17 14l46 -76q-3 -3 -8.5 -8t-25.5 -18t-42 -23t-57.5 -18t-72.5 -9 h-2l-9 -17q25 0 40.5 -14.5t15.5 -40.5q0 -36 -26 -59t-69 -23q-24 0 -43 7.5t-26 14.5l-7 8l29 36q28 -20 51 -20q42 0 42 32q0 24 -32 24l-24 -3l-13 20l23 38q-102 14 -160.5 88t-58.5 180q0 148 100 252t251 104z" />
<glyph unicode="&#xc8;" horiz-adv-x="540" d="M270 769l116 17l24 -151h-68zM488 262h-278l-24 -174h328l-13 -88h-427l84 600h427l-12 -88h-328l-23 -166h278z" />
<glyph unicode="&#xc9;" horiz-adv-x="540" d="M413 635h-67l72 145l113 -13zM488 262h-278l-24 -174h328l-13 -88h-427l84 600h427l-12 -88h-328l-23 -166h278z" />
<glyph unicode="&#xca;" horiz-adv-x="540" d="M391 716l-59 -62h-76l104 121h77l71 -121h-77zM488 262h-278l-24 -174h328l-13 -88h-427l84 600h427l-12 -88h-328l-23 -166h278z" />
<glyph unicode="&#xcb;" horiz-adv-x="540" d="M250 704q0 24 19 42.5t43 18.5q19 0 33 -14.5t14 -34.5q0 -24 -19.5 -42.5t-43.5 -18.5q-19 0 -32.5 14.5t-13.5 34.5zM420 704q0 24 19 42.5t43 18.5q19 0 33 -14.5t14 -34.5q0 -24 -19.5 -42.5t-43.5 -18.5q-19 0 -32.5 14.5t-13.5 34.5zM488 262h-278l-24 -174h328 l-13 -88h-427l84 600h427l-12 -88h-328l-23 -166h278z" />
<glyph unicode="&#xcc;" horiz-adv-x="248" d="M104 769l116 17l24 -151h-68zM173 0h-99l84 600h99z" />
<glyph unicode="&#xcd;" horiz-adv-x="248" d="M247 635h-67l72 145l113 -13zM173 0h-99l84 600h99z" />
<glyph unicode="&#xce;" horiz-adv-x="248" d="M225 716l-59 -62h-76l104 121h77l71 -121h-77zM173 0h-99l84 600h99z" />
<glyph unicode="&#xcf;" horiz-adv-x="248" d="M84 704q0 24 19 42.5t43 18.5q19 0 33 -14.5t14 -34.5q0 -24 -19.5 -42.5t-43.5 -18.5q-19 0 -32.5 14.5t-13.5 34.5zM254 704q0 24 19 42.5t43 18.5q19 0 33 -14.5t14 -34.5q0 -24 -19.5 -42.5t-43.5 -18.5q-19 0 -32.5 14.5t-13.5 34.5zM173 0h-99l84 600h99z" />
<glyph unicode="&#xd0;" horiz-adv-x="634" d="M69 348h54l35 252h212q126 0 198.5 -70.5t72.5 -188.5q0 -150 -100 -245.5t-255 -95.5h-212l36 259h-53zM245 512l-23 -164h154l-12 -89h-154l-24 -171h106q103 0 175 66.5t72 176.5q0 84 -52 132.5t-136 48.5h-106z" />
<glyph unicode="&#xd1;" horiz-adv-x="666" d="M503 657q-34 0 -73.5 25t-56.5 25q-18 0 -27 -9t-17 -27l-6 -16l-69 7l10 30q31 90 108 90q33 0 72.5 -25t56.5 -25q33 0 45 37l5 15l69 -6l-9 -30q-29 -91 -108 -91zM592 0h-74l-285 427l-60 -427h-99l84 600h75l285 -424l59 424h99z" />
<glyph unicode="&#xd2;" horiz-adv-x="675" d="M316 769l116 17l24 -151h-68zM336 -9q-120 0 -190.5 75t-70.5 193q0 144 101 245t247 101q120 0 190.5 -73.5t70.5 -190.5q0 -145 -101 -247.5t-247 -102.5zM349 87q97 0 165 70.5t68 173.5q0 80 -47 129.5t-126 49.5q-96 0 -163.5 -70t-67.5 -172q0 -81 46.5 -131 t124.5 -50z" />
<glyph unicode="&#xd3;" horiz-adv-x="675" d="M459 635h-67l72 145l113 -13zM336 -9q-120 0 -190.5 75t-70.5 193q0 144 101 245t247 101q120 0 190.5 -73.5t70.5 -190.5q0 -145 -101 -247.5t-247 -102.5zM349 87q97 0 165 70.5t68 173.5q0 80 -47 129.5t-126 49.5q-96 0 -163.5 -70t-67.5 -172q0 -81 46.5 -131 t124.5 -50z" />
<glyph unicode="&#xd4;" horiz-adv-x="675" d="M437 716l-59 -62h-76l104 121h77l71 -121h-77zM336 -9q-120 0 -190.5 75t-70.5 193q0 144 101 245t247 101q120 0 190.5 -73.5t70.5 -190.5q0 -145 -101 -247.5t-247 -102.5zM349 87q97 0 165 70.5t68 173.5q0 80 -47 129.5t-126 49.5q-96 0 -163.5 -70t-67.5 -172 q0 -81 46.5 -131t124.5 -50z" />
<glyph unicode="&#xd5;" horiz-adv-x="675" d="M506 657q-34 0 -73.5 25t-56.5 25q-18 0 -27 -9t-17 -27l-6 -16l-69 7l10 30q31 90 108 90q32 0 71.5 -25t57.5 -25q33 0 45 37l5 15l69 -6l-9 -30q-29 -91 -108 -91zM336 -9q-120 0 -190.5 75t-70.5 193q0 144 101 245t247 101q120 0 190.5 -73.5t70.5 -190.5 q0 -145 -101 -247.5t-247 -102.5zM349 87q97 0 165 70.5t68 173.5q0 80 -47 129.5t-126 49.5q-96 0 -163.5 -70t-67.5 -172q0 -81 46.5 -131t124.5 -50z" />
<glyph unicode="&#xd6;" horiz-adv-x="675" d="M296 704q0 24 19 42.5t43 18.5q19 0 33 -14.5t14 -34.5q0 -24 -19.5 -42.5t-43.5 -18.5q-19 0 -32.5 14.5t-13.5 34.5zM466 704q0 24 19 42.5t43 18.5q19 0 33 -14.5t14 -34.5q0 -24 -19.5 -42.5t-43.5 -18.5q-19 0 -32.5 14.5t-13.5 34.5zM336 -9q-120 0 -190.5 75 t-70.5 193q0 144 101 245t247 101q120 0 190.5 -73.5t70.5 -190.5q0 -145 -101 -247.5t-247 -102.5zM349 87q97 0 165 70.5t68 173.5q0 80 -47 129.5t-126 49.5q-96 0 -163.5 -70t-67.5 -172q0 -81 46.5 -131t124.5 -50z" />
<glyph unicode="&#xd7;" horiz-adv-x="502" d="M72 151l166 150l-124 149l64 56l124 -149l165 149l48 -56l-166 -149l124 -150l-64 -56l-123 149l-166 -149z" />
<glyph unicode="&#xd8;" horiz-adv-x="675" d="M769 600l-123 -111q38 -62 38 -148q0 -145 -101 -247.5t-247 -102.5q-105 0 -176 61l-58 -52h-105l118 106q-40 66 -40 153q0 144 101 245t247 101q109 0 179 -62l63 57h104zM178 268q0 -50 18 -89l327 293q-46 38 -114 38q-96 0 -163.5 -70t-67.5 -172zM582 331 q0 48 -17 85l-326 -293q44 -36 110 -36q97 0 165 70.5t68 173.5z" />
<glyph unicode="&#xd9;" horiz-adv-x="634" d="M293 769l116 17l24 -151h-68zM315 -9q-115 0 -172.5 74t-40.5 189l49 346h99l-49 -346q-11 -74 21.5 -121t105.5 -47q74 0 119.5 47t56.5 121l49 346h99l-49 -346q-17 -116 -94 -189.5t-194 -73.5z" />
<glyph unicode="&#xda;" horiz-adv-x="634" d="M436 635h-67l72 145l113 -13zM315 -9q-115 0 -172.5 74t-40.5 189l49 346h99l-49 -346q-11 -74 21.5 -121t105.5 -47q74 0 119.5 47t56.5 121l49 346h99l-49 -346q-17 -116 -94 -189.5t-194 -73.5z" />
<glyph unicode="&#xdb;" horiz-adv-x="634" d="M414 716l-59 -62h-76l104 121h77l71 -121h-77zM315 -9q-115 0 -172.5 74t-40.5 189l49 346h99l-49 -346q-11 -74 21.5 -121t105.5 -47q74 0 119.5 47t56.5 121l49 346h99l-49 -346q-17 -116 -94 -189.5t-194 -73.5z" />
<glyph unicode="&#xdc;" horiz-adv-x="634" d="M273 704q0 24 19 42.5t43 18.5q19 0 33 -14.5t14 -34.5q0 -24 -19.5 -42.5t-43.5 -18.5q-19 0 -32.5 14.5t-13.5 34.5zM443 704q0 24 19 42.5t43 18.5q19 0 33 -14.5t14 -34.5q0 -24 -19.5 -42.5t-43.5 -18.5q-19 0 -32.5 14.5t-13.5 34.5zM315 -9q-115 0 -172.5 74 t-40.5 189l49 346h99l-49 -346q-11 -74 21.5 -121t105.5 -47q74 0 119.5 47t56.5 121l49 346h99l-49 -346q-17 -116 -94 -189.5t-194 -73.5z" />
<glyph unicode="&#xdd;" horiz-adv-x="537" d="M391 635h-67l72 145l113 -13zM509 600h110l-269 -369l-32 -231h-99l32 230l-165 370h111l101 -235l15 -47h1l28 47z" />
<glyph unicode="&#xde;" horiz-adv-x="581" d="M245 506h152q97 0 151 -45.5t54 -128.5q0 -114 -74.5 -177.5t-195.5 -63.5h-146l-13 -91h-99l84 600h99zM499 316q0 50 -32.5 75.5t-90.5 25.5h-144l-34 -239h145q73 0 114.5 34.5t41.5 103.5z" />
<glyph unicode="&#xdf;" horiz-adv-x="498" d="M284 333q112 19 112 115q0 32 -19.5 52.5t-54.5 20.5q-40 0 -69 -27.5t-36 -76.5l-59 -417h-98l57 406q14 96 70.5 147.5t150.5 51.5q75 0 119 -41.5t44 -106.5q0 -49 -24.5 -87.5t-65.5 -58.5q38 -13 57.5 -46.5t19.5 -77.5q0 -87 -59 -141t-156 -54q-22 0 -38.5 2 t-22.5 4l-6 2l16 68q1 0 6.5 -1t16.5 -1.5t24 -0.5q55 0 89 31.5t34 81.5q0 40 -25.5 62.5t-70.5 22.5h-22z" />
<glyph unicode="&#xe0;" d="M218 631l116 17l24 -151h-68zM432 358l23 62h66l-59 -420h-66l-6 62h-4q-2 -3 -5.5 -8t-17.5 -17t-30.5 -21.5t-44 -17.5t-58.5 -8q-75 0 -122 51t-47 135q0 109 67.5 181.5t161.5 72.5q31 0 57 -7.5t40 -18t24 -21t13 -17.5l3 -8h5zM402 233q0 53 -28 84.5t-74 31.5 q-57 0 -97.5 -45.5t-40.5 -114.5q0 -52 27 -85t72 -33q59 0 100 45t41 117z" />
<glyph unicode="&#xe1;" d="M349 497h-67l72 145l113 -13zM432 358l23 62h66l-59 -420h-66l-6 62h-4q-2 -3 -5.5 -8t-17.5 -17t-30.5 -21.5t-44 -17.5t-58.5 -8q-75 0 -122 51t-47 135q0 109 67.5 181.5t161.5 72.5q31 0 57 -7.5t40 -18t24 -21t13 -17.5l3 -8h5zM402 233q0 53 -28 84.5t-74 31.5 q-57 0 -97.5 -45.5t-40.5 -114.5q0 -52 27 -85t72 -33q59 0 100 45t41 117z" />
<glyph unicode="&#xe2;" d="M333 579l-59 -62h-76l104 121h77l71 -121h-77zM432 358l23 62h66l-59 -420h-66l-6 62h-4q-2 -3 -5.5 -8t-17.5 -17t-30.5 -21.5t-44 -17.5t-58.5 -8q-75 0 -122 51t-47 135q0 109 67.5 181.5t161.5 72.5q31 0 57 -7.5t40 -18t24 -21t13 -17.5l3 -8h5zM402 233 q0 53 -28 84.5t-74 31.5q-57 0 -97.5 -45.5t-40.5 -114.5q0 -52 27 -85t72 -33q59 0 100 45t41 117z" />
<glyph unicode="&#xe3;" d="M396 499q-34 0 -73.5 25t-56.5 25q-18 0 -27 -9t-17 -27l-6 -16l-69 7l10 30q31 90 108 90q33 0 72 -25t57 -25q33 0 45 37l5 15l69 -6l-9 -30q-29 -91 -108 -91zM432 358l23 62h66l-59 -420h-66l-6 62h-4q-2 -3 -5.5 -8t-17.5 -17t-30.5 -21.5t-44 -17.5t-58.5 -8 q-75 0 -122 51t-47 135q0 109 67.5 181.5t161.5 72.5q31 0 57 -7.5t40 -18t24 -21t13 -17.5l3 -8h5zM402 233q0 53 -28 84.5t-74 31.5q-57 0 -97.5 -45.5t-40.5 -114.5q0 -52 27 -85t72 -33q59 0 100 45t41 117z" />
<glyph unicode="&#xe4;" d="M186 545q0 24 19 42.5t43 18.5q19 0 33 -14.5t14 -34.5q0 -24 -19.5 -42.5t-43.5 -18.5q-19 0 -32.5 14.5t-13.5 34.5zM356 545q0 24 19 42.5t43 18.5q19 0 33 -14.5t14 -34.5q0 -24 -19.5 -42.5t-43.5 -18.5q-19 0 -32.5 14.5t-13.5 34.5zM432 358l23 62h66l-59 -420 h-66l-6 62h-4q-2 -3 -5.5 -8t-17.5 -17t-30.5 -21.5t-44 -17.5t-58.5 -8q-75 0 -122 51t-47 135q0 109 67.5 181.5t161.5 72.5q31 0 57 -7.5t40 -18t24 -21t13 -17.5l3 -8h5zM402 233q0 53 -28 84.5t-74 31.5q-57 0 -97.5 -45.5t-40.5 -114.5q0 -52 27 -85t72 -33 q59 0 100 45t41 117z" />
<glyph unicode="&#xe5;" d="M344 672q47 0 73 -23t23 -61q-4 -41 -36.5 -67t-84.5 -26q-48 0 -74.5 23.5t-22.5 60.5q3 41 36 67t86 26zM337 623q-52 0 -57 -41q-3 -37 46 -37q53 0 56 40q2 19 -9.5 28.5t-35.5 9.5zM432 358l23 62h66l-59 -420h-66l-6 62h-4q-2 -3 -5.5 -8t-17.5 -17t-30.5 -21.5 t-44 -17.5t-58.5 -8q-75 0 -122 51t-47 135q0 109 67.5 181.5t161.5 72.5q31 0 57 -7.5t40 -18t24 -21t13 -17.5l3 -8h5zM402 233q0 53 -28 84.5t-74 31.5q-57 0 -97.5 -45.5t-40.5 -114.5q0 -52 27 -85t72 -33q59 0 100 45t41 117z" />
<glyph unicode="&#xe6;" horiz-adv-x="740" d="M694 40q-6 -6 -18 -14.5t-53.5 -22.5t-89.5 -14q-109 0 -158 73q-65 -72 -179 -72q-76 0 -115 32.5t-39 82.5q0 69 52.5 111t156.5 42q51 0 98 -15l2 16q6 46 -18.5 68.5t-77.5 22.5q-28 0 -57.5 -8.5t-45.5 -17.5l-15 -8l-23 76q69 38 163 38q109 0 147 -64 q64 64 155 64q85 0 127.5 -54t35.5 -142q0 -8 -1.5 -17l-2.5 -15t-1 -7h-298l-1 -4q-4 -56 27 -89t86 -33q32 0 61.5 9.5t43.5 18.5l13 9zM566 354q-85 0 -115 -94h198q3 94 -83 94zM214 60q52 0 84.5 28.5t38.5 70.5l3 22q-34 16 -89 16q-112 0 -112 -80q0 -26 19 -41.5 t56 -15.5z" />
<glyph unicode="&#xe7;" horiz-adv-x="409" d="M311 430q40 0 71 -9t42 -19l11 -9l-37 -72q-35 28 -91 28q-61 0 -103.5 -44.5t-42.5 -117.5q0 -54 29.5 -85t77.5 -31q25 0 49.5 7t36.5 14l13 7l16 -71q-40 -34 -122 -37h-2l-14 -26q25 -1 40.5 -15.5t15.5 -39.5q0 -36 -26 -59t-69 -23q-24 0 -43 7.5t-25 14.5l-7 8 l28 36q28 -20 51 -20q42 0 42 32q0 24 -32 24l-24 -3l-13 19l29 48q-70 10 -110.5 60t-40.5 125q0 108 71 179.5t179 71.5z" />
<glyph unicode="&#xe8;" horiz-adv-x="459" d="M350 497h-68l-72 134l116 17zM298 430q85 0 127.5 -54t35.5 -142q-1 -25 -5 -39h-299q-5 -63 25 -95t87 -32q32 0 61.5 9t43.5 19l13 9l26 -67q-6 -6 -18 -14t-54 -22t-89 -14q-90 0 -140.5 52.5t-50.5 137.5q0 106 68 179t169 73zM368 260q2 94 -83 94q-84 0 -115 -94 h198z" />
<glyph unicode="&#xe9;" horiz-adv-x="459" d="M459 629l-118 -132h-67l72 145zM298 430q85 0 127.5 -54t35.5 -142q-1 -25 -5 -39h-299q-5 -63 25 -95t87 -32q32 0 61.5 9t43.5 19l13 9l26 -67q-6 -6 -18 -14t-54 -22t-89 -14q-90 0 -140.5 52.5t-50.5 137.5q0 106 68 179t169 73zM368 260q2 94 -83 94q-84 0 -115 -94 h198z" />
<glyph unicode="&#xea;" horiz-adv-x="459" d="M325 579l-59 -62h-76l104 121h77l71 -121h-77zM298 430q85 0 127.5 -54t35.5 -142q-1 -25 -5 -39h-299q-5 -63 25 -95t87 -32q32 0 61.5 9t43.5 19l13 9l26 -67q-6 -6 -18 -14t-54 -22t-89 -14q-90 0 -140.5 52.5t-50.5 137.5q0 106 68 179t169 73zM368 260q2 94 -83 94 q-84 0 -115 -94h198z" />
<glyph unicode="&#xeb;" horiz-adv-x="459" d="M224 496q-19 0 -32.5 14.5t-13.5 34.5q0 24 19 42.5t43 18.5q19 0 33 -14.5t14 -34.5q0 -24 -19.5 -42.5t-43.5 -18.5zM394 496q-19 0 -32.5 14.5t-13.5 34.5q0 24 19 42.5t43 18.5q19 0 33 -14.5t14 -34.5q0 -24 -19.5 -42.5t-43.5 -18.5zM298 430q85 0 127.5 -54 t35.5 -142q-1 -25 -5 -39h-299q-5 -63 25 -95t87 -32q32 0 61.5 9t43.5 19l13 9l26 -67q-6 -6 -18 -14t-54 -22t-89 -14q-90 0 -140.5 52.5t-50.5 137.5q0 106 68 179t169 73zM368 260q2 94 -83 94q-84 0 -115 -94h198z" />
<glyph unicode="&#xec;" horiz-adv-x="221" d="M84 631l116 17l24 -151h-68zM120 420h98l-59 -420h-98z" />
<glyph unicode="&#xed;" horiz-adv-x="221" d="M215 497h-67l72 145l113 -13zM120 420h98l-59 -420h-98z" />
<glyph unicode="&#xee;" horiz-adv-x="221" d="M199 579l-59 -62h-76l104 121h77l71 -121h-77zM120 420h98l-59 -420h-98z" />
<glyph unicode="&#xef;" horiz-adv-x="221" d="M52 545q0 24 19 42.5t43 18.5q19 0 33 -14.5t14 -34.5q0 -24 -19.5 -42.5t-43.5 -18.5q-19 0 -32.5 14.5t-13.5 34.5zM222 545q0 24 19 42.5t43 18.5q19 0 33 -14.5t14 -34.5q0 -24 -19.5 -42.5t-43.5 -18.5q-19 0 -32.5 14.5t-13.5 34.5zM120 420h98l-59 -420h-98z" />
<glyph unicode="&#xf0;" horiz-adv-x="504" d="M250 -10q-88 0 -138.5 50t-50.5 136q0 111 70 182t181 71q14 0 38 -4v5q-12 18 -22 40l-29 60l-121 -69l-24 56l120 67l-62 133l2 11h93l47 -99l125 71l25 -55l-124 -71l91 -192q31 -68 31 -142q0 -111 -71 -180.5t-181 -69.5zM403 234q0 54 -27.5 84t-74.5 30 q-60 0 -100 -44t-40 -118q0 -54 27.5 -85t72.5 -31q61 0 101.5 45.5t40.5 118.5z" />
<glyph unicode="&#xf1;" horiz-adv-x="513" d="M395 499q-34 0 -73.5 25t-56.5 25q-18 0 -27 -9t-17 -27l-6 -16l-69 7l10 30q31 90 108 90q32 0 72 -25t57 -25q33 0 45 37l5 15l69 -6l-9 -30q-29 -91 -108 -91zM119 420h64l4 -60h5q30 36 65 53t87 17q81 0 120 -51.5t27 -137.5l-33 -241h-98l32 232q7 50 -15 82 t-69 32q-46 0 -77 -30.5t-38 -67.5l-35 -248h-98z" />
<glyph unicode="&#xf2;" horiz-adv-x="499" d="M220 631l116 17l24 -151h-68zM497 238q0 -109 -74 -178.5t-175 -69.5q-82 0 -134.5 51.5t-52.5 136.5q0 110 74 181t175 71q82 0 134.5 -53t52.5 -139zM259 68q58 0 100 45.5t42 118.5q0 54 -28.5 87t-73.5 33q-58 0 -100 -47t-42 -119q0 -54 28.5 -86t73.5 -32z" />
<glyph unicode="&#xf3;" horiz-adv-x="499" d="M351 497h-67l72 145l113 -13zM497 238q0 -109 -74 -178.5t-175 -69.5q-82 0 -134.5 51.5t-52.5 136.5q0 110 74 181t175 71q82 0 134.5 -53t52.5 -139zM259 68q58 0 100 45.5t42 118.5q0 54 -28.5 87t-73.5 33q-58 0 -100 -47t-42 -119q0 -54 28.5 -86t73.5 -32z" />
<glyph unicode="&#xf4;" horiz-adv-x="499" d="M335 579l-59 -62h-76l104 121h77l71 -121h-77zM497 238q0 -109 -74 -178.5t-175 -69.5q-82 0 -134.5 51.5t-52.5 136.5q0 110 74 181t175 71q82 0 134.5 -53t52.5 -139zM259 68q58 0 100 45.5t42 118.5q0 54 -28.5 87t-73.5 33q-58 0 -100 -47t-42 -119q0 -54 28.5 -86 t73.5 -32z" />
<glyph unicode="&#xf5;" horiz-adv-x="499" d="M398 499q-34 0 -73.5 25t-56.5 25q-18 0 -27 -9t-17 -27l-6 -16l-69 7l10 30q31 90 108 90q33 0 72 -25t57 -25q33 0 45 37l5 15l69 -6l-9 -30q-29 -91 -108 -91zM497 238q0 -109 -74 -178.5t-175 -69.5q-82 0 -134.5 51.5t-52.5 136.5q0 110 74 181t175 71 q82 0 134.5 -53t52.5 -139zM259 68q58 0 100 45.5t42 118.5q0 54 -28.5 87t-73.5 33q-58 0 -100 -47t-42 -119q0 -54 28.5 -86t73.5 -32z" />
<glyph unicode="&#xf6;" horiz-adv-x="499" d="M188 545q0 24 19 42.5t43 18.5q19 0 33 -14.5t14 -34.5q0 -24 -19.5 -42.5t-43.5 -18.5q-19 0 -32.5 14.5t-13.5 34.5zM358 545q0 24 19 42.5t43 18.5q19 0 33 -14.5t14 -34.5q0 -24 -19.5 -42.5t-43.5 -18.5q-19 0 -32.5 14.5t-13.5 34.5zM497 238q0 -109 -74 -178.5 t-175 -69.5q-82 0 -134.5 51.5t-52.5 136.5q0 110 74 181t175 71q82 0 134.5 -53t52.5 -139zM259 68q58 0 100 45.5t42 118.5q0 54 -28.5 87t-73.5 33q-58 0 -100 -47t-42 -119q0 -54 28.5 -86t73.5 -32z" />
<glyph unicode="&#xf7;" horiz-adv-x="487" d="M245 455q0 29 22 50t51 21q23 0 38.5 -16t15.5 -40q0 -29 -22 -49.5t-50 -20.5q-25 0 -40 15.5t-15 39.5zM96 336h389l-11 -80h-389zM199 127q0 29 21.5 50t50.5 21q23 0 39 -16t16 -40q0 -29 -22 -49.5t-50 -20.5q-24 0 -39.5 15.5t-15.5 39.5z" />
<glyph unicode="&#xf8;" horiz-adv-x="500" d="M310 430q71 0 121 -42l34 32h70l-72 -65q34 -49 34 -117q0 -109 -74 -178.5t-175 -69.5q-74 0 -124 42l-36 -32h-70l74 67q-31 47 -31 111q0 110 74 181t175 71zM299 352q-58 0 -100 -47t-42 -119q0 -31 10 -52l198 192q-26 26 -66 26zM259 68q58 0 100 45.5t42 118.5 q0 32 -12 56l-199 -192q26 -28 69 -28z" />
<glyph unicode="&#xf9;" horiz-adv-x="510" d="M213 631l116 17l24 -151h-68zM411 420h98l-59 -420h-64l-9 58h-4q-56 -68 -148 -68q-81 0 -119 51.5t-26 137.5l34 241h98l-33 -232q-7 -52 13 -84t67 -32q48 0 79.5 31t38.5 69z" />
<glyph unicode="&#xfa;" horiz-adv-x="510" d="M344 497h-67l72 145l113 -13zM411 420h98l-59 -420h-64l-9 58h-4q-56 -68 -148 -68q-81 0 -119 51.5t-26 137.5l34 241h98l-33 -232q-7 -52 13 -84t67 -32q48 0 79.5 31t38.5 69z" />
<glyph unicode="&#xfb;" horiz-adv-x="510" d="M328 579l-59 -62h-76l104 121h77l71 -121h-77zM411 420h98l-59 -420h-64l-9 58h-4q-56 -68 -148 -68q-81 0 -119 51.5t-26 137.5l34 241h98l-33 -232q-7 -52 13 -84t67 -32q48 0 79.5 31t38.5 69z" />
<glyph unicode="&#xfc;" horiz-adv-x="510" d="M181 545q0 24 19 42.5t43 18.5q19 0 33 -14.5t14 -34.5q0 -24 -19.5 -42.5t-43.5 -18.5q-19 0 -32.5 14.5t-13.5 34.5zM351 545q0 24 19 42.5t43 18.5q19 0 33 -14.5t14 -34.5q0 -24 -19.5 -42.5t-43.5 -18.5q-19 0 -32.5 14.5t-13.5 34.5zM411 420h98l-59 -420h-64 l-9 58h-4q-56 -68 -148 -68q-81 0 -119 51.5t-26 137.5l34 241h98l-33 -232q-7 -52 13 -84t67 -32q48 0 79.5 31t38.5 69z" />
<glyph unicode="&#xfd;" horiz-adv-x="508" d="M354 497h-67l72 145l113 -13zM412 420h95l-56 -402q-12 -89 -72 -143t-159 -54q-110 0 -159 65l58 62q38 -49 110 -49q109 0 125 116l4 27h-1q-18 -20 -52 -36t-77 -16q-84 0 -123 51.5t-27 137.5l34 241h97l-32 -232q-7 -52 13 -84t67 -32q48 0 80 30.5t39 68.5z" />
<glyph unicode="&#xfe;" d="M166 53l-29 -209h-98l106 756h98l-33 -228h4q5 6 15 16t46.5 26t78.5 16q75 0 120.5 -50.5t45.5 -134.5q0 -110 -67 -182.5t-160 -72.5q-27 0 -49.5 6.5t-35 15.5t-21.5 18.5t-13 15.5l-3 7h-5zM181 187q0 -53 28 -84.5t73 -31.5q58 0 98 45.5t40 114.5q0 52 -27.5 85 t-71.5 33q-58 0 -99 -45t-41 -117z" />
<glyph unicode="&#xff;" horiz-adv-x="508" d="M191 545q0 24 19 42.5t43 18.5q19 0 33 -14.5t14 -34.5q0 -24 -19.5 -42.5t-43.5 -18.5q-19 0 -32.5 14.5t-13.5 34.5zM361 545q0 24 19 42.5t43 18.5q19 0 33 -14.5t14 -34.5q0 -24 -19.5 -42.5t-43.5 -18.5q-19 0 -32.5 14.5t-13.5 34.5zM412 420h95l-56 -402 q-12 -89 -72 -143t-159 -54q-110 0 -159 65l58 62q38 -49 110 -49q109 0 125 116l4 27h-1q-18 -20 -52 -36t-77 -16q-84 0 -123 51.5t-27 137.5l34 241h97l-32 -232q-7 -52 13 -84t67 -32q48 0 80 30.5t39 68.5z" />
<glyph unicode="&#x152;" horiz-adv-x="1006" d="M1039 512h-328l-23 -166h278l-12 -84h-278l-24 -174h328l-13 -88h-427l9 63q-94 -72 -213 -72q-120 0 -190.5 75t-70.5 193q0 144 101 245t247 101q120 0 191 -74l10 69h427zM349 87q97 0 165 70.5t68 173.5q0 80 -47 129.5t-126 49.5q-96 0 -163.5 -70t-67.5 -172 q0 -81 46.5 -131t124.5 -50z" />
<glyph unicode="&#x153;" horiz-adv-x="812" d="M768 38q-6 -6 -18 -14t-54 -22t-90 -14q-120 0 -167 90q-75 -88 -192 -88q-82 0 -135 51.5t-53 136.5q0 109 74.5 180.5t175.5 71.5q52 0 94.5 -23.5t66.5 -65.5q68 89 183 89q85 0 127.5 -54t35.5 -142q-1 -10 -3 -24t-2 -15h-299v-5q-5 -58 25.5 -90t86.5 -32 q32 0 61.5 9t42.5 19l14 9zM640 354q-85 0 -116 -94h198q3 94 -82 94zM258 68q58 0 99.5 45.5t41.5 118.5q0 54 -28 87t-73 33q-59 0 -100.5 -46.5t-41.5 -119.5q0 -54 28.5 -86t73.5 -32z" />
<glyph unicode="&#x178;" horiz-adv-x="537" d="M230 704q0 24 19.5 42.5t42.5 18.5q20 0 34 -14.5t14 -34.5q0 -24 -19.5 -42.5t-43.5 -18.5q-19 0 -33 14.5t-14 34.5zM401 704q0 24 19 42.5t43 18.5q19 0 32.5 -14.5t13.5 -34.5q0 -24 -19 -42.5t-43 -18.5q-19 0 -32.5 14.5t-13.5 34.5zM509 600h110l-269 -369 l-32 -231h-99l32 230l-165 370h111l101 -235l15 -47h1l28 47z" />
<glyph unicode="&#x2c6;" horiz-adv-x="371" d="M293 717l-59 -62h-76l104 121h77l71 -121h-77z" />
<glyph unicode="&#x2dc;" horiz-adv-x="485" d="M406 657q-34 0 -73.5 25t-56.5 25q-18 0 -27 -9t-17 -27l-6 -16l-69 7l10 30q31 90 108 90q33 0 72 -25t57 -25q33 0 45 37l5 15l69 -6l-9 -30q-29 -91 -108 -91z" />
<glyph unicode="&#x2000;" horiz-adv-x="399" />
<glyph unicode="&#x2001;" horiz-adv-x="798" />
<glyph unicode="&#x2002;" horiz-adv-x="399" />
<glyph unicode="&#x2003;" horiz-adv-x="798" />
<glyph unicode="&#x2004;" horiz-adv-x="266" />
<glyph unicode="&#x2005;" horiz-adv-x="199" />
<glyph unicode="&#x2006;" horiz-adv-x="133" />
<glyph unicode="&#x2007;" horiz-adv-x="133" />
<glyph unicode="&#x2008;" horiz-adv-x="99" />
<glyph unicode="&#x2009;" horiz-adv-x="159" />
<glyph unicode="&#x200a;" horiz-adv-x="44" />
<glyph unicode="&#x2010;" horiz-adv-x="388" d="M92 269h280l-12 -80h-280z" />
<glyph unicode="&#x2011;" horiz-adv-x="388" d="M92 269h280l-12 -80h-280z" />
<glyph unicode="&#x2012;" horiz-adv-x="388" d="M92 269h280l-12 -80h-280z" />
<glyph unicode="&#x2013;" horiz-adv-x="458" d="M105 328h335l-11 -81h-335z" />
<glyph unicode="&#x2014;" horiz-adv-x="711" d="M105 328h588l-11 -81h-588z" />
<glyph unicode="&#x2018;" horiz-adv-x="220" d="M153 368q-25 0 -40 16.5t-13 41.5l1 9q5 61 47.5 107t106.5 58l8 -53q-68 -14 -80 -61q17 -4 28 -18t11 -33q0 -27 -21 -47t-48 -20z" />
<glyph unicode="&#x2019;" horiz-adv-x="222" d="M213 600q25 0 39.5 -16.5t13.5 -41.5l-1 -9q-4 -61 -47 -107t-108 -58l-8 53q67 14 81 60q-17 5 -28 19t-11 33q0 27 20.5 47t48.5 20z" />
<glyph unicode="&#x201a;" horiz-adv-x="213" d="M121 109q25 0 39.5 -16.5t12.5 -41.5v-9q-5 -61 -48 -107t-107 -58l-8 53q67 14 81 61q-17 4 -28 18t-11 33q0 28 20.5 47.5t48.5 19.5z" />
<glyph unicode="&#x201c;" horiz-adv-x="386" d="M153 368q-25 0 -39.5 16.5t-12.5 41.5v9q5 61 47.5 107t106.5 58l8 -53q-68 -16 -80 -61q17 -4 28 -18t11 -33q0 -27 -21 -47t-48 -20zM319 368q-26 0 -40.5 16.5t-12.5 41.5l1 9q5 61 47.5 107t106.5 58l8 -53q-69 -16 -81 -61q18 -4 28.5 -18t10.5 -33q0 -27 -20.5 -47 t-47.5 -20z" />
<glyph unicode="&#x201d;" horiz-adv-x="382" d="M206 600q26 0 40.5 -16.5t12.5 -41.5v-9q-4 -61 -47 -107t-108 -58l-8 53q67 14 81 60q-17 5 -28 19t-11 33q0 27 20.5 47t47.5 20zM372 600q25 0 40 -16.5t13 -41.5l-1 -9q-4 -61 -47 -107t-107 -58l-8 53q66 14 80 60q-17 5 -28 19t-11 33q0 27 21 47t48 20z" />
<glyph unicode="&#x201e;" horiz-adv-x="377" d="M118 109q26 0 40.5 -16.5t12.5 -41.5v-9q-5 -61 -48 -107t-107 -58l-8 53q67 14 81 61q-18 4 -29 18t-11 33q0 27 21 47t48 20zM284 109q25 0 39.5 -16.5t13.5 -41.5l-1 -9q-5 -61 -48 -107t-107 -58l-8 53q67 14 81 61q-17 4 -28 18t-11 33q0 27 21 47t48 20z" />
<glyph unicode="&#x2022;" horiz-adv-x="319" d="M203 308q32 0 52.5 -22t20.5 -53q0 -38 -29 -66t-67 -28q-33 0 -54 21.5t-21 52.5q0 39 29.5 67t68.5 28z" />
<glyph unicode="&#x2026;" horiz-adv-x="732" d="M56 50q0 31 23 54t55 23q25 0 42 -17.5t17 -43.5q0 -31 -23.5 -53t-54.5 -22q-26 0 -42.5 17t-16.5 42zM305 50q0 31 23.5 54t54.5 23q26 0 43 -17.5t17 -43.5q0 -31 -23.5 -53t-55.5 -22q-25 0 -42 17t-17 42zM555 50q0 31 23 54t55 23q25 0 42 -17.5t17 -43.5 q0 -31 -23.5 -53t-54.5 -22q-26 0 -42.5 17t-16.5 42z" />
<glyph unicode="&#x202f;" horiz-adv-x="159" />
<glyph unicode="&#x2039;" horiz-adv-x="280" d="M67 219l151 189h83l-2 -10l-146 -186l-1 -6l94 -188l-2 -10h-83l-97 189z" />
<glyph unicode="&#x203a;" horiz-adv-x="280" d="M272 197l-151 -189h-83l1 10l148 188l1 6l-95 186l1 10h83l98 -189z" />
<glyph unicode="&#x205f;" horiz-adv-x="199" />
<glyph unicode="&#x20ac;" horiz-adv-x="578" d="M456 613q52 0 92 -18t54 -36l15 -18l-65 -76q-1 2 -4 5.5t-13 13t-21.5 16.5t-30.5 12.5t-40 5.5q-110 0 -162 -108h177l-9 -71h-194q-9 -43 -9 -59q-1 -6 -1 -13h194l-10 -71h-179q19 -115 132 -115q33 0 64 13.5t46 26.5l14 13l43 -74q-7 -8 -21 -20t-61 -32t-99 -20 q-101 0 -157.5 57.5t-66.5 150.5h-79l10 71h67q2 24 4 35q2 14 7 37h-68l10 71h79q37 92 109.5 147.5t172.5 55.5z" />
<glyph unicode="&#x2122;" horiz-adv-x="718" d="M359 543h-93l-37 -262h-64l37 262h-93l8 57h250zM377 281l45 319h46l90 -144l134 144h44l-45 -319h-65l29 197l-96 -105h-24l-65 104l-28 -196h-65z" />
<glyph unicode="&#x25fc;" horiz-adv-x="420" d="M0 420h420v-420h-420v420z" />
</font>
</defs>
</svg>
