<?xml version="1.0" standalone="no"?>
<!DOCTYPE svg PUBLIC "-//W3C//DTD SVG 1.1//EN" "http://www.w3.org/Graphics/SVG/1.1/DTD/svg11.dtd" >
<svg xmlns="http://www.w3.org/2000/svg">
<metadata></metadata>
<defs>
<font id="textathin_italic" horiz-adv-x="574" >
<font-face units-per-em="1000" ascent="800" descent="-200" />
<missing-glyph horiz-adv-x="243" />
<glyph horiz-adv-x="0" />
<glyph horiz-adv-x="333" />
<glyph horiz-adv-x="0" />
<glyph horiz-adv-x="0" />
<glyph unicode="&#xd;" horiz-adv-x="0" />
<glyph unicode=" "  horiz-adv-x="243" />
<glyph unicode="&#x09;" horiz-adv-x="243" />
<glyph unicode="&#xa0;" horiz-adv-x="243" />
<glyph unicode="!" horiz-adv-x="173" d="M111 132h-12l61 468h21zM62 15q0 11 9.5 20t20.5 9q10 0 16.5 -7t6.5 -16q0 -11 -9.5 -20t-20.5 -9q-10 0 -16.5 7t-6.5 16z" />
<glyph unicode="&#x22;" horiz-adv-x="261" d="M142 475h-12l43 209h31zM245 475h-12l44 209h31z" />
<glyph unicode="#" horiz-adv-x="593" d="M491 408h123l-7 -20h-123l-72 -197h117l-7 -20h-118l-62 -171h-22l62 171h-174l-62 -171h-22l62 171h-126l7 20h127l71 197h-120l7 20h120l65 175h23l-65 -175h173l65 175h23zM216 191h174l71 197h-173z" />
<glyph unicode="$" horiz-adv-x="507" d="M75 68q6 -7 18.5 -17t56 -27t94.5 -17l41 295l-7 2q-38 12 -61 22t-48.5 26t-37.5 39t-12 53q0 75 59 120.5t151 48.5l15 103h20l-15 -103q57 -1 101 -14t59 -26l15 -13l-15 -18q-5 5 -16 13.5t-53 22.5t-94 15l-38 -275q40 -13 64.5 -23.5t52.5 -28t41.5 -43t13.5 -59.5 q0 -75 -55 -124t-164 -53l-13 -94h-20l13 94q-55 1 -100.5 17t-62.5 32l-18 15zM140 448q0 -21 8.5 -38.5t21 -29t34 -23t39 -18t45.5 -15.5l38 268q-78 -3 -132 -41t-54 -103zM459 161q0 28 -12 50t-36 38t-47.5 26t-58.5 21l-41 -289q97 4 146 45t49 109z" />
<glyph unicode="%" horiz-adv-x="643" d="M246 613q48 0 74 -34.5t26 -87.5q0 -69 -39 -120.5t-102 -51.5q-47 0 -73 35.5t-26 87.5q0 69 39 120t101 51zM661 600l-560 -600h-26l560 600h26zM243 593q-51 0 -83 -44.5t-32 -104.5q0 -45 20.5 -75t59.5 -30q52 0 84 45t32 104q0 46 -21 75.5t-60 29.5zM520 286 q48 0 74 -34.5t26 -87.5q0 -69 -39 -120.5t-102 -51.5q-47 0 -73 35t-26 88q0 69 39 120t101 51zM517 266q-51 0 -83 -44.5t-32 -104.5q0 -45 20.5 -75t59.5 -30q52 0 84.5 45t32.5 104q0 46 -21 75.5t-61 29.5z" />
<glyph unicode="&#x26;" d="M574 303q-17 -118 -103 -213l75 -90h-26l-63 74q-87 -87 -204 -87q-82 0 -131.5 39.5t-49.5 104.5q0 38 13.5 68.5t41.5 54t52.5 38.5t64.5 35l-6 7q-60 74 -60 131q0 65 44.5 106.5t110.5 41.5q52 0 83.5 -31t31.5 -81q0 -34 -13 -61t-43 -49.5t-52 -35.5t-66 -34 l184 -218q40 44 65.5 98.5t31.5 103.5zM199 466q0 -54 58 -124l5 -6q43 20 66.5 33t49.5 33.5t37.5 44t11.5 53.5q0 42 -26.5 68t-71.5 26q-55 0 -92.5 -35.5t-37.5 -92.5zM255 6q108 0 190 82l-189 225q-37 -19 -61.5 -33.5t-50.5 -36t-38.5 -48.5t-12.5 -60 q0 -56 45.5 -92.5t116.5 -36.5z" />
<glyph unicode="'" horiz-adv-x="157" d="M142 475h-12l43 209h31z" />
<glyph unicode="(" horiz-adv-x="270" d="M103 218q0 -210 140 -338l-12 -15q-52 50 -79 92q-70 110 -70 259q0 305 258 485q2 1 3 2t2.5 2t2.5 1.5t2 1.5l7 -15q-2 -1 -7 -5q-247 -176 -247 -470z" />
<glyph unicode=")" horiz-adv-x="270" d="M247 356q0 214 -140 337l12 15q56 -52 85 -100q65 -107 65 -249q0 -306 -259 -487q-6 -5 -9 -7l-8 15q76 54 120 105q134 155 134 371z" />
<glyph unicode="*" horiz-adv-x="402" d="M265 541l-132 35l16 36l123 -56l9 144h37l-31 -144l138 56l5 -36l-139 -34l73 -114l-33 -22l-54 127l-91 -127l-27 22z" />
<glyph unicode="+" horiz-adv-x="457" d="M284 312h164l-3 -20h-164l-24 -169h-21l24 169h-166l3 20h166l24 172h21z" />
<glyph unicode="," horiz-adv-x="192" d="M14 -83q34 6 58 27t28 48q-27 0 -27 25q0 11 7.5 19t20.5 8q10 0 17 -7t7 -19q0 -45 -28.5 -76t-81.5 -43z" />
<glyph unicode="-" horiz-adv-x="401" d="M101 240h267l-3 -20h-267z" />
<glyph unicode="." horiz-adv-x="186" d="M99 44q9 0 15.5 -7t6.5 -16q0 -11 -9 -20t-20 -9q-10 0 -16.5 7t-6.5 16q0 11 9.5 20t20.5 9z" />
<glyph unicode="/" horiz-adv-x="516" d="M7 -111l573 894h22l-573 -894h-22z" />
<glyph unicode="0" horiz-adv-x="573" d="M285 -14q-92 0 -142.5 70.5t-50.5 183.5q0 157 78 265t203 108q92 0 142 -70.5t50 -184.5q0 -156 -78.5 -264t-201.5 -108zM288 6q80 0 139.5 51.5t88 130t28.5 168.5q0 104 -43.5 170.5t-129.5 66.5q-81 0 -141 -52t-88.5 -130.5t-28.5 -169.5q0 -102 44 -168.5 t131 -66.5z" />
<glyph unicode="1" horiz-adv-x="253" d="M96 600h163l-85 -600h-21l82 580h-142z" />
<glyph unicode="2" horiz-adv-x="474" d="M52 19l316 273q52 45 70.5 84t18.5 87q0 58 -38.5 94t-102.5 36q-48 0 -94 -20.5t-68 -40.5l-21 -20l-12 15l9 9t26.5 21t42 26t54.5 20.5t66 9.5q74 0 116.5 -40t42.5 -106q0 -54 -21 -97t-82 -96l-296 -255h349l-3 -19h-376z" />
<glyph unicode="3" horiz-adv-x="474" d="M202 311l3 17l266 253h-334l3 19h363l-2 -16l-273 -256h57q74 0 118.5 -36t44.5 -105q0 -85 -62.5 -141t-155.5 -56q-56 0 -98.5 19t-57.5 38l-15 19l16 14q2 -3 5.5 -7.5t17 -17t30 -22t45 -17t60.5 -7.5q85 0 139.5 50t54.5 126q0 60 -38 93t-106 33h-81z" />
<glyph unicode="4" horiz-adv-x="508" d="M49 174l400 426h19l-59 -422h91l-3 -20h-91l-22 -158h-21l22 158h-338zM78 178h310l54 385l-359 -380l-5 -4v-1z" />
<glyph unicode="5" horiz-adv-x="471" d="M186 580l-43 -254q63 19 139 19q75 0 121.5 -41t46.5 -111q0 -97 -65.5 -151.5t-159.5 -54.5q-33 0 -62 7.5t-47 18.5t-31.5 22.5t-18.5 18.5l-6 8l16 14q2 -3 5.5 -7.5t17 -16.5t29.5 -21t43 -16.5t57 -7.5q88 0 144 49t56 135q0 62 -41 98.5t-107 36.5q-42 0 -80.5 -6 t-55.5 -12l-17 -6l-7 6l49 292h316l-3 -20h-296z" />
<glyph unicode="6" horiz-adv-x="516" d="M362 613q35 0 64.5 -9t46.5 -21.5t29 -25t16 -21.5l5 -9l-17 -14q-2 3 -5 8.5t-15.5 19.5t-27.5 24.5t-41.5 19t-57.5 8.5q-94 0 -168 -93t-80 -271v-5q26 56 85 93t129 37q80 0 126 -46.5t46 -114.5q0 -84 -63 -145.5t-156 -61.5q-89 0 -138 58.5t-49 175.5q0 98 24 176 t63.5 124t86.5 69.5t97 23.5zM322 333q-77 0 -137.5 -47.5t-71.5 -113.5q17 -166 169 -166q79 0 136.5 53.5t57.5 129.5q0 63 -40.5 103.5t-113.5 40.5z" />
<glyph unicode="7" horiz-adv-x="414" d="M110 600h375l-2 -19l-356 -581h-25l357 580h-351z" />
<glyph unicode="8" horiz-adv-x="503" d="M249 -14q-77 0 -125 43.5t-48 107.5q0 63 42 109.5t108 64.5q-45 16 -70.5 50.5t-25.5 78.5q0 73 59.5 123t147.5 50q73 0 117.5 -39t44.5 -99q0 -56 -37.5 -101t-98.5 -63q49 -16 78 -52.5t29 -85.5q0 -77 -65 -132t-156 -55zM296 321q80 2 130 45.5t50 105.5 q0 52 -39 86.5t-103 34.5q-77 0 -129 -44t-52 -107q0 -52 39 -86.5t104 -34.5zM448 171q0 57 -44.5 93.5t-110.5 36.5q-86 -2 -140.5 -48.5t-54.5 -112.5q0 -56 43.5 -95t110.5 -39q80 0 138 48.5t58 116.5z" />
<glyph unicode="9" horiz-adv-x="520" d="M239 6q109 0 180.5 91.5t71.5 273.5v9q-26 -59 -84.5 -97t-130.5 -38q-78 0 -124.5 45.5t-46.5 116.5q0 84 63.5 145t159.5 61q88 0 136 -61t48 -180q0 -100 -22.5 -176t-62 -121t-87.5 -67t-104 -22q-31 0 -58 7.5t-44 17.5t-30 20.5t-18 18.5l-6 7l16 14q2 -3 5.5 -7 t16.5 -15.5t28 -20t40.5 -15.5t52.5 -7zM279 266q75 0 136.5 47.5t72.5 112.5q-8 85 -51.5 126t-111.5 41q-82 0 -140 -53t-58 -129q0 -68 41.5 -106.5t110.5 -38.5z" />
<glyph unicode=":" horiz-adv-x="186" d="M122 391q0 11 9.5 20t20.5 9q10 0 16.5 -7t6.5 -16q0 -11 -9.5 -20t-20.5 -9q-10 0 -16.5 7t-6.5 16zM70 23q0 11 9.5 20t20.5 9q10 0 16.5 -7t6.5 -16q0 -11 -9.5 -20t-20.5 -9q-10 0 -16.5 7t-6.5 16z" />
<glyph unicode=";" horiz-adv-x="236" d="M185 420q10 0 16.5 -7t6.5 -16q0 -11 -9.5 -20t-20.5 -9q-10 0 -16.5 7t-6.5 16q0 11 9.5 20t20.5 9zM44 -75q34 6 58 27t28 48q-27 0 -27 25q0 11 7.5 19t20.5 8q10 0 17 -7t7 -19q0 -45 -28.5 -76t-81.5 -43z" />
<glyph unicode="&#x3c;" horiz-adv-x="376" d="M89 299l288 206l-4 -28l-267 -190l214 -190l-4 -28l-230 206z" />
<glyph unicode="=" horiz-adv-x="449" d="M125 396h311l-3 -20h-311zM98 205h311l-3 -20h-311z" />
<glyph unicode="&#x3e;" horiz-adv-x="376" d="M368 275l-288 -206l4 28l268 190l-215 190l4 28l230 -206z" />
<glyph unicode="?" horiz-adv-x="406" d="M110 560q6 5 18.5 12.5t53.5 20t86 12.5q77 0 121.5 -35t44.5 -96q0 -47 -19 -82t-47.5 -56.5t-57.5 -40t-51.5 -42.5t-27.5 -53l-12 -77h-15l13 81q5 31 27 56t49.5 43.5t54.5 39t45.5 53.5t18.5 76q0 52 -37.5 82.5t-107.5 30.5q-41 0 -77.5 -10.5t-52.5 -20.5l-16 -10 zM170 6q0 11 9.5 20t20.5 9q10 0 16.5 -7t6.5 -16q0 -11 -9.5 -20t-20.5 -9q-10 0 -16.5 7t-6.5 16z" />
<glyph unicode="@" horiz-adv-x="992" d="M743 51q-47 0 -78 28.5t-31 75.5l1 20h-3q-75 -113 -182 -113q-62 0 -101.5 43t-39.5 113q0 118 75 197t176 79q111 0 130 -95l29 88h15l-70 -262q-10 -38 -10 -64q0 -41 26.5 -66.5t67.5 -25.5q99 0 160.5 87.5t61.5 205.5q0 148 -102.5 249t-263.5 101 q-104 0 -198.5 -40t-160.5 -106t-105 -154.5t-39 -182.5q0 -159 104 -271t274 -112q62 0 118 14t81 28l25 15l9 -16q-10 -7 -29 -17t-80.5 -27t-126.5 -17q-177 0 -286 117t-109 284q0 98 40.5 190t110 161.5t168 111.5t207.5 42q169 0 276 -106.5t107 -261.5 q0 -128 -68.5 -220.5t-178.5 -92.5zM454 82q61 0 113.5 48.5t80 112.5t27.5 120q0 52 -30.5 81.5t-87.5 29.5q-92 0 -160 -72.5t-68 -181.5q0 -64 34 -101t91 -37z" />
<glyph unicode="A" d="M544 0h-22l-48 178h-324l-97 -178h-23l329 600h24zM161 198h308l-100 381z" />
<glyph unicode="B" horiz-adv-x="592" d="M563 176q0 -84 -61.5 -130t-159.5 -46h-247l84 600h230q81 0 126.5 -35.5t45.5 -102.5q0 -120 -123 -159l-1 -2q48 -12 77 -44.5t29 -80.5zM559 459q0 60 -41 90.5t-110 30.5h-210l-38 -270h210q89 0 139 40t50 109zM157 290l-38 -270h227q87 0 141.5 40t54.5 114 q0 54 -43 85t-112 31h-230z" />
<glyph unicode="C" horiz-adv-x="577" d="M548 74q-9 -9 -25 -23t-69.5 -37t-111.5 -23q-114 0 -184 74.5t-70 191.5q0 148 100.5 248t241.5 100q36 0 68.5 -8t52.5 -20t35 -24t22 -20l6 -8l-15 -16q-2 3 -6 8t-19.5 18.5t-33.5 23.5t-48.5 18t-64.5 8q-132 0 -224.5 -96.5t-92.5 -227.5q0 -107 64 -178.5 t171 -71.5q34 0 66.5 8t54.5 19.5t39.5 23.5t25.5 20l8 8z" />
<glyph unicode="D" horiz-adv-x="626" d="M621 342q0 -156 -104.5 -249t-255.5 -93h-166l84 600h166q122 0 199 -69t77 -189zM198 580l-79 -560h146q138 0 236 87.5t98 229.5q0 111 -72 177t-183 66h-146z" />
<glyph unicode="E" horiz-adv-x="537" d="M487 293h-330l-38 -273h376l-3 -20h-397l84 600h397l-2 -20h-376l-38 -267h330z" />
<glyph unicode="F" horiz-adv-x="520" d="M486 293h-329l-41 -293h-21l84 600h397l-2 -20h-376l-38 -267h329z" />
<glyph unicode="G" horiz-adv-x="644" d="M368 313h278l-4 -29q-19 -141 -99 -217t-200 -76q-117 0 -185.5 73t-68.5 190q0 150 97.5 250.5t244.5 100.5q39 0 74 -8.5t57 -20.5t38 -23.5t22 -20.5l7 -8l-15 -16q-2 3 -6.5 8.5t-21 18.5t-36 23t-52.5 18.5t-70 8.5q-142 0 -230 -96.5t-88 -231.5q0 -106 62 -176 t174 -70q107 0 181.5 69t91.5 190l3 23h-257z" />
<glyph unicode="H" horiz-adv-x="634" d="M539 0h-21l41 293h-402l-41 -293h-21l84 600h21l-40 -287h402l40 287h21z" />
<glyph unicode="I" horiz-adv-x="211" d="M116 0h-21l84 600h21z" />
<glyph unicode="J" horiz-adv-x="408" d="M42 45q4 -4 11.5 -10.5t34.5 -17.5t59 -11q153 0 178 177l59 417h21l-59 -419q-28 -195 -200 -195q-35 0 -64.5 10.5t-41.5 21.5l-11 11z" />
<glyph unicode="K" horiz-adv-x="540" d="M147 219l432 381h20l-1 -7l-270 -238l190 -352l-1 -3h-19l-186 340l-169 -149l-27 -191h-21l84 600h21z" />
<glyph unicode="L" horiz-adv-x="478" d="M95 0l84 600h21l-81 -580h342l-3 -20h-363z" />
<glyph unicode="M" horiz-adv-x="722" d="M685 572l-278 -313h-20l-190 314l-81 -573h-21l84 600h25l194 -318l282 318h31l-84 -600h-22z" />
<glyph unicode="N" horiz-adv-x="664" d="M569 0h-28l-344 575l-81 -575h-21l84 600h29l344 -574l80 574h21z" />
<glyph unicode="O" horiz-adv-x="680" d="M348 -9q-122 0 -190.5 72.5t-68.5 190.5q0 148 96 249.5t231 101.5q122 0 190.5 -71t68.5 -190q0 -148 -96 -250.5t-231 -102.5zM351 11q130 0 216.5 98.5t86.5 231.5q0 108 -62 176t-179 68q-129 0 -216 -97.5t-87 -230.5q0 -108 62 -177t179 -69z" />
<glyph unicode="P" horiz-adv-x="564" d="M390 600q93 0 145 -47.5t52 -122.5q0 -95 -69.5 -159t-182.5 -64h-190l-29 -207h-21l84 600h211zM566 427q0 68 -48 110.5t-129 42.5h-191l-50 -353h191q98 0 162.5 57t64.5 143z" />
<glyph unicode="Q" horiz-adv-x="680" d="M675 344q0 -125 -70.5 -220t-178.5 -123l58 -123h-24l-55 118q-30 -5 -57 -5q-122 0 -190.5 72.5t-68.5 190.5q0 148 96 249.5t231 101.5q122 0 190.5 -71t68.5 -190zM351 11q130 0 216.5 98.5t86.5 231.5q0 108 -62 176t-179 68q-129 0 -216 -97.5t-87 -230.5 q0 -108 62 -177t179 -69z" />
<glyph unicode="R" horiz-adv-x="585" d="M390 600q95 0 146.5 -44.5t51.5 -121.5q0 -86 -52.5 -142.5t-137.5 -70.5v-2l139 -215l-1 -4h-20l-141 217h-229l-30 -217h-21l84 600h211zM566 430q0 71 -47 110.5t-130 39.5h-191l-49 -343h205q89 0 150.5 52t61.5 141z" />
<glyph unicode="S" horiz-adv-x="502" d="M72 73l6.5 -6.5t20.5 -15t34.5 -18.5t48.5 -14.5t63 -6.5q105 0 158 38t53 101q0 33 -12.5 57.5t-38 41.5t-49 27t-61.5 22q-31 10 -45 14.5t-40 15t-38.5 20.5t-28 24.5t-21.5 33.5t-6 42q0 73 63 114.5t160 41.5q60 0 105.5 -13.5t61.5 -26.5l15 -13l-15 -18 q-2 2 -6 5.5t-19 12.5t-33 15.5t-48 12t-64 5.5q-83 0 -141 -34t-58 -98q0 -23 9.5 -42.5t22.5 -31.5t38 -24.5t42 -18.5t49 -16q43 -13 67 -23.5t54 -29.5t44 -47t14 -66q0 -70 -59 -116t-176 -46q-56 0 -102 16t-64 32l-19 16z" />
<glyph unicode="T" horiz-adv-x="497" d="M109 600h449l-3 -20h-214l-82 -580h-21l82 580h-214z" />
<glyph unicode="U" horiz-adv-x="624" d="M310 -8q-108 0 -157.5 68.5t-32.5 185.5l50 354h21l-50 -354q-15 -108 28.5 -171t143.5 -63t161.5 63t76.5 171l50 354h21l-50 -354q-17 -117 -85.5 -185.5t-176.5 -68.5z" />
<glyph unicode="V" d="M114 600h20l154 -578l316 578h24l-329 -600h-24z" />
<glyph unicode="W" horiz-adv-x="770" d="M464 563l-246 -563h-22l-81 600h22l75 -562l246 562h22l87 -562l234 562h22l-249 -600h-22z" />
<glyph unicode="X" horiz-adv-x="496" d="M303 308l173 -308h-25l-144 260l-18 35l-26 -35l-218 -260h-24l257 308l-163 292h25l140 -251l13 -28l21 28l210 251h25z" />
<glyph unicode="Y" horiz-adv-x="543" d="M569 600h25l-280 -368l-32 -232h-21l32 232l-176 368h25l152 -322l12 -29h2l20 29z" />
<glyph unicode="Z" horiz-adv-x="508" d="M35 17l497 563h-414l2 20h444l-2 -17l-497 -563h405l-3 -20h-434z" />
<glyph unicode="[" horiz-adv-x="261" d="M171 700h174l-3 -20h-154l-111 -790h154l-3 -20h-174z" />
<glyph unicode="\" horiz-adv-x="319" d="M151 799h21l90 -927h-22z" />
<glyph unicode="]" horiz-adv-x="261" d="M0 -110h154l111 790h-154l3 20h174l-117 -830h-174z" />
<glyph unicode="^" horiz-adv-x="383" d="M282 642l-128 -145h-21l142 171h22l93 -171h-20z" />
<glyph unicode="_" horiz-adv-x="525" d="M36 -40h442l-3 -20h-442z" />
<glyph unicode="`" horiz-adv-x="242" d="M181 635l32 4l38 -142h-15z" />
<glyph unicode="a" horiz-adv-x="525" d="M471 308l20 112h15l-59 -420h-15l10 105h-1q-2 -5 -6.5 -12.5t-21 -27.5t-37 -35t-55.5 -27.5t-75 -12.5q-75 0 -123 52.5t-48 136.5q0 108 69.5 179.5t163.5 71.5q39 0 70 -12.5t47.5 -30.5t27.5 -36t14 -31l3 -12h1zM460 240q0 82 -43 126.5t-111 44.5q-84 0 -147 -66 t-63 -164q0 -76 44 -124t110 -48q85 0 147.5 64.5t62.5 166.5z" />
<glyph unicode="b" horiz-adv-x="526" d="M164 605h20l-41 -290h1q2 5 6.5 12.5t21 27.5t37 35t55.5 27.5t75 12.5q75 0 123 -52.5t48 -136.5q0 -108 -69.5 -179.5t-161.5 -71.5q-41 0 -72.5 12.5t-48 31t-27 36.5t-13.5 30l-2 13h-2l-20 -113h-15zM125 180q0 -79 42 -125t114 -46q84 0 146 66t62 164 q0 75 -43.5 123.5t-107.5 48.5q-86 0 -149.5 -63.5t-63.5 -167.5z" />
<glyph unicode="c" horiz-adv-x="425" d="M250 -10q-77 0 -126.5 50t-49.5 135q0 112 70.5 183.5t167.5 71.5q36 0 66.5 -9.5t43.5 -18.5l12 -10l-11 -17q-42 36 -115 36q-82 0 -147.5 -65.5t-65.5 -166.5q0 -78 45.5 -124t111.5 -46q32 0 63.5 9t46.5 18l15 9l6 -17q-53 -38 -133 -38z" />
<glyph unicode="d" horiz-adv-x="526" d="M470 307l42 298h20l-85 -605h-15l10 105h-1q-2 -5 -6.5 -12.5t-21 -27.5t-37 -35t-55.5 -27.5t-75 -12.5q-75 0 -123 52.5t-48 136.5q0 108 69.5 179.5t163.5 71.5q40 0 71.5 -12.5t47.5 -31t26.5 -36.5t12.5 -30l3 -13h1zM460 240q0 80 -42.5 125.5t-113.5 45.5 q-84 0 -146 -66t-62 -164q0 -75 43.5 -123.5t107.5 -48.5q86 0 149.5 63.5t63.5 167.5z" />
<glyph unicode="e" horiz-adv-x="460" d="M298 430q85 0 125.5 -55t25.5 -147l-1 -6h-347l-2 -15q-12 -90 31.5 -144t118.5 -54q39 0 74 10.5t51 21.5l16 11l8 -17q-7 -5 -20 -12.5t-52.5 -20t-79.5 -12.5q-77 0 -124 49.5t-47 133.5q0 117 65 187t158 70zM430 242q8 70 -26.5 119.5t-107.5 49.5q-64 0 -117 -44.5 t-73 -124.5h324z" />
<glyph unicode="f" horiz-adv-x="267" d="M178 401l-56 -401h-20l56 401h-84l3 19h84l7 46q9 68 50 106t98 38q18 0 33.5 -3t22.5 -6l6 -3l-10 -18q-16 11 -56 11q-46 0 -80 -31t-44 -94l-7 -46h132l-3 -19h-132z" />
<glyph unicode="g" horiz-adv-x="526" d="M451 26q-13 -93 -71 -149t-151 -56q-27 0 -51.5 5.5t-40 12.5t-27.5 14.5t-18 12.5l-5 6l15 14q5 -5 14 -12.5t42.5 -20.5t72.5 -13q84 0 136.5 53t63.5 133l11 79h-1q-2 -5 -6 -12.5t-20.5 -27.5t-36.5 -35t-55.5 -27.5t-76.5 -12.5q-75 0 -123 52.5t-48 136.5 q0 108 69.5 179.5t163.5 71.5q39 0 70 -12.5t47.5 -30t27.5 -35.5t14 -30l3 -13h1l20 111h15zM460 240q0 80 -42.5 125t-112.5 45q-84 0 -146.5 -65.5t-62.5 -163.5q0 -76 44.5 -124t110.5 -48q83 0 146 63.5t63 167.5z" />
<glyph unicode="h" horiz-adv-x="505" d="M320 430q82 0 119.5 -55.5t25.5 -143.5l-32 -231h-20l32 230q11 81 -21.5 131t-107.5 50t-123 -48.5t-57 -100.5l-37 -262h-20l85 605h20l-39 -275h1q1 3 6.5 12t20 24.5t33.5 29.5t49.5 24t64.5 10z" />
<glyph unicode="i" horiz-adv-x="182" d="M170 560q-20 0 -20 19q0 11 7.5 18.5t18.5 7.5q9 0 14.5 -6t5.5 -14q0 -11 -7.5 -18t-18.5 -7zM140 420h20l-59 -420h-20z" />
<glyph unicode="j" horiz-adv-x="182" d="M170 560q-21 0 -21 19q0 11 8 18.5t19 7.5q9 0 14.5 -6t5.5 -14q0 -11 -7.5 -18t-18.5 -7zM-19 -138h12q68 0 80 83l67 475h20l-67 -475q-7 -53 -32 -77t-72 -24h-11z" />
<glyph unicode="k" horiz-adv-x="417" d="M452 420l-231 -175l180 -245h-24l-171 234l-83 -64l-24 -170h-20l85 605h20l-58 -408h1l295 223h30z" />
<glyph unicode="l" horiz-adv-x="186" d="M168 605h20l-85 -605h-20z" />
<glyph unicode="m" horiz-adv-x="838" d="M138 420h15l-7 -88h1l1 2q2 2 6 8t9.5 13t14 15.5t18.5 17t23.5 16t28 13.5t33.5 9.5t39 3.5q65 0 104 -32t46 -86h4q1 4 5.5 14t18.5 29t32.5 35t51.5 28t72 12q82 0 119 -55.5t25 -143.5l-32 -231h-20l32 230q11 81 -21 131t-107 50t-124 -55t-59 -113l-34 -243h-20 l36 255q9 69 -24.5 112.5t-108.5 43.5t-123 -48.5t-57 -100.5l-37 -262h-20z" />
<glyph unicode="n" horiz-adv-x="505" d="M138 420h15l-7 -88h1q17 34 58 63q50 35 115 35q82 0 119.5 -55.5t25.5 -143.5l-32 -231h-20l32 230q11 81 -21.5 131t-107.5 50t-123 -48.5t-57 -100.5l-37 -262h-20z" />
<glyph unicode="o" horiz-adv-x="503" d="M487 240q0 -111 -70 -180.5t-167 -69.5q-78 0 -127 50.5t-49 135.5q0 110 70.5 182t167.5 72q77 0 126 -52.5t49 -137.5zM253 9q83 0 147.5 63t64.5 164q0 79 -45 127t-111 48q-83 0 -148.5 -65.5t-65.5 -166.5q0 -78 45.5 -124t112.5 -46z" />
<glyph unicode="p" horiz-adv-x="526" d="M115 113l-38 -269h-20l81 576h15l-10 -105h1q2 5 6.5 12.5t21 27.5t37 35t56 27.5t75.5 12.5q74 0 122 -52.5t48 -136.5q0 -108 -69.5 -179.5t-162.5 -71.5q-40 0 -71.5 12.5t-47.5 31t-26.5 36.5t-12.5 30l-3 13h-2zM125 180q0 -82 44.5 -126.5t111.5 -44.5q84 0 146 66 t62 164q0 76 -42.5 124t-108.5 48q-85 0 -149 -63.5t-64 -167.5z" />
<glyph unicode="q" horiz-adv-x="526" d="M425 -156h-20l37 261h-1q-2 -5 -6.5 -12.5t-21 -27.5t-37 -35t-55.5 -27.5t-75 -12.5q-75 0 -123 52.5t-48 136.5q0 108 69.5 179.5t163.5 71.5q39 0 70 -12.5t47.5 -30t27.5 -35.5t14 -30l3 -13h1l20 111h15zM460 240q0 80 -42.5 125.5t-111.5 45.5q-84 0 -147 -66 t-63 -164q0 -76 44 -124t110 -48q84 0 147 63.5t63 167.5z" />
<glyph unicode="r" horiz-adv-x="256" d="M301 401h-14q-61 0 -101 -42t-51 -104l-36 -255h-20l59 420h15l-7 -88h1l2 4q2 4 7.5 12t13.5 17t20 19t26 18t33.5 13t40.5 5h14z" />
<glyph unicode="s" horiz-adv-x="392" d="M256 430q39 0 72 -8t46 -16l14 -9l-11 -18q-41 32 -124 32q-68 0 -104.5 -26.5t-36.5 -75.5q0 -33 26 -51t63.5 -25t75 -15.5t63.5 -32t26 -64.5q0 -56 -46 -93t-125 -37q-44 0 -80 9.5t-50 19.5l-14 9l11 17q49 -36 131 -36q74 0 113 30.5t39 77.5q0 34 -26 53 t-63.5 27.5l-75 17t-63.5 30.5t-26 60q0 57 43 90.5t122 33.5z" />
<glyph unicode="t" horiz-adv-x="277" d="M159 420l19 128h19l-18 -128h132l-3 -19h-132l-43 -304q-12 -88 66 -88q17 0 33 4.5t24 8.5l7 4l5 -17q-26 -19 -74 -19q-46 0 -67 28t-14 75l43 308h-84l3 19h84z" />
<glyph unicode="u" horiz-adv-x="499" d="M459 420h20l-59 -420h-15l7 89h-1q0 -1 -6 -10.5t-20 -24.5t-33 -29.5t-49.5 -24.5t-64.5 -10q-81 0 -116.5 55t-22.5 144l32 231h20l-32 -230q-11 -82 18.5 -131.5t104.5 -49.5q78 0 125.5 50.5t55.5 102.5z" />
<glyph unicode="v" horiz-adv-x="451" d="M232 0h-13l-134 420h20l119 -375q3 -10 3 -22h2q1 4 11 22l224 375h22z" />
<glyph unicode="w" horiz-adv-x="639" d="M464 0h-24l-62 383q-1 6 -1 14h-2l-6 -14l-170 -383h-23l-87 420h21l76 -375q3 -16 3 -22h2l9 22l167 375h24l60 -375q3 -21 3 -22h2q1 4 10 22l181 375h21z" />
<glyph unicode="x" horiz-adv-x="403" d="M219 223l-121 197h22l113 -185h3l162 185h24l-176 -196l136 -224h-21l-128 211h-3l-186 -211h-23z" />
<glyph unicode="y" horiz-adv-x="496" d="M456 420h20l-59 -419q-12 -86 -65 -133t-140 -47q-44 0 -79 13t-48 26l-13 13l15 14q5 -5 14 -13t42.5 -21t71.5 -13q77 0 124 42t58 119l13 88h-2q-19 -28 -24 -34q-58 -64 -150 -65q-81 0 -116.5 55t-22.5 144l32 231h21l-32 -230q-11 -82 18.5 -131t103.5 -49 q78 0 126 50t56 102z" />
<glyph unicode="z" horiz-adv-x="410" d="M40 0l3 18l358 383h-305l3 19h330l-3 -18l-356 -383h303l-3 -19h-330z" />
<glyph unicode="{" horiz-adv-x="205" d="M82 303q25 0 46 23.5t27 63.5l34 246q11 71 71 79v-19q-23 -3 -34.5 -18t-16.5 -49l-33 -236q-11 -85 -61 -101l-1 -5q45 -16 33 -100l-34 -243q-5 -35 2.5 -49.5t29.5 -17.5l-6 -19q-59 8 -48 79l36 253q6 39 -9 63t-40 24h-8l4 26h8z" />
<glyph unicode="|" horiz-adv-x="164" d="M74 -128h-20l115 815h20z" />
<glyph unicode="}" horiz-adv-x="205" d="M217 303l-4 -26h-8q-25 0 -46 -23.5t-27 -63.5l-36 -253q-5 -36 -21.5 -55.5t-48.5 -23.5v19q23 3 34.5 18t15.5 49l35 243q12 84 61 100v5q-43 16 -32 101l33 236q5 35 -2.5 49.5t-29.5 17.5l6 19q59 -8 48 -79l-35 -246q-6 -39 9 -63t40 -24h8z" />
<glyph unicode="~" horiz-adv-x="435" d="M329 290q22 0 40 5t25 9l7 5l8 -13q-25 -26 -83 -26q-23 0 -66.5 14t-69.5 14q-22 0 -40.5 -5t-25.5 -9l-7 -5l-7 13q25 26 83 26q23 0 66.5 -14t69.5 -14z" />
<glyph unicode="&#xa1;" horiz-adv-x="162" d="M112 403q0 11 9 20t20 9q10 0 16.5 -7t6.5 -16q0 -11 -9.5 -20t-20.5 -9q-9 0 -15.5 7t-6.5 16zM67 -176h-21l70 468h12z" />
<glyph unicode="&#xa2;" horiz-adv-x="435" d="M207 85q-54 15 -86.5 62t-32.5 115q0 111 70 182.5t167 72.5l22 83h20l-22 -84q30 -2 56 -11.5t37 -17.5l10 -8l-10 -17q-36 30 -99 35l-108 -398q17 -3 35 -3q32 0 63.5 9t46.5 18l16 9l5 -17q-52 -38 -132 -38q-20 0 -40 3l-21 -80h-20zM110 266q0 -61 28.5 -104 t74.5 -58l106 394q-81 -2 -145 -67t-64 -165z" />
<glyph unicode="&#xa3;" horiz-adv-x="496" d="M429 0h-361l3 20l9 6t20.5 19t25.5 32t20 45t9 58q0 7 -8 103h-67l3 20h63q-2 26 -2 52q0 108 58 179t168 71q48 0 85.5 -17.5t50.5 -34.5l13 -17l-17 -14q-5 7 -14 17.5t-44 28t-78 17.5q-98 0 -149.5 -64t-51.5 -166q0 -26 2 -52h258l-3 -20h-253q7 -82 7 -101 q0 -98 -76 -162h332z" />
<glyph unicode="&#xa5;" horiz-adv-x="544" d="M569 600h25l-269 -353h172l-3 -20h-181l-12 -88h181l-3 -20h-181l-16 -119h-21l16 119h-181l3 20h181l12 88h-181l3 20h172l-169 353h25l152 -322l12 -29h2l20 29z" />
<glyph unicode="&#xa6;" horiz-adv-x="165" d="M118 330l48 343h21l-48 -343h-21zM50 -153l48 343h21l-48 -343h-21z" />
<glyph unicode="&#xa7;" horiz-adv-x="503" d="M345 613q57 0 102.5 -10.5t62.5 -20.5l17 -11l-16 -18q-6 4 -17.5 11t-55 18t-96.5 11q-96 0 -145 -29.5t-49 -78.5q0 -35 33 -59.5t105 -45.5q135 -39 135 -94q0 -40 -42 -65q48 -22 69 -45.5t21 -55.5q0 -56 -53.5 -94.5t-164.5 -38.5q-61 0 -110.5 12.5t-68.5 25.5 l-18 13l16 18q6 -5 19 -13.5t60.5 -22t104.5 -13.5q98 0 145.5 31.5t47.5 80.5q0 37 -33 60t-124 52q-68 22 -94 41t-26 43q0 44 49 65q-94 38 -94 103q0 57 57 93.5t163 36.5zM275 361q-17 4 -34 11q-48 -15 -48 -54q0 -19 23.5 -34t84.5 -34q48 -17 59 -22q39 23 39 56 q0 42 -124 77z" />
<glyph unicode="&#xa8;" horiz-adv-x="384" d="M167 693q0 12 10 21.5t22 9.5q10 0 17 -7t7 -18q0 -12 -10 -21.5t-22 -9.5q-10 0 -17 7t-7 18zM296 693q0 12 10 21.5t22 9.5q10 0 17 -7t7 -18q0 -12 -10 -21.5t-22 -9.5q-10 0 -17 7t-7 18z" />
<glyph unicode="&#xa9;" horiz-adv-x="702" d="M436 600q121 0 190.5 -74.5t69.5 -187.5q0 -140 -98 -240t-247 -100q-120 0 -190 74.5t-70 187.5q0 139 98.5 239.5t246.5 100.5zM433 580q-138 0 -229 -93.5t-91 -224.5q0 -105 64.5 -174.5t176.5 -69.5q138 0 229.5 93.5t91.5 224.5q0 105 -65 174.5t-177 69.5z M509 411q-3 4 -9 9.5t-29.5 14.5t-51.5 9q-72 0 -117 -48t-45 -116q0 -54 32 -89t89 -35q27 0 52 8t37 16l12 8l9 -15q-40 -37 -113 -37q-74 0 -110.5 47t-26.5 117q9 69 60 116.5t124 47.5q33 0 58 -9.5t34 -18.5l9 -10z" />
<glyph unicode="&#xaa;" horiz-adv-x="406" d="M101 358q0 53 42.5 86t109.5 33q93 0 121 -54l4 36q9 72 -16 103.5t-87 31.5q-29 0 -56.5 -7t-40.5 -13l-13 -7l-6 21q52 26 119 26q147 0 123 -154l-26 -186h-14l4 57h-2q-15 -25 -51 -45t-90 -20q-55 0 -88 25t-33 67zM122 361q0 -35 28 -55.5t75 -20.5q56 0 99 31 t43 67q0 33 -29 54t-85 21q-58 0 -94.5 -27t-36.5 -70z" />
<glyph unicode="&#xab;" horiz-adv-x="370" d="M81 217l123 156h21l-1 -7l-122 -155l-1 -3l79 -157l-1 -7h-21l-79 156zM218 217l123 156h21l-1 -7l-122 -155l-1 -3l79 -157l-1 -7h-21l-79 156z" />
<glyph unicode="&#xac;" horiz-adv-x="562" d="M107 346h431l-49 -346h-20l46 326h-411z" />
<glyph unicode="&#xad;" horiz-adv-x="401" d="M101 240h267l-3 -20h-267z" />
<glyph unicode="&#xae;" horiz-adv-x="569" d="M569 410q0 -106 -75.5 -183t-188.5 -77q-91 0 -144.5 57.5t-53.5 143.5q0 106 75 183t188 77q92 0 145.5 -57.5t53.5 -143.5zM547 408q0 79 -48.5 131t-131.5 52q-102 0 -170 -70.5t-68 -167.5q0 -79 48 -131t131 -52q102 0 170.5 70t68.5 168zM356 485q32 0 50.5 -16 t18.5 -41q0 -50 -51 -71v-2l43 -69v-3h-22l-43 67h-80l-9 -67h-21l28 202h86zM288 465l-13 -95h63q30 0 48 16t18 40q0 39 -51 39h-65z" />
<glyph unicode="&#xaf;" horiz-adv-x="487" d="M224 687h239l-3 -19h-239z" />
<glyph unicode="&#xb0;" horiz-adv-x="318" d="M253 671q45 0 71 -26t26 -67q0 -50 -36 -84t-91 -34q-44 0 -70.5 26t-26.5 66q0 50 36.5 84.5t90.5 34.5zM250 651q-44 0 -74 -28.5t-30 -68.5q0 -32 21.5 -53t58.5 -21q45 0 74.5 28t29.5 68q0 32 -21.5 53.5t-58.5 21.5z" />
<glyph unicode="&#xb1;" horiz-adv-x="566" d="M303 192l27 192h-192l3 20h192l27 194h20l-27 -194h187l-3 -20h-187l-27 -192h-20zM496 93h-399l3 20h399z" />
<glyph unicode="&#xb2;" horiz-adv-x="367" d="M109 356l184 139q58 44 58 95q0 67 -83 67q-26 0 -51.5 -8.5t-38.5 -17.5l-12 -9l-9 15q48 40 114 40q51 0 75.5 -23t24.5 -60q0 -64 -69 -115l-155 -117h211l-3 -20h-248z" />
<glyph unicode="&#xb3;" horiz-adv-x="347" d="M156 668h217l-3 -24l-111 -112q47 0 72.5 -21.5t25.5 -60.5q0 -49 -36.5 -82.5t-99.5 -33.5q-32 0 -60.5 11.5t-40.5 22.5l-13 12l15 14q4 -4 12 -11t34 -18t55 -11q53 0 83.5 26.5t30.5 66.5q0 31 -21 48t-58 17h-28l2 18l118 118h-196z" />
<glyph unicode="&#xb4;" horiz-adv-x="235" d="M165 497h-15l78 142l30 -4z" />
<glyph unicode="&#xb5;" horiz-adv-x="484" d="M455 420h20l-59 -420h-15l7 89h-1q0 -1 -6 -10.5t-20 -24.5t-33 -29.5t-49.5 -24.5t-64.5 -10q-109 0 -135 97l-38 -279h-20l86 612h20l-32 -230q-11 -82 18.5 -131.5t104.5 -49.5q78 0 125.5 50.5t55.5 102.5z" />
<glyph unicode="&#xb6;" horiz-adv-x="471" d="M404 208h-119q-94 0 -145.5 45t-51.5 125q0 103 67.5 163t184.5 60h140l-96 -683h-21z" />
<glyph unicode="&#xb7;" horiz-adv-x="188" d="M117 358q0 12 10 21t22 9q23 0 23 -24q0 -12 -9.5 -21t-21.5 -9q-11 0 -17.5 7t-6.5 17z" />
<glyph unicode="&#xb8;" horiz-adv-x="206" d="M65 -48l30 51h21l-23 -41q66 0 66 -53q0 -33 -24.5 -53.5t-63.5 -20.5q-18 0 -33.5 5.5t-21.5 11.5l-6 6l12 15q18 -19 52 -19q29 0 46.5 14t17.5 37q0 18 -13.5 28t-35.5 10l-18 -2z" />
<glyph unicode="&#xb9;" horiz-adv-x="201" d="M116 668h106l-46 -326h-21l43 306h-85z" />
<glyph unicode="&#xba;" horiz-adv-x="427" d="M300 613q64 0 102.5 -39.5t38.5 -106.5q0 -87 -54 -141.5t-135 -54.5q-64 0 -103 39.5t-39 105.5q0 88 54.5 142.5t135.5 54.5zM298 593q-71 0 -118.5 -48.5t-47.5 -125.5q0 -58 33.5 -93t89.5 -35q70 0 117.5 48.5t47.5 124.5q0 60 -33 94.5t-89 34.5z" />
<glyph unicode="&#xbb;" horiz-adv-x="370" d="M210 200l-123 -156h-21l1 7l123 157v3l-79 155l1 7h21l79 -156zM347 200l-123 -156h-21l1 7l123 157v3l-79 155l1 7h21l79 -156z" />
<glyph unicode="&#xbc;" horiz-adv-x="604" d="M46 0l560 600h26l-560 -600h-26zM119 600h106l-45 -326h-21l43 306h-85zM544 326l-29 -205h63l-3 -20h-63l-14 -101h-20l14 101h-182l3 18l216 207h15zM519 289h-2l-127 -121l-50 -47v-3l80 3h75z" />
<glyph unicode="&#xbd;" horiz-adv-x="675" d="M43 0l560 600h26l-560 -600h-26zM121 600h106l-45 -326h-21l43 306h-85zM390 0h249l3 20h-213l156 117q70 54 70 114q0 38 -25 61t-76 23q-29 0 -57.5 -10t-42.5 -20l-14 -10l9 -15q44 35 102 35q83 0 83 -67q0 -51 -58 -95l-184 -139z" />
<glyph unicode="&#xbe;" horiz-adv-x="721" d="M139 600h217l-3 -24l-111 -112q47 0 72.5 -21.5t25.5 -60.5q0 -49 -36.5 -82.5t-99.5 -33.5q-32 0 -60.5 11.5t-41.5 22.5l-12 12l15 14q4 -4 12 -11t34 -18t55 -11q53 0 83.5 26.5t30.5 66.5q0 31 -21 48t-58 17h-28l2 18l118 118h-196zM139 0l560 600h26l-560 -600h-26 zM668 326l-29 -205h63l-3 -20h-63l-14 -101h-20l14 101h-182l3 18l216 207h15zM643 289h-2l-127 -121l-50 -47v-3l80 3h75z" />
<glyph unicode="&#xbf;" horiz-adv-x="399" d="M291 409q0 -11 -9.5 -20t-20.5 -9q-10 0 -16.5 7t-6.5 16q0 11 9.5 20t20.5 9q10 0 16.5 -7t6.5 -16zM351 -145q-6 -5 -18.5 -12.5t-53.5 -20t-86 -12.5q-77 0 -121.5 35t-44.5 96q0 47 19 82t47.5 56.5t57.5 40t51.5 42.5t27.5 53l12 77h15l-13 -81q-5 -31 -27 -56 t-49.5 -43.5t-54.5 -39t-45.5 -53.5t-18.5 -76q0 -52 37.5 -82.5t107.5 -30.5q41 0 77.5 10t52.5 20l16 11z" />
<glyph unicode="&#xc0;" d="M313 772l32 4l38 -142h-15zM544 0h-22l-48 178h-324l-97 -178h-23l329 600h24zM161 198h308l-100 381z" />
<glyph unicode="&#xc1;" d="M383 635h-15l78 142l30 -4zM544 0h-22l-48 178h-324l-97 -178h-23l329 600h24zM161 198h308l-100 381z" />
<glyph unicode="&#xc2;" d="M394 752l-76 -91h-22l85 109h29l57 -109h-22zM544 0h-22l-48 178h-324l-97 -178h-23l329 600h24zM161 198h308l-100 381z" />
<glyph unicode="&#xc3;" d="M443 668q-25 0 -62 27.5t-55 27.5q-15 0 -25.5 -7t-15 -14.5t-10.5 -20.5l-5 -11l-14 2l5 15q18 55 67 55q25 0 61.5 -27.5t56.5 -27.5q21 0 31.5 11t19.5 31l5 11l14 -2l-5 -15q-18 -55 -68 -55zM544 0h-22l-48 178h-324l-97 -178h-23l329 600h24zM161 198h308l-100 381 z" />
<glyph unicode="&#xc4;" d="M293 693q0 12 10 21.5t22 9.5q10 0 17 -7t7 -18q0 -12 -10 -21.5t-22 -9.5q-10 0 -17 7t-7 18zM422 693q0 12 10 21.5t22 9.5q10 0 17 -7t7 -18q0 -12 -10 -21.5t-22 -9.5q-10 0 -17 7t-7 18zM544 0h-22l-48 178h-324l-97 -178h-23l329 600h24zM161 198h308l-100 381z " />
<glyph unicode="&#xc5;" d="M394 759q32 0 52.5 -17t20.5 -45q0 -36 -28 -59t-66 -23q-32 0 -52 16.5t-20 43.5q0 38 28.5 61t64.5 23zM391 740q-31 0 -50 -17t-19 -46q0 -43 54 -43q30 0 49.5 17t19.5 44q0 45 -54 45zM544 0h-22l-48 178h-324l-97 -178h-23l329 600h24zM161 198h308l-100 381z" />
<glyph unicode="&#xc6;" horiz-adv-x="867" d="M509 600h397l-2 -20h-376l-38 -267h330l-3 -20h-330l-38 -273h376l-3 -20h-397l25 178h-274l-150 -178h-23zM193 198h260l50 360h-5z" />
<glyph unicode="&#xc7;" horiz-adv-x="577" d="M430 613q36 0 68.5 -8t52.5 -20t35 -24t22 -20l6 -8l-15 -16q-2 3 -6 8t-19.5 18.5t-33.5 23.5t-48.5 18t-64.5 8q-131 0 -224 -100t-93 -232q0 -107 64.5 -181t170.5 -74q54 0 102.5 20t70.5 40l21 19l9 -16q-9 -9 -25 -23t-69.5 -37t-111.5 -23h-12l-15 -27 q66 0 66 -53q0 -33 -24.5 -53.5t-63.5 -20.5q-18 0 -33.5 6t-21.5 12l-6 5l12 15q18 -19 52 -19q29 0 46.5 14t17.5 37q0 18 -13.5 28t-35.5 10l-18 -2l-6 11l23 39q-101 11 -161.5 85.5t-60.5 183.5q0 148 101 252t241 104z" />
<glyph unicode="&#xc8;" horiz-adv-x="537" d="M317 772l32 4l38 -142h-15zM487 293h-330l-38 -273h376l-3 -20h-397l84 600h397l-2 -20h-376l-38 -267h330z" />
<glyph unicode="&#xc9;" horiz-adv-x="537" d="M387 635h-15l78 142l30 -4zM487 293h-330l-38 -273h376l-3 -20h-397l84 600h397l-2 -20h-376l-38 -267h330z" />
<glyph unicode="&#xca;" horiz-adv-x="537" d="M398 752l-76 -91h-22l85 109h29l57 -109h-22zM487 293h-330l-38 -273h376l-3 -20h-397l84 600h397l-2 -20h-376l-38 -267h330z" />
<glyph unicode="&#xcb;" horiz-adv-x="537" d="M297 693q0 12 10 21.5t22 9.5q10 0 17 -7t7 -18q0 -12 -10 -21.5t-22 -9.5q-10 0 -17 7t-7 18zM426 693q0 12 10 21.5t22 9.5q10 0 17 -7t7 -18q0 -12 -10 -21.5t-22 -9.5q-10 0 -17 7t-7 18zM487 293h-330l-38 -273h376l-3 -20h-397l84 600h397l-2 -20h-376l-38 -267 h330z" />
<glyph unicode="&#xcc;" horiz-adv-x="211" d="M132 772l32 4l38 -142h-15zM116 0h-21l84 600h21z" />
<glyph unicode="&#xcd;" horiz-adv-x="211" d="M202 635h-15l78 142l30 -4zM116 0h-21l84 600h21z" />
<glyph unicode="&#xce;" horiz-adv-x="211" d="M213 752l-76 -91h-22l85 109h29l57 -109h-22zM116 0h-21l84 600h21z" />
<glyph unicode="&#xcf;" horiz-adv-x="211" d="M112 693q0 12 10 21.5t22 9.5q10 0 17 -7t7 -18q0 -12 -10 -21.5t-22 -9.5q-10 0 -17 7t-7 18zM241 693q0 12 10 21.5t22 9.5q10 0 17 -7t7 -18q0 -12 -10 -21.5t-22 -9.5q-10 0 -17 7t-7 18zM116 0h-21l84 600h21z" />
<glyph unicode="&#xd0;" horiz-adv-x="626" d="M76 313h63l40 287h166q122 0 199 -69t77 -189q0 -156 -104.5 -249t-255.5 -93h-166l41 293h-63zM198 580l-38 -267h206l-3 -20h-206l-38 -273h146q138 0 236 87.5t98 229.5q0 111 -72 177t-183 66h-146z" />
<glyph unicode="&#xd1;" horiz-adv-x="664" d="M493 668q-25 0 -62 27.5t-55 27.5q-15 0 -25.5 -7t-15 -14.5t-10.5 -20.5l-5 -11l-14 2l5 15q18 55 67 55q25 0 61.5 -27.5t56.5 -27.5q21 0 31.5 11t19.5 31l5 11l14 -2l-5 -15q-18 -55 -68 -55zM569 0h-28l-344 575l-81 -575h-21l84 600h29l344 -574l80 574h21z" />
<glyph unicode="&#xd2;" horiz-adv-x="680" d="M366 772l32 4l38 -142h-15zM348 -9q-122 0 -190.5 72.5t-68.5 190.5q0 148 96 249.5t231 101.5q122 0 190.5 -71t68.5 -190q0 -148 -96 -250.5t-231 -102.5zM351 11q130 0 216.5 98.5t86.5 231.5q0 108 -62 176t-179 68q-129 0 -216 -97.5t-87 -230.5q0 -108 62 -177 t179 -69z" />
<glyph unicode="&#xd3;" horiz-adv-x="680" d="M436 635h-15l78 142l30 -4zM348 -9q-122 0 -190.5 72.5t-68.5 190.5q0 148 96 249.5t231 101.5q122 0 190.5 -71t68.5 -190q0 -148 -96 -250.5t-231 -102.5zM351 11q130 0 216.5 98.5t86.5 231.5q0 108 -62 176t-179 68q-129 0 -216 -97.5t-87 -230.5q0 -108 62 -177 t179 -69z" />
<glyph unicode="&#xd4;" horiz-adv-x="680" d="M447 752l-76 -91h-22l85 109h29l57 -109h-22zM348 -9q-122 0 -190.5 72.5t-68.5 190.5q0 148 96 249.5t231 101.5q122 0 190.5 -71t68.5 -190q0 -148 -96 -250.5t-231 -102.5zM351 11q130 0 216.5 98.5t86.5 231.5q0 108 -62 176t-179 68q-129 0 -216 -97.5t-87 -230.5 q0 -108 62 -177t179 -69z" />
<glyph unicode="&#xd5;" horiz-adv-x="680" d="M496 668q-25 0 -62 27.5t-55 27.5q-15 0 -25.5 -7t-15 -14.5t-10.5 -20.5l-5 -11l-14 2l5 15q18 55 67 55q25 0 61.5 -27.5t56.5 -27.5q21 0 31.5 11t19.5 31l5 11l14 -2l-5 -15q-18 -55 -68 -55zM348 -9q-122 0 -190.5 72.5t-68.5 190.5q0 148 96 249.5t231 101.5 q122 0 190.5 -71t68.5 -190q0 -148 -96 -250.5t-231 -102.5zM351 11q130 0 216.5 98.5t86.5 231.5q0 108 -62 176t-179 68q-129 0 -216 -97.5t-87 -230.5q0 -108 62 -177t179 -69z" />
<glyph unicode="&#xd6;" horiz-adv-x="680" d="M346 693q0 12 10 21.5t22 9.5q10 0 17 -7t7 -18q0 -12 -10 -21.5t-22 -9.5q-10 0 -17 7t-7 18zM475 693q0 12 10 21.5t22 9.5q10 0 17 -7t7 -18q0 -12 -10 -21.5t-22 -9.5q-10 0 -17 7t-7 18zM348 -9q-122 0 -190.5 72.5t-68.5 190.5q0 148 96 249.5t231 101.5 q122 0 190.5 -71t68.5 -190q0 -148 -96 -250.5t-231 -102.5zM351 11q130 0 216.5 98.5t86.5 231.5q0 108 -62 176t-179 68q-129 0 -216 -97.5t-87 -230.5q0 -108 62 -177t179 -69z" />
<glyph unicode="&#xd7;" horiz-adv-x="496" d="M91 133l187 170l-139 171l16 14l138 -171l187 171l11 -14l-187 -171l139 -170l-15 -14l-139 170l-186 -170z" />
<glyph unicode="&#xd8;" horiz-adv-x="680" d="M722 600l-96 -88q49 -67 49 -168q0 -148 -96 -250.5t-231 -102.5q-130 0 -200 83l-80 -74h-29l97 89q-47 68 -47 165q0 148 96 249.5t231 101.5q127 0 197 -78l79 73h30zM110 257q0 -91 43 -152l444 407q-65 73 -184 73q-129 0 -216 -97.5t-87 -230.5zM654 341 q0 93 -45 155l-444 -407q65 -78 186 -78q130 0 216.5 98.5t86.5 231.5z" />
<glyph unicode="&#xd9;" horiz-adv-x="624" d="M337 772l32 4l38 -142h-15zM310 -8q-108 0 -157.5 68.5t-32.5 185.5l50 354h21l-50 -354q-15 -108 28.5 -171t143.5 -63t161.5 63t76.5 171l50 354h21l-50 -354q-17 -117 -85.5 -185.5t-176.5 -68.5z" />
<glyph unicode="&#xda;" horiz-adv-x="624" d="M407 635h-15l78 142l30 -4zM310 -8q-108 0 -157.5 68.5t-32.5 185.5l50 354h21l-50 -354q-15 -108 28.5 -171t143.5 -63t161.5 63t76.5 171l50 354h21l-50 -354q-17 -117 -85.5 -185.5t-176.5 -68.5z" />
<glyph unicode="&#xdb;" horiz-adv-x="624" d="M418 752l-76 -91h-22l85 109h29l57 -109h-22zM310 -8q-108 0 -157.5 68.5t-32.5 185.5l50 354h21l-50 -354q-15 -108 28.5 -171t143.5 -63t161.5 63t76.5 171l50 354h21l-50 -354q-17 -117 -85.5 -185.5t-176.5 -68.5z" />
<glyph unicode="&#xdc;" horiz-adv-x="624" d="M317 693q0 12 10 21.5t22 9.5q10 0 17 -7t7 -18q0 -12 -10 -21.5t-22 -9.5q-10 0 -17 7t-7 18zM446 693q0 12 10 21.5t22 9.5q10 0 17 -7t7 -18q0 -12 -10 -21.5t-22 -9.5q-10 0 -17 7t-7 18zM310 -8q-108 0 -157.5 68.5t-32.5 185.5l50 354h21l-50 -354 q-15 -108 28.5 -171t143.5 -63t161.5 63t76.5 171l50 354h21l-50 -354q-17 -117 -85.5 -185.5t-176.5 -68.5z" />
<glyph unicode="&#xdd;" horiz-adv-x="543" d="M368 635h-15l78 142l30 -4zM569 600h25l-280 -368l-32 -232h-21l32 232l-176 368h25l152 -322l12 -29h2l20 29z" />
<glyph unicode="&#xde;" horiz-adv-x="562" d="M186 497h190q93 0 145 -47.5t52 -122.5q0 -95 -69.5 -159t-182.5 -64h-190l-15 -104h-21l84 600h21zM551 324q0 68 -48 110.5t-129 42.5h-191l-50 -353h191q99 0 163 57t64 143z" />
<glyph unicode="&#xdf;" horiz-adv-x="455" d="M273 300q77 1 124.5 44.5t47.5 110.5q0 52 -34.5 89t-88.5 37q-60 0 -106.5 -42t-55.5 -107l-61 -432h-20l61 436q10 71 62 117.5t122 46.5q63 0 102 -40.5t39 -100.5q0 -61 -34.5 -105.5t-93.5 -62.5q40 -12 63.5 -44t23.5 -79q0 -76 -52.5 -125.5t-131.5 -49.5 q-23 0 -42 3.5t-26 6.5l-8 3l8 18q30 -12 73 -12q66 0 112.5 45t46.5 106q0 52 -34.5 85t-90.5 33h-9z" />
<glyph unicode="&#xe0;" horiz-adv-x="525" d="M257 635l32 4l38 -142h-15zM471 308l20 112h15l-59 -420h-15l10 105h-1q-2 -5 -6.5 -12.5t-21 -27.5t-37 -35t-55.5 -27.5t-75 -12.5q-75 0 -123 52.5t-48 136.5q0 108 69.5 179.5t163.5 71.5q39 0 70 -12.5t47.5 -30.5t27.5 -36t14 -31l3 -12h1zM460 240q0 82 -43 126.5 t-111 44.5q-84 0 -147 -66t-63 -164q0 -76 44 -124t110 -48q85 0 147.5 64.5t62.5 166.5z" />
<glyph unicode="&#xe1;" horiz-adv-x="525" d="M330 497h-15l78 142l30 -4zM471 308l20 112h15l-59 -420h-15l10 105h-1q-2 -5 -6.5 -12.5t-21 -27.5t-37 -35t-55.5 -27.5t-75 -12.5q-75 0 -123 52.5t-48 136.5q0 108 69.5 179.5t163.5 71.5q39 0 70 -12.5t47.5 -30.5t27.5 -36t14 -31l3 -12h1zM460 240q0 82 -43 126.5 t-111 44.5q-84 0 -147 -66t-63 -164q0 -76 44 -124t110 -48q85 0 147.5 64.5t62.5 166.5z" />
<glyph unicode="&#xe2;" horiz-adv-x="525" d="M338 614l-76 -91h-22l85 109h29l57 -109h-22zM471 308l20 112h15l-59 -420h-15l10 105h-1q-2 -5 -6.5 -12.5t-21 -27.5t-37 -35t-55.5 -27.5t-75 -12.5q-75 0 -123 52.5t-48 136.5q0 108 69.5 179.5t163.5 71.5q39 0 70 -12.5t47.5 -30.5t27.5 -36t14 -31l3 -12h1z M460 240q0 82 -43 126.5t-111 44.5q-84 0 -147 -66t-63 -164q0 -76 44 -124t110 -48q85 0 147.5 64.5t62.5 166.5z" />
<glyph unicode="&#xe3;" horiz-adv-x="525" d="M379 497q-25 0 -62 27.5t-55 27.5q-15 0 -25.5 -7t-15 -14.5t-10.5 -20.5l-5 -11l-14 2l5 15q18 55 67 55q25 0 61.5 -27.5t56.5 -27.5q21 0 31.5 11t19.5 31l5 11l14 -2l-5 -15q-18 -55 -68 -55zM471 308l20 112h15l-59 -420h-15l10 105h-1q-2 -5 -6.5 -12.5t-21 -27.5 t-37 -35t-55.5 -27.5t-75 -12.5q-75 0 -123 52.5t-48 136.5q0 108 69.5 179.5t163.5 71.5q39 0 70 -12.5t47.5 -30.5t27.5 -36t14 -31l3 -12h1zM460 240q0 82 -43 126.5t-111 44.5q-84 0 -147 -66t-63 -164q0 -76 44 -124t110 -48q85 0 147.5 64.5t62.5 166.5z" />
<glyph unicode="&#xe4;" horiz-adv-x="525" d="M231 522q0 12 10 21.5t22 9.5q10 0 17 -7t7 -18q0 -12 -10 -21.5t-22 -9.5q-10 0 -17 7t-7 18zM360 522q0 12 10 21.5t22 9.5q10 0 17 -7t7 -18q0 -12 -10 -21.5t-22 -9.5q-10 0 -17 7t-7 18zM471 308l20 112h15l-59 -420h-15l10 105h-1q-2 -5 -6.5 -12.5t-21 -27.5 t-37 -35t-55.5 -27.5t-75 -12.5q-75 0 -123 52.5t-48 136.5q0 108 69.5 179.5t163.5 71.5q39 0 70 -12.5t47.5 -30.5t27.5 -36t14 -31l3 -12h1zM460 240q0 82 -43 126.5t-111 44.5q-84 0 -147 -66t-63 -164q0 -76 44 -124t110 -48q85 0 147.5 64.5t62.5 166.5z" />
<glyph unicode="&#xe5;" horiz-adv-x="525" d="M335 641q32 0 52.5 -17t20.5 -45q0 -36 -28 -59t-66 -23q-32 0 -52 16.5t-20 43.5q0 38 28.5 61t64.5 23zM332 622q-31 0 -50 -17t-19 -46q0 -43 54 -43q30 0 49.5 17t19.5 44q0 45 -54 45zM471 308l20 112h15l-59 -420h-15l10 105h-1q-2 -5 -6.5 -12.5t-21 -27.5 t-37 -35t-55.5 -27.5t-75 -12.5q-75 0 -123 52.5t-48 136.5q0 108 69.5 179.5t163.5 71.5q39 0 70 -12.5t47.5 -30.5t27.5 -36t14 -31l3 -12h1zM460 240q0 82 -43 126.5t-111 44.5q-84 0 -147 -66t-63 -164q0 -76 44 -124t110 -48q85 0 147.5 64.5t62.5 166.5z" />
<glyph unicode="&#xe6;" horiz-adv-x="799" d="M738 35q-7 -5 -19.5 -12.5t-51.5 -20t-79 -12.5q-68 0 -115.5 35t-62.5 97q-22 -54 -82 -93t-130 -39q-71 0 -107 33.5t-36 82.5q0 64 52.5 105.5t147.5 41.5q93 0 154 -32l4 26q24 164 -136 164q-31 0 -65.5 -9t-53.5 -18l-18 -9l-6 18q65 37 150 37q144 0 151 -130 q30 62 81.5 96t112.5 34q91 0 132.5 -54.5t27.5 -147.5l-1 -6h-357l-2 -15q-12 -89 36 -143t125 -54q39 0 74 10.5t51 21.5l16 11zM626 411q-63 0 -116.5 -44.5t-73.5 -124.5h334q9 71 -27.5 120t-116.5 49zM207 10q70 0 127.5 44.5t64.5 89.5l8 56q-61 35 -153 35 t-135.5 -36.5t-43.5 -91.5q0 -41 32 -69t100 -28z" />
<glyph unicode="&#xe7;" horiz-adv-x="425" d="M312 430q36 0 66.5 -9.5t43.5 -18.5l12 -10l-11 -17q-42 36 -115 36q-82 0 -147.5 -65.5t-65.5 -166.5q0 -78 45.5 -124t111.5 -46q32 0 63.5 9t46.5 18l15 9l6 -17q-49 -36 -126 -38h-1l-19 -35q66 0 66 -53q0 -33 -24.5 -53.5t-63.5 -20.5q-18 0 -33.5 6t-21.5 12l-6 5 l12 15q18 -19 52 -19q29 0 46.5 14t17.5 37q0 18 -13.5 28t-35.5 10l-18 -2l-6 11l26 46q-71 5 -116 54t-45 130q0 112 70.5 183.5t167.5 71.5z" />
<glyph unicode="&#xe8;" horiz-adv-x="460" d="M301 497h-15l-55 138l32 4zM298 430q85 0 125.5 -55t25.5 -147l-1 -6h-347l-2 -15q-12 -90 31.5 -144t118.5 -54q39 0 74 10.5t51 21.5l16 11l8 -17q-7 -5 -20 -12.5t-52.5 -20t-79.5 -12.5q-77 0 -124 49.5t-47 133.5q0 117 65 187t158 70zM430 242q8 70 -26.5 119.5 t-107.5 49.5q-64 0 -117 -44.5t-73 -124.5h324z" />
<glyph unicode="&#xe9;" horiz-adv-x="460" d="M397 635l-93 -138h-15l78 142zM298 430q85 0 125.5 -55t25.5 -147l-1 -6h-347l-2 -15q-12 -90 31.5 -144t118.5 -54q39 0 74 10.5t51 21.5l16 11l8 -17q-7 -5 -20 -12.5t-52.5 -20t-79.5 -12.5q-77 0 -124 49.5t-47 133.5q0 117 65 187t158 70zM430 242q8 70 -26.5 119.5 t-107.5 49.5q-64 0 -117 -44.5t-73 -124.5h324z" />
<glyph unicode="&#xea;" horiz-adv-x="460" d="M312 614l-76 -91h-22l85 109h29l57 -109h-22zM298 430q85 0 125.5 -55t25.5 -147l-1 -6h-347l-2 -15q-12 -90 31.5 -144t118.5 -54q39 0 74 10.5t51 21.5l16 11l8 -17q-7 -5 -20 -12.5t-52.5 -20t-79.5 -12.5q-77 0 -124 49.5t-47 133.5q0 117 65 187t158 70zM430 242 q8 70 -26.5 119.5t-107.5 49.5q-64 0 -117 -44.5t-73 -124.5h324z" />
<glyph unicode="&#xeb;" horiz-adv-x="460" d="M229 497q-10 0 -17 7t-7 18q0 12 10 21.5t22 9.5q10 0 17 -7t7 -18q0 -12 -10 -21.5t-22 -9.5zM358 497q-10 0 -17 7t-7 18q0 12 10 21.5t22 9.5q10 0 17 -7t7 -18q0 -12 -10 -21.5t-22 -9.5zM298 430q85 0 125.5 -55t25.5 -147l-1 -6h-347l-2 -15q-12 -90 31.5 -144 t118.5 -54q39 0 74 10.5t51 21.5l16 11l8 -17q-7 -5 -20 -12.5t-52.5 -20t-79.5 -12.5q-77 0 -124 49.5t-47 133.5q0 117 65 187t158 70zM430 242q8 70 -26.5 119.5t-107.5 49.5q-64 0 -117 -44.5t-73 -124.5h324z" />
<glyph unicode="&#xec;" horiz-adv-x="182" d="M95 635l32 4l38 -142h-15zM140 420h20l-59 -420h-20z" />
<glyph unicode="&#xed;" horiz-adv-x="182" d="M168 497h-15l78 142l30 -4zM140 420h20l-59 -420h-20z" />
<glyph unicode="&#xee;" horiz-adv-x="182" d="M176 614l-76 -91h-22l85 109h29l57 -109h-22zM140 420h20l-59 -420h-20z" />
<glyph unicode="&#xef;" horiz-adv-x="182" d="M69 522q0 12 10 21.5t22 9.5q10 0 17 -7t7 -18q0 -12 -10 -21.5t-22 -9.5q-10 0 -17 7t-7 18zM198 522q0 12 10 21.5t22 9.5q10 0 17 -7t7 -18q0 -12 -10 -21.5t-22 -9.5q-10 0 -17 7t-7 18zM140 420h20l-59 -420h-20z" />
<glyph unicode="&#xf0;" horiz-adv-x="495" d="M245 -10q-75 0 -123 52.5t-48 136.5q0 109 67.5 180t165.5 71q68 0 115 -44l2 2q-10 13 -16 26l-76 156l-129 -73l-8 18l129 73l-65 136l1 4h20l63 -129l127 73l9 -18l-127 -73l80 -162q46 -93 46 -179q0 -106 -67.5 -178t-165.5 -72zM456 232q0 82 -41.5 130.5 t-111.5 48.5q-84 0 -146 -66t-62 -164q0 -76 42.5 -124t108.5 -48q86 0 148 63.5t62 159.5z" />
<glyph unicode="&#xf1;" horiz-adv-x="505" d="M389 497q-25 0 -62 27.5t-55 27.5q-15 0 -25.5 -7t-15 -14.5t-10.5 -20.5l-5 -11l-14 2l5 15q18 55 67 55q25 0 61.5 -27.5t56.5 -27.5q21 0 31.5 11t19.5 31l5 11l14 -2l-5 -15q-18 -55 -68 -55zM138 420h15l-7 -88h1q17 34 58 63q50 35 115 35q82 0 119.5 -55.5 t25.5 -143.5l-32 -231h-20l32 230q11 81 -21.5 131t-107.5 50t-123 -48.5t-57 -100.5l-37 -262h-20z" />
<glyph unicode="&#xf2;" horiz-adv-x="503" d="M256 635l32 4l38 -142h-15zM487 240q0 -111 -70 -180.5t-167 -69.5q-78 0 -127 50.5t-49 135.5q0 110 70.5 182t167.5 72q77 0 126 -52.5t49 -137.5zM253 9q83 0 147.5 63t64.5 164q0 79 -45 127t-111 48q-83 0 -148.5 -65.5t-65.5 -166.5q0 -78 45.5 -124t112.5 -46z " />
<glyph unicode="&#xf3;" horiz-adv-x="503" d="M329 497h-15l78 142l30 -4zM487 240q0 -111 -70 -180.5t-167 -69.5q-78 0 -127 50.5t-49 135.5q0 110 70.5 182t167.5 72q77 0 126 -52.5t49 -137.5zM253 9q83 0 147.5 63t64.5 164q0 79 -45 127t-111 48q-83 0 -148.5 -65.5t-65.5 -166.5q0 -78 45.5 -124t112.5 -46z " />
<glyph unicode="&#xf4;" horiz-adv-x="503" d="M337 614l-76 -91h-22l85 109h29l57 -109h-22zM487 240q0 -111 -70 -180.5t-167 -69.5q-78 0 -127 50.5t-49 135.5q0 110 70.5 182t167.5 72q77 0 126 -52.5t49 -137.5zM253 9q83 0 147.5 63t64.5 164q0 79 -45 127t-111 48q-83 0 -148.5 -65.5t-65.5 -166.5 q0 -78 45.5 -124t112.5 -46z" />
<glyph unicode="&#xf5;" horiz-adv-x="503" d="M378 497q-25 0 -62 27.5t-55 27.5q-15 0 -25.5 -7t-15 -14.5t-10.5 -20.5l-5 -11l-14 2l5 15q18 55 67 55q25 0 61.5 -27.5t56.5 -27.5q21 0 31.5 11t19.5 31l5 11l14 -2l-5 -15q-18 -55 -68 -55zM487 240q0 -111 -70 -180.5t-167 -69.5q-78 0 -127 50.5t-49 135.5 q0 110 70.5 182t167.5 72q77 0 126 -52.5t49 -137.5zM253 9q83 0 147.5 63t64.5 164q0 79 -45 127t-111 48q-83 0 -148.5 -65.5t-65.5 -166.5q0 -78 45.5 -124t112.5 -46z" />
<glyph unicode="&#xf6;" horiz-adv-x="503" d="M230 522q0 12 10 21.5t22 9.5q10 0 17 -7t7 -18q0 -12 -10 -21.5t-22 -9.5q-10 0 -17 7t-7 18zM359 522q0 12 10 21.5t22 9.5q10 0 17 -7t7 -18q0 -12 -10 -21.5t-22 -9.5q-10 0 -17 7t-7 18zM487 240q0 -111 -70 -180.5t-167 -69.5q-78 0 -127 50.5t-49 135.5 q0 110 70.5 182t167.5 72q77 0 126 -52.5t49 -137.5zM253 9q83 0 147.5 63t64.5 164q0 79 -45 127t-111 48q-83 0 -148.5 -65.5t-65.5 -166.5q0 -78 45.5 -124t112.5 -46z" />
<glyph unicode="&#xf7;" horiz-adv-x="489" d="M276 420q0 12 10 21.5t22 9.5q10 0 17.5 -7.5t7.5 -17.5q0 -12 -10 -21.5t-22 -9.5q-11 0 -18 7.5t-7 17.5zM112 304h351l-3 -20h-351zM241 169q0 12 10 21.5t22 9.5q11 0 18 -7t7 -18q0 -12 -10 -21.5t-23 -9.5q-10 0 -17 7.5t-7 17.5z" />
<glyph unicode="&#xf8;" horiz-adv-x="504" d="M312 430q78 0 129 -56l50 46h29l-67 -62q34 -48 34 -118q0 -111 -70 -180.5t-167 -69.5q-80 0 -130 53l-46 -43h-30l63 60q-33 47 -33 116q0 110 70.5 182t167.5 72zM309 411q-83 0 -148.5 -65.5t-65.5 -166.5q0 -61 29 -104l299 284q-44 52 -114 52zM253 9 q83 0 147.5 63t64.5 164q0 61 -29 106l-299 -284q44 -49 116 -49z" />
<glyph unicode="&#xf9;" horiz-adv-x="499" d="M314 497h-15l-55 138l32 4zM459 420h20l-59 -420h-15l7 89h-1q0 -1 -6 -10.5t-20 -24.5t-33 -29.5t-49.5 -24.5t-64.5 -10q-81 0 -116.5 55t-22.5 144l32 231h20l-32 -230q-11 -82 18.5 -131.5t104.5 -49.5q78 0 125.5 50.5t55.5 102.5z" />
<glyph unicode="&#xfa;" horiz-adv-x="499" d="M410 635l-93 -138h-15l78 142zM459 420h20l-59 -420h-15l7 89h-1q0 -1 -6 -10.5t-20 -24.5t-33 -29.5t-49.5 -24.5t-64.5 -10q-81 0 -116.5 55t-22.5 144l32 231h20l-32 -230q-11 -82 18.5 -131.5t104.5 -49.5q78 0 125.5 50.5t55.5 102.5z" />
<glyph unicode="&#xfb;" horiz-adv-x="499" d="M325 614l-76 -91h-22l85 109h29l57 -109h-22zM459 420h20l-59 -420h-15l7 89h-1q0 -1 -6 -10.5t-20 -24.5t-33 -29.5t-49.5 -24.5t-64.5 -10q-81 0 -116.5 55t-22.5 144l32 231h20l-32 -230q-11 -82 18.5 -131.5t104.5 -49.5q78 0 125.5 50.5t55.5 102.5z" />
<glyph unicode="&#xfc;" horiz-adv-x="499" d="M242 497q-10 0 -17 7t-7 18q0 12 10 21.5t22 9.5q10 0 17 -7t7 -18q0 -12 -10 -21.5t-22 -9.5zM371 497q-10 0 -17 7t-7 18q0 12 10 21.5t22 9.5q10 0 17 -7t7 -18q0 -12 -10 -21.5t-22 -9.5zM459 420h20l-59 -420h-15l7 89h-1q0 -1 -6 -10.5t-20 -24.5t-33 -29.5 t-49.5 -24.5t-64.5 -10q-81 0 -116.5 55t-22.5 144l32 231h20l-32 -230q-11 -82 18.5 -131.5t104.5 -49.5q78 0 125.5 50.5t55.5 102.5z" />
<glyph unicode="&#xfd;" horiz-adv-x="496" d="M320 497h-15l78 142l30 -4zM456 420h20l-59 -419q-12 -86 -65 -133t-140 -47q-44 0 -79 13t-48 26l-13 13l15 14q5 -5 14 -13t42.5 -21t71.5 -13q77 0 124 42t58 119l13 88h-2q-19 -28 -24 -34q-58 -64 -150 -65q-81 0 -116.5 55t-22.5 144l32 231h21l-32 -230 q-11 -82 18.5 -131t103.5 -49q78 0 126 50t56 102z" />
<glyph unicode="&#xfe;" horiz-adv-x="526" d="M115 111l-38 -267h-20l106 756h20l-41 -291h1q2 5 6.5 13t22 29t38 37t55.5 29t75 13q74 0 122 -52.5t48 -136.5q0 -107 -69 -179t-162 -72q-40 0 -71.5 12.5t-47.5 30.5t-27 35.5t-14 29.5l-3 13h-1zM125 180q0 -78 45 -124.5t111 -46.5q84 0 146 66t62 164 q0 76 -42.5 124t-108.5 48q-85 0 -149 -63.5t-64 -167.5z" />
<glyph unicode="&#xff;" horiz-adv-x="496" d="M221 522q0 12 10 21.5t22 9.5q10 0 17 -7t7 -18q0 -12 -10 -21.5t-22 -9.5q-10 0 -17 7t-7 18zM350 522q0 12 10 21.5t22 9.5q10 0 17 -7t7 -18q0 -12 -10 -21.5t-22 -9.5q-10 0 -17 7t-7 18zM456 420h20l-59 -419q-12 -86 -65 -133t-140 -47q-44 0 -79 13t-48 26l-13 13 l15 14q5 -5 14 -13t42.5 -21t71.5 -13q77 0 124 42t58 119l13 88h-2q-19 -28 -24 -34q-58 -64 -150 -65q-81 0 -116.5 55t-22.5 144l32 231h21l-32 -230q-11 -82 18.5 -131t103.5 -49q78 0 126 50t56 102z" />
<glyph unicode="&#x152;" horiz-adv-x="1052" d="M1089 580h-376l-38 -267h330l-3 -20h-330l-38 -273h376l-3 -20h-397l24 172q-43 -83 -119.5 -132t-166.5 -49q-122 0 -190.5 72.5t-68.5 190.5q0 148 96 249.5t231 101.5q103 0 168 -51t84 -140l26 186h397zM351 11q130 0 216.5 98.5t86.5 231.5q0 108 -62 176t-179 68 q-129 0 -216 -97.5t-87 -230.5q0 -108 62 -177t179 -69z" />
<glyph unicode="&#x153;" horiz-adv-x="844" d="M783 35q-7 -5 -20 -12.5t-52.5 -20t-79.5 -12.5q-66 0 -111.5 37.5t-56.5 103.5q-29 -65 -87.5 -103t-127.5 -38q-78 0 -127 50.5t-49 135.5q0 110 70.5 182t167.5 72q65 0 111 -38.5t59 -104.5q27 67 82 105t121 38q85 0 125.5 -55t25.5 -147l-1 -6h-347l-2 -15 q-12 -90 31.5 -144t118.5 -54q39 0 74 10.5t51 21.5l16 11zM251 9q83 0 147.5 63t64.5 164q0 79 -45 127t-111 48q-83 0 -148.5 -65.5t-65.5 -166.5q0 -78 45.5 -124t112.5 -46zM681 411q-64 0 -117.5 -45t-72.5 -124h324q8 70 -26.5 119.5t-107.5 49.5z" />
<glyph unicode="&#x178;" horiz-adv-x="543" d="M278 693q0 12 10 21.5t22 9.5q10 0 17 -7t7 -18q0 -12 -10 -21.5t-22 -9.5q-10 0 -17 7t-7 18zM407 693q0 12 10 21.5t22 9.5q10 0 17 -7t7 -18q0 -12 -10 -21.5t-22 -9.5q-10 0 -17 7t-7 18zM569 600h25l-280 -368l-32 -232h-21l32 232l-176 368h25l152 -322l12 -29h2 l20 29z" />
<glyph unicode="&#x2c6;" horiz-adv-x="314" d="M267 759l-76 -91h-22l85 109h29l57 -109h-22z" />
<glyph unicode="&#x2dc;" horiz-adv-x="410" d="M354 668q-25 0 -62 27.5t-55 27.5q-15 0 -25.5 -7t-15 -14.5t-10.5 -20.5l-5 -11l-14 2l5 15q18 55 67 55q25 0 61.5 -27.5t56.5 -27.5q21 0 31.5 11t19.5 31l5 11l14 -2l-5 -15q-18 -55 -68 -55z" />
<glyph unicode="&#x2000;" horiz-adv-x="399" />
<glyph unicode="&#x2001;" horiz-adv-x="799" />
<glyph unicode="&#x2002;" horiz-adv-x="399" />
<glyph unicode="&#x2003;" horiz-adv-x="799" />
<glyph unicode="&#x2004;" horiz-adv-x="266" />
<glyph unicode="&#x2005;" horiz-adv-x="199" />
<glyph unicode="&#x2006;" horiz-adv-x="133" />
<glyph unicode="&#x2007;" horiz-adv-x="133" />
<glyph unicode="&#x2008;" horiz-adv-x="99" />
<glyph unicode="&#x2009;" horiz-adv-x="159" />
<glyph unicode="&#x200a;" horiz-adv-x="44" />
<glyph unicode="&#x2010;" horiz-adv-x="401" d="M101 240h267l-3 -20h-267z" />
<glyph unicode="&#x2011;" horiz-adv-x="401" d="M101 240h267l-3 -20h-267z" />
<glyph unicode="&#x2012;" horiz-adv-x="401" d="M101 240h267l-3 -20h-267z" />
<glyph unicode="&#x2013;" horiz-adv-x="458" d="M109 298h313l-3 -20h-313z" />
<glyph unicode="&#x2014;" horiz-adv-x="729" d="M109 298h584l-3 -20h-584z" />
<glyph unicode="&#x2018;" horiz-adv-x="199" d="M151 454q-10 0 -16.5 7.5t-5.5 18.5l1 12q3 40 32 68.5t77 38.5l1 -18q-34 -5 -59 -27t-26 -48q26 0 26 -23q0 -11 -9.5 -20t-20.5 -9z" />
<glyph unicode="&#x2019;" horiz-adv-x="207" d="M214 601q10 0 16.5 -7.5t5.5 -18.5l-1 -12q-3 -40 -32 -68.5t-77 -38.5l-1 18q34 5 59 27t26 48q-26 0 -26 23q0 11 9.5 20t20.5 9z" />
<glyph unicode="&#x201a;" horiz-adv-x="192" d="M103 44q10 0 16.5 -7.5t5.5 -18.5l-1 -12q-3 -40 -32 -68.5t-77 -38.5l-1 18q34 5 59 27t26 48q-26 0 -26 23q0 11 9.5 20t20.5 9z" />
<glyph unicode="&#x201c;" horiz-adv-x="333" d="M150 455q-10 0 -16.5 7.5t-5.5 18.5l1 12q3 40 32 68.5t77 38.5l1 -18q-34 -5 -59 -27t-26 -48q26 0 26 -23q0 -11 -9.5 -20t-20.5 -9zM286 455q-10 0 -16.5 7.5t-5.5 18.5l1 12q3 40 32 68.5t77 38.5l1 -18q-34 -5 -59 -27t-26 -48q26 0 26 -23q0 -11 -9.5 -20t-20.5 -9 z" />
<glyph unicode="&#x201d;" horiz-adv-x="333" d="M206 600q10 0 16.5 -7.5t5.5 -18.5l-1 -12q-4 -40 -32.5 -68.5t-76.5 -38.5l-1 18q34 5 59 27t26 48q-26 0 -26 23q0 11 9.5 20t20.5 9zM342 600q10 0 16.5 -7.5t5.5 -18.5l-1 -12q-4 -40 -32.5 -68.5t-76.5 -38.5l-1 18q34 5 59 27t26 48q-26 0 -26 23q0 11 9.5 20 t20.5 9z" />
<glyph unicode="&#x201e;" horiz-adv-x="333" d="M106 45q10 0 16.5 -7.5t5.5 -18.5l-1 -12q-3 -40 -32 -68.5t-77 -38.5l-1 18q34 5 59 27t26 48q-26 0 -26 23q0 11 9.5 20t20.5 9zM242 45q10 0 16.5 -7.5t5.5 -18.5l-1 -12q-3 -40 -32 -68.5t-77 -38.5l-1 18q34 5 59 27t26 48q-26 0 -26 23q0 11 9.5 20t20.5 9z" />
<glyph unicode="&#x2022;" horiz-adv-x="282" d="M180 275q19 0 32 -13t13 -33q0 -24 -18 -41t-42 -17q-19 0 -32 13t-13 33q0 24 18 41t42 17z" />
<glyph unicode="&#x2026;" horiz-adv-x="526" d="M69 15q0 11 9.5 20t20.5 9q10 0 16.5 -7t6.5 -16q0 -11 -9.5 -20t-20.5 -9q-10 0 -16.5 7t-6.5 16zM239 15q0 11 9.5 20t20.5 9q10 0 16.5 -7t6.5 -16q0 -11 -9.5 -20t-20.5 -9q-10 0 -16.5 7t-6.5 16zM409 15q0 11 9.5 20t20.5 9q10 0 16.5 -7t6.5 -16q0 -11 -9.5 -20 t-20.5 -9q-10 0 -16.5 7t-6.5 16z" />
<glyph unicode="&#x202f;" horiz-adv-x="159" />
<glyph unicode="&#x2039;" horiz-adv-x="233" d="M81 217l123 156h21l-1 -7l-122 -155l-1 -3l79 -157l-1 -7h-21l-79 156z" />
<glyph unicode="&#x203a;" horiz-adv-x="233" d="M210 200l-123 -156h-21l1 7l123 157v3l-79 155l1 7h21l79 -156z" />
<glyph unicode="&#x205f;" horiz-adv-x="199" />
<glyph unicode="&#x20ac;" horiz-adv-x="606" d="M477 604q31 0 57.5 -7t42.5 -17t27.5 -20.5t16.5 -17.5l5 -7l-17 -15q-2 3 -5 7t-14.5 15t-26 19.5t-38.5 15.5t-51 7q-95 0 -160 -57t-94 -149h239l-3 -20h-241q-13 -51 -13 -111v-7h238l-3 -20h-234q6 -90 54.5 -146.5t136.5 -56.5q43 0 81.5 16t54.5 32l17 16l12 -14 q-2 -3 -6.5 -7.5t-20.5 -16.5t-34 -21.5t-46.5 -17t-59.5 -7.5q-98 0 -151.5 62t-59.5 161h-103l3 20h99v5q0 61 13 113h-96l3 20h98q30 101 102 163.5t177 62.5z" />
<glyph unicode="&#x2122;" horiz-adv-x="703" d="M350 580h-107l-42 -299h-21l42 299h-106l3 20h234zM377 281l45 319h30l88 -181l140 181h30l-45 -319h-22l41 292l-142 -185h-12l-90 185l-41 -292h-22z" />
<glyph unicode="&#x25fc;" horiz-adv-x="420" d="M0 420h420v-420h-420v420z" />
</font>
</defs>
</svg>
